<ttFont>
    <TTGlyph name="A" xMin="17" yMin="0" xMax="591" yMax="690">
      <contour>
        <pt x="463" y="243" on="1"/>
        <pt x="145" y="243" on="1"/>
        <pt x="60" y="0" on="1"/>
        <pt x="17" y="0" on="1"/>
        <pt x="258" y="677" on="1"/>
        <pt x="263" y="690" on="0"/>
        <pt x="276" y="690" on="1"/>
        <pt x="332" y="690" on="1"/>
        <pt x="345" y="690" on="0"/>
        <pt x="350" y="677" on="1"/>
        <pt x="591" y="0" on="1"/>
        <pt x="548" y="0" on="1"/>
      </contour>
      <contour>
        <pt x="450" y="279" on="1"/>
        <pt x="338" y="600" on="1"/>
        <pt x="318" y="656" on="1"/>
        <pt x="290" y="656" on="1"/>
        <pt x="270" y="600" on="1"/>
        <pt x="158" y="279" on="1"/>
      </contour>
    </TTGlyph>
    <TTGlyph name="AE" xMin="8" yMin="0" xMax="850" yMax="690">
      <contour>
        <pt x="850" y="35" on="1"/>
        <pt x="850" y="4" on="1"/>
        <pt x="758" y="0" on="0"/>
        <pt x="572" y="0" on="1"/>
        <pt x="526" y="0" on="0"/>
        <pt x="466" y="60" on="0"/>
        <pt x="466" y="106" on="1"/>
        <pt x="466" y="260" on="1"/>
        <pt x="220" y="260" on="1"/>
        <pt x="54" y="0" on="1"/>
        <pt x="8" y="0" on="1"/>
        <pt x="392" y="599" on="1"/>
        <pt x="427" y="653" on="0"/>
        <pt x="508" y="690" on="0"/>
        <pt x="573" y="690" on="1"/>
        <pt x="749" y="690" on="0"/>
        <pt x="850" y="686" on="1"/>
        <pt x="850" y="654" on="1"/>
        <pt x="585" y="654" on="1"/>
        <pt x="549" y="654" on="0"/>
        <pt x="506" y="612" on="0"/>
        <pt x="506" y="576" on="1"/>
        <pt x="506" y="385" on="1"/>
        <pt x="808" y="385" on="1"/>
        <pt x="808" y="351" on="1"/>
        <pt x="506" y="351" on="1"/>
        <pt x="506" y="114" on="1"/>
        <pt x="506" y="78" on="0"/>
        <pt x="549" y="35" on="0"/>
        <pt x="585" y="35" on="1"/>
      </contour>
      <contour>
        <pt x="466" y="295" on="1"/>
        <pt x="466" y="579" on="1"/>
        <pt x="466" y="602" on="0"/>
        <pt x="489" y="647" on="0"/>
        <pt x="505" y="655" on="1"/>
        <pt x="498" y="655" on="1"/>
        <pt x="461" y="638" on="0"/>
        <pt x="427" y="586" on="1"/>
        <pt x="242" y="295" on="1"/>
      </contour>
    </TTGlyph>
    <TTGlyph name="Aacute" xMin="17" yMin="0" xMax="591" yMax="899">
      <contour>
        <pt x="270" y="734" on="1"/>
        <pt x="252" y="754" on="1"/>
        <pt x="407" y="899" on="1"/>
        <pt x="433" y="870" on="1"/>
      </contour>
      <contour>
        <pt x="463" y="243" on="1"/>
        <pt x="145" y="243" on="1"/>
        <pt x="60" y="0" on="1"/>
        <pt x="17" y="0" on="1"/>
        <pt x="258" y="677" on="1"/>
        <pt x="263" y="690" on="0"/>
        <pt x="276" y="690" on="1"/>
        <pt x="332" y="690" on="1"/>
        <pt x="345" y="690" on="0"/>
        <pt x="350" y="677" on="1"/>
        <pt x="591" y="0" on="1"/>
        <pt x="548" y="0" on="1"/>
      </contour>
      <contour>
        <pt x="450" y="279" on="1"/>
        <pt x="338" y="600" on="1"/>
        <pt x="318" y="656" on="1"/>
        <pt x="290" y="656" on="1"/>
        <pt x="270" y="600" on="1"/>
        <pt x="158" y="279" on="1"/>
      </contour>
    </TTGlyph>
    <TTGlyph name="Abreve" xMin="17" yMin="0" xMax="591" yMax="876">
      <contour>
        <pt x="418" y="876" on="1"/>
        <pt x="443" y="871" on="1"/>
        <pt x="444" y="816" on="0"/>
        <pt x="369" y="753" on="0"/>
        <pt x="239" y="753" on="0"/>
        <pt x="163" y="816" on="0"/>
        <pt x="164" y="871" on="1"/>
        <pt x="189" y="876" on="1"/>
        <pt x="189" y="833" on="0"/>
        <pt x="250" y="787" on="0"/>
        <pt x="305" y="787" on="1"/>
        <pt x="358" y="787" on="0"/>
        <pt x="419" y="834" on="0"/>
      </contour>
      <contour>
        <pt x="463" y="243" on="1"/>
        <pt x="145" y="243" on="1"/>
        <pt x="60" y="0" on="1"/>
        <pt x="17" y="0" on="1"/>
        <pt x="258" y="677" on="1"/>
        <pt x="263" y="690" on="0"/>
        <pt x="276" y="690" on="1"/>
        <pt x="332" y="690" on="1"/>
        <pt x="345" y="690" on="0"/>
        <pt x="350" y="677" on="1"/>
        <pt x="591" y="0" on="1"/>
        <pt x="548" y="0" on="1"/>
      </contour>
      <contour>
        <pt x="450" y="279" on="1"/>
        <pt x="338" y="600" on="1"/>
        <pt x="318" y="656" on="1"/>
        <pt x="290" y="656" on="1"/>
        <pt x="270" y="600" on="1"/>
        <pt x="158" y="279" on="1"/>
      </contour>
    </TTGlyph>
    <TTGlyph name="Acircumflex" xMin="17" yMin="0" xMax="591" yMax="884">
      <contour>
        <pt x="170" y="746" on="1"/>
        <pt x="154" y="765" on="1"/>
        <pt x="289" y="884" on="1"/>
        <pt x="318" y="884" on="1"/>
        <pt x="453" y="765" on="1"/>
        <pt x="437" y="746" on="1"/>
        <pt x="308" y="847" on="1"/>
        <pt x="300" y="847" on="1"/>
      </contour>
      <contour>
        <pt x="463" y="243" on="1"/>
        <pt x="145" y="243" on="1"/>
        <pt x="60" y="0" on="1"/>
        <pt x="17" y="0" on="1"/>
        <pt x="258" y="677" on="1"/>
        <pt x="263" y="690" on="0"/>
        <pt x="276" y="690" on="1"/>
        <pt x="332" y="690" on="1"/>
        <pt x="345" y="690" on="0"/>
        <pt x="350" y="677" on="1"/>
        <pt x="591" y="0" on="1"/>
        <pt x="548" y="0" on="1"/>
      </contour>
      <contour>
        <pt x="450" y="279" on="1"/>
        <pt x="338" y="600" on="1"/>
        <pt x="318" y="656" on="1"/>
        <pt x="290" y="656" on="1"/>
        <pt x="270" y="600" on="1"/>
        <pt x="158" y="279" on="1"/>
      </contour>
    </TTGlyph>
    <TTGlyph name="Adieresis" xMin="17" yMin="0" xMax="591" yMax="860">
      <contour>
        <pt x="223" y="775" on="1"/>
        <pt x="208" y="775" on="1"/>
        <pt x="195" y="775" on="0"/>
        <pt x="195" y="790" on="1"/>
        <pt x="195" y="845" on="1"/>
        <pt x="195" y="860" on="0"/>
        <pt x="208" y="860" on="1"/>
        <pt x="223" y="860" on="1"/>
        <pt x="236" y="860" on="0"/>
        <pt x="236" y="845" on="1"/>
        <pt x="236" y="790" on="1"/>
        <pt x="236" y="775" on="0"/>
      </contour>
      <contour>
        <pt x="400" y="775" on="1"/>
        <pt x="385" y="775" on="1"/>
        <pt x="372" y="775" on="0"/>
        <pt x="372" y="790" on="1"/>
        <pt x="372" y="845" on="1"/>
        <pt x="372" y="860" on="0"/>
        <pt x="385" y="860" on="1"/>
        <pt x="400" y="860" on="1"/>
        <pt x="413" y="860" on="0"/>
        <pt x="413" y="845" on="1"/>
        <pt x="413" y="790" on="1"/>
        <pt x="413" y="775" on="0"/>
      </contour>
      <contour>
        <pt x="463" y="243" on="1"/>
        <pt x="145" y="243" on="1"/>
        <pt x="60" y="0" on="1"/>
        <pt x="17" y="0" on="1"/>
        <pt x="258" y="677" on="1"/>
        <pt x="263" y="690" on="0"/>
        <pt x="276" y="690" on="1"/>
        <pt x="332" y="690" on="1"/>
        <pt x="345" y="690" on="0"/>
        <pt x="350" y="677" on="1"/>
        <pt x="591" y="0" on="1"/>
        <pt x="548" y="0" on="1"/>
      </contour>
      <contour>
        <pt x="450" y="279" on="1"/>
        <pt x="338" y="600" on="1"/>
        <pt x="318" y="656" on="1"/>
        <pt x="290" y="656" on="1"/>
        <pt x="270" y="600" on="1"/>
        <pt x="158" y="279" on="1"/>
      </contour>
    </TTGlyph>
    <TTGlyph name="Agrave" xMin="17" yMin="0" xMax="591" yMax="899">
      <contour>
        <pt x="328" y="734" on="1"/>
        <pt x="165" y="870" on="1"/>
        <pt x="191" y="899" on="1"/>
        <pt x="346" y="754" on="1"/>
      </contour>
      <contour>
        <pt x="463" y="243" on="1"/>
        <pt x="145" y="243" on="1"/>
        <pt x="60" y="0" on="1"/>
        <pt x="17" y="0" on="1"/>
        <pt x="258" y="677" on="1"/>
        <pt x="263" y="690" on="0"/>
        <pt x="276" y="690" on="1"/>
        <pt x="332" y="690" on="1"/>
        <pt x="345" y="690" on="0"/>
        <pt x="350" y="677" on="1"/>
        <pt x="591" y="0" on="1"/>
        <pt x="548" y="0" on="1"/>
      </contour>
      <contour>
        <pt x="450" y="279" on="1"/>
        <pt x="338" y="600" on="1"/>
        <pt x="318" y="656" on="1"/>
        <pt x="290" y="656" on="1"/>
        <pt x="270" y="600" on="1"/>
        <pt x="158" y="279" on="1"/>
      </contour>
    </TTGlyph>
    <TTGlyph name="Amacron" xMin="17" yMin="0" xMax="591" yMax="833">
      <contour>
        <pt x="437" y="799" on="1"/>
        <pt x="172" y="799" on="1"/>
        <pt x="172" y="833" on="1"/>
        <pt x="437" y="833" on="1"/>
      </contour>
      <contour>
        <pt x="463" y="243" on="1"/>
        <pt x="145" y="243" on="1"/>
        <pt x="60" y="0" on="1"/>
        <pt x="17" y="0" on="1"/>
        <pt x="258" y="677" on="1"/>
        <pt x="263" y="690" on="0"/>
        <pt x="276" y="690" on="1"/>
        <pt x="332" y="690" on="1"/>
        <pt x="345" y="690" on="0"/>
        <pt x="350" y="677" on="1"/>
        <pt x="591" y="0" on="1"/>
        <pt x="548" y="0" on="1"/>
      </contour>
      <contour>
        <pt x="450" y="279" on="1"/>
        <pt x="338" y="600" on="1"/>
        <pt x="318" y="656" on="1"/>
        <pt x="290" y="656" on="1"/>
        <pt x="270" y="600" on="1"/>
        <pt x="158" y="279" on="1"/>
      </contour>
    </TTGlyph>
    <TTGlyph name="Aogonek" xMin="17" yMin="-202" xMax="602" yMax="690">
      <contour>
        <pt x="597" y="-176" on="1"/>
        <pt x="602" y="-194" on="1"/>
        <pt x="522" y="-226" on="0"/>
        <pt x="456" y="-177" on="0"/>
        <pt x="476" y="-122" on="1"/>
        <pt x="495" y="-63" on="0"/>
        <pt x="566" y="0" on="1"/>
        <pt x="548" y="0" on="1"/>
        <pt x="463" y="243" on="1"/>
        <pt x="145" y="243" on="1"/>
        <pt x="60" y="0" on="1"/>
        <pt x="17" y="0" on="1"/>
        <pt x="258" y="677" on="1"/>
        <pt x="263" y="690" on="0"/>
        <pt x="276" y="690" on="1"/>
        <pt x="332" y="690" on="1"/>
        <pt x="345" y="690" on="0"/>
        <pt x="350" y="677" on="1"/>
        <pt x="591" y="0" on="1"/>
        <pt x="528" y="-65" on="0"/>
        <pt x="508" y="-123" on="1"/>
        <pt x="492" y="-167" on="0"/>
        <pt x="542" y="-195" on="0"/>
      </contour>
      <contour>
        <pt x="450" y="279" on="1"/>
        <pt x="338" y="600" on="1"/>
        <pt x="318" y="656" on="1"/>
        <pt x="290" y="656" on="1"/>
        <pt x="270" y="600" on="1"/>
        <pt x="158" y="279" on="1"/>
      </contour>
    </TTGlyph>
    <TTGlyph name="Aring" xMin="17" yMin="0" xMax="591" yMax="913">
      <contour>
        <pt x="345" y="718" on="0"/>
        <pt x="263" y="718" on="0"/>
        <pt x="206" y="775" on="0"/>
        <pt x="206" y="815" on="1"/>
        <pt x="206" y="856" on="0"/>
        <pt x="264" y="913" on="0"/>
        <pt x="304" y="913" on="1"/>
        <pt x="345" y="913" on="0"/>
        <pt x="403" y="856" on="0"/>
        <pt x="403" y="815" on="1"/>
        <pt x="403" y="775" on="0"/>
      </contour>
      <contour>
        <pt x="334" y="888" on="0"/>
        <pt x="274" y="888" on="0"/>
        <pt x="233" y="846" on="0"/>
        <pt x="233" y="784" on="0"/>
        <pt x="274" y="743" on="0"/>
        <pt x="334" y="743" on="0"/>
        <pt x="376" y="784" on="0"/>
        <pt x="376" y="846" on="0"/>
      </contour>
      <contour>
        <pt x="463" y="243" on="1"/>
        <pt x="145" y="243" on="1"/>
        <pt x="60" y="0" on="1"/>
        <pt x="17" y="0" on="1"/>
        <pt x="258" y="677" on="1"/>
        <pt x="263" y="690" on="0"/>
        <pt x="276" y="690" on="1"/>
        <pt x="332" y="690" on="1"/>
        <pt x="345" y="690" on="0"/>
        <pt x="350" y="677" on="1"/>
        <pt x="591" y="0" on="1"/>
        <pt x="548" y="0" on="1"/>
      </contour>
      <contour>
        <pt x="450" y="279" on="1"/>
        <pt x="338" y="600" on="1"/>
        <pt x="318" y="656" on="1"/>
        <pt x="290" y="656" on="1"/>
        <pt x="270" y="600" on="1"/>
        <pt x="158" y="279" on="1"/>
      </contour>
    </TTGlyph>
    <TTGlyph name="Atilde" xMin="17" yMin="0" xMax="591" yMax="870">
      <contour>
        <pt x="179" y="774" on="1"/>
        <pt x="156" y="774" on="1"/>
        <pt x="153" y="822" on="0"/>
        <pt x="195" y="873" on="0"/>
        <pt x="232" y="870" on="1"/>
        <pt x="262" y="867" on="0"/>
        <pt x="345" y="807" on="0"/>
        <pt x="374" y="805" on="1"/>
        <pt x="404" y="802" on="0"/>
        <pt x="430" y="831" on="0"/>
        <pt x="430" y="865" on="1"/>
        <pt x="453" y="865" on="1"/>
        <pt x="455" y="819" on="0"/>
        <pt x="414" y="770" on="0"/>
        <pt x="377" y="773" on="1"/>
        <pt x="341" y="776" on="0"/>
        <pt x="256" y="835" on="0"/>
        <pt x="234" y="838" on="1"/>
        <pt x="205" y="841" on="0"/>
        <pt x="179" y="810" on="0"/>
      </contour>
      <contour>
        <pt x="463" y="243" on="1"/>
        <pt x="145" y="243" on="1"/>
        <pt x="60" y="0" on="1"/>
        <pt x="17" y="0" on="1"/>
        <pt x="258" y="677" on="1"/>
        <pt x="263" y="690" on="0"/>
        <pt x="276" y="690" on="1"/>
        <pt x="332" y="690" on="1"/>
        <pt x="345" y="690" on="0"/>
        <pt x="350" y="677" on="1"/>
        <pt x="591" y="0" on="1"/>
        <pt x="548" y="0" on="1"/>
      </contour>
      <contour>
        <pt x="450" y="279" on="1"/>
        <pt x="338" y="600" on="1"/>
        <pt x="318" y="656" on="1"/>
        <pt x="290" y="656" on="1"/>
        <pt x="270" y="600" on="1"/>
        <pt x="158" y="279" on="1"/>
      </contour>
    </TTGlyph>
    <TTGlyph name="B" xMin="99" yMin="-8" xMax="545" yMax="698">
      <contour>
        <pt x="408" y="360" on="1"/>
        <pt x="408" y="356" on="1"/>
        <pt x="482" y="349" on="0"/>
        <pt x="545" y="258" on="0"/>
        <pt x="545" y="172" on="1"/>
        <pt x="545" y="68" on="0"/>
        <pt x="451" y="-8" on="0"/>
        <pt x="331" y="-8" on="1"/>
        <pt x="182" y="-8" on="0"/>
        <pt x="99" y="0" on="1"/>
        <pt x="99" y="690" on="1"/>
        <pt x="172" y="698" on="0"/>
        <pt x="301" y="698" on="1"/>
        <pt x="427" y="698" on="0"/>
        <pt x="525" y="622" on="0"/>
        <pt x="525" y="518" on="1"/>
        <pt x="525" y="443" on="0"/>
        <pt x="469" y="366" on="0"/>
      </contour>
      <contour>
        <pt x="140" y="374" on="1"/>
        <pt x="318" y="374" on="1"/>
        <pt x="412" y="375" on="0"/>
        <pt x="483" y="432" on="0"/>
        <pt x="483" y="515" on="1"/>
        <pt x="483" y="603" on="0"/>
        <pt x="404" y="662" on="0"/>
        <pt x="300" y="662" on="1"/>
        <pt x="210" y="662" on="0"/>
        <pt x="140" y="660" on="1"/>
      </contour>
      <contour>
        <pt x="140" y="341" on="1"/>
        <pt x="140" y="30" on="1"/>
        <pt x="218" y="28" on="0"/>
        <pt x="327" y="28" on="1"/>
        <pt x="427" y="28" on="0"/>
        <pt x="503" y="88" on="0"/>
        <pt x="503" y="176" on="1"/>
        <pt x="503" y="271" on="0"/>
        <pt x="422" y="339" on="0"/>
        <pt x="318" y="341" on="1"/>
      </contour>
    </TTGlyph>
    <TTGlyph name="C" xMin="72" yMin="-12" xMax="523" yMax="702">
      <contour>
        <pt x="516" y="38" on="1"/>
        <pt x="523" y="7" on="1"/>
        <pt x="444" y="-12" on="0"/>
        <pt x="331" y="-12" on="1"/>
        <pt x="188" y="-12" on="0"/>
        <pt x="72" y="148" on="0"/>
        <pt x="72" y="542" on="0"/>
        <pt x="188" y="702" on="0"/>
        <pt x="331" y="702" on="1"/>
        <pt x="436" y="702" on="0"/>
        <pt x="509" y="684" on="1"/>
        <pt x="502" y="654" on="1"/>
        <pt x="424" y="665" on="0"/>
        <pt x="331" y="665" on="1"/>
        <pt x="210" y="665" on="0"/>
        <pt x="115" y="524" on="0"/>
        <pt x="115" y="166" on="0"/>
        <pt x="210" y="25" on="0"/>
        <pt x="331" y="25" on="1"/>
        <pt x="439" y="25" on="0"/>
      </contour>
    </TTGlyph>
    <TTGlyph name="Cacute" xMin="72" yMin="-12" xMax="523" yMax="899">
      <contour>
        <pt x="450" y="870" on="1"/>
        <pt x="287" y="734" on="1"/>
        <pt x="269" y="754" on="1"/>
        <pt x="424" y="899" on="1"/>
      </contour>
      <contour>
        <pt x="516" y="38" on="1"/>
        <pt x="523" y="7" on="1"/>
        <pt x="444" y="-12" on="0"/>
        <pt x="331" y="-12" on="1"/>
        <pt x="188" y="-12" on="0"/>
        <pt x="72" y="148" on="0"/>
        <pt x="72" y="542" on="0"/>
        <pt x="188" y="702" on="0"/>
        <pt x="331" y="702" on="1"/>
        <pt x="436" y="702" on="0"/>
        <pt x="509" y="684" on="1"/>
        <pt x="502" y="654" on="1"/>
        <pt x="424" y="665" on="0"/>
        <pt x="331" y="665" on="1"/>
        <pt x="210" y="665" on="0"/>
        <pt x="115" y="524" on="0"/>
        <pt x="115" y="166" on="0"/>
        <pt x="210" y="25" on="0"/>
        <pt x="331" y="25" on="1"/>
        <pt x="439" y="25" on="0"/>
      </contour>
    </TTGlyph>
    <TTGlyph name="Ccaron" xMin="72" yMin="-12" xMax="523" yMax="887">
      <contour>
        <pt x="473" y="869" on="1"/>
        <pt x="334" y="749" on="1"/>
        <pt x="311" y="749" on="1"/>
        <pt x="172" y="869" on="1"/>
        <pt x="189" y="887" on="1"/>
        <pt x="319" y="789" on="1"/>
        <pt x="327" y="789" on="1"/>
        <pt x="456" y="887" on="1"/>
      </contour>
      <contour>
        <pt x="516" y="38" on="1"/>
        <pt x="523" y="7" on="1"/>
        <pt x="444" y="-12" on="0"/>
        <pt x="331" y="-12" on="1"/>
        <pt x="188" y="-12" on="0"/>
        <pt x="72" y="148" on="0"/>
        <pt x="72" y="542" on="0"/>
        <pt x="188" y="702" on="0"/>
        <pt x="331" y="702" on="1"/>
        <pt x="436" y="702" on="0"/>
        <pt x="509" y="684" on="1"/>
        <pt x="502" y="654" on="1"/>
        <pt x="424" y="665" on="0"/>
        <pt x="331" y="665" on="1"/>
        <pt x="210" y="665" on="0"/>
        <pt x="115" y="524" on="0"/>
        <pt x="115" y="166" on="0"/>
        <pt x="210" y="25" on="0"/>
        <pt x="331" y="25" on="1"/>
        <pt x="439" y="25" on="0"/>
      </contour>
    </TTGlyph>
    <TTGlyph name="Ccedilla" xMin="72" yMin="-234" xMax="523" yMax="702">
      <contour>
        <pt x="516" y="38" on="1"/>
        <pt x="523" y="7" on="1"/>
        <pt x="444" y="-12" on="0"/>
        <pt x="331" y="-12" on="1"/>
        <pt x="188" y="-12" on="0"/>
        <pt x="72" y="148" on="0"/>
        <pt x="72" y="542" on="0"/>
        <pt x="188" y="702" on="0"/>
        <pt x="331" y="702" on="1"/>
        <pt x="436" y="702" on="0"/>
        <pt x="509" y="684" on="1"/>
        <pt x="502" y="654" on="1"/>
        <pt x="424" y="665" on="0"/>
        <pt x="331" y="665" on="1"/>
        <pt x="210" y="665" on="0"/>
        <pt x="115" y="524" on="0"/>
        <pt x="115" y="166" on="0"/>
        <pt x="210" y="25" on="0"/>
        <pt x="331" y="25" on="1"/>
        <pt x="439" y="25" on="0"/>
      </contour>
      <contour>
        <pt x="292" y="-80" on="1"/>
        <pt x="297" y="-59" on="1"/>
        <pt x="386" y="-53" on="0"/>
        <pt x="383" y="-124" on="1"/>
        <pt x="382" y="-179" on="0"/>
        <pt x="302" y="-242" on="0"/>
        <pt x="237" y="-234" on="1"/>
        <pt x="243" y="-211" on="1"/>
        <pt x="292" y="-213" on="0"/>
        <pt x="351" y="-163" on="0"/>
        <pt x="351" y="-126" on="1"/>
        <pt x="351" y="-101" on="0"/>
        <pt x="325" y="-81" on="0"/>
      </contour>
    </TTGlyph>
    <TTGlyph name="Cdotaccent" xMin="72" yMin="-12" xMax="523" yMax="862">
      <contour>
        <pt x="314" y="862" on="1"/>
        <pt x="329" y="862" on="1"/>
        <pt x="344" y="862" on="0"/>
        <pt x="344" y="846" on="1"/>
        <pt x="344" y="786" on="1"/>
        <pt x="344" y="770" on="0"/>
        <pt x="329" y="770" on="1"/>
        <pt x="314" y="770" on="1"/>
        <pt x="299" y="770" on="0"/>
        <pt x="299" y="786" on="1"/>
        <pt x="299" y="846" on="1"/>
        <pt x="299" y="862" on="0"/>
      </contour>
      <contour>
        <pt x="516" y="38" on="1"/>
        <pt x="523" y="7" on="1"/>
        <pt x="444" y="-12" on="0"/>
        <pt x="331" y="-12" on="1"/>
        <pt x="188" y="-12" on="0"/>
        <pt x="72" y="148" on="0"/>
        <pt x="72" y="542" on="0"/>
        <pt x="188" y="702" on="0"/>
        <pt x="331" y="702" on="1"/>
        <pt x="436" y="702" on="0"/>
        <pt x="509" y="684" on="1"/>
        <pt x="502" y="654" on="1"/>
        <pt x="424" y="665" on="0"/>
        <pt x="331" y="665" on="1"/>
        <pt x="210" y="665" on="0"/>
        <pt x="115" y="524" on="0"/>
        <pt x="115" y="166" on="0"/>
        <pt x="210" y="25" on="0"/>
        <pt x="331" y="25" on="1"/>
        <pt x="439" y="25" on="0"/>
      </contour>
    </TTGlyph>
    <TTGlyph name="D" xMin="99" yMin="-9" xMax="588" yMax="699">
      <contour>
        <pt x="99" y="0" on="1"/>
        <pt x="99" y="690" on="1"/>
        <pt x="220" y="699" on="0"/>
        <pt x="332" y="699" on="1"/>
        <pt x="474" y="699" on="0"/>
        <pt x="588" y="541" on="0"/>
        <pt x="588" y="149" on="0"/>
        <pt x="474" y="-9" on="0"/>
        <pt x="332" y="-9" on="1"/>
        <pt x="221" y="-9" on="0"/>
      </contour>
      <contour>
        <pt x="140" y="659" on="1"/>
        <pt x="140" y="31" on="1"/>
        <pt x="224" y="28" on="0"/>
        <pt x="332" y="28" on="1"/>
        <pt x="451" y="28" on="0"/>
        <pt x="545" y="168" on="0"/>
        <pt x="545" y="522" on="0"/>
        <pt x="451" y="662" on="0"/>
        <pt x="332" y="662" on="1"/>
        <pt x="226" y="662" on="0"/>
      </contour>
    </TTGlyph>
    <TTGlyph name="Dcaron" xMin="99" yMin="-9" xMax="588" yMax="887">
      <contour>
        <pt x="312" y="749" on="1"/>
        <pt x="173" y="869" on="1"/>
        <pt x="190" y="887" on="1"/>
        <pt x="319" y="789" on="1"/>
        <pt x="327" y="789" on="1"/>
        <pt x="457" y="887" on="1"/>
        <pt x="474" y="869" on="1"/>
        <pt x="335" y="749" on="1"/>
      </contour>
      <contour>
        <pt x="99" y="0" on="1"/>
        <pt x="99" y="690" on="1"/>
        <pt x="220" y="699" on="0"/>
        <pt x="332" y="699" on="1"/>
        <pt x="474" y="699" on="0"/>
        <pt x="588" y="541" on="0"/>
        <pt x="588" y="149" on="0"/>
        <pt x="474" y="-9" on="0"/>
        <pt x="332" y="-9" on="1"/>
        <pt x="221" y="-9" on="0"/>
      </contour>
      <contour>
        <pt x="140" y="659" on="1"/>
        <pt x="140" y="31" on="1"/>
        <pt x="224" y="28" on="0"/>
        <pt x="332" y="28" on="1"/>
        <pt x="451" y="28" on="0"/>
        <pt x="545" y="168" on="0"/>
        <pt x="545" y="522" on="0"/>
        <pt x="451" y="662" on="0"/>
        <pt x="332" y="662" on="1"/>
        <pt x="226" y="662" on="0"/>
      </contour>
    </TTGlyph>
    <TTGlyph name="Dcroat" xMin="25" yMin="-9" xMax="591" yMax="699">
      <contour>
        <pt x="102" y="384" on="1"/>
        <pt x="102" y="690" on="1"/>
        <pt x="224" y="699" on="0"/>
        <pt x="336" y="699" on="1"/>
        <pt x="477" y="699" on="0"/>
        <pt x="591" y="541" on="0"/>
        <pt x="591" y="149" on="0"/>
        <pt x="477" y="-9" on="0"/>
        <pt x="336" y="-9" on="1"/>
        <pt x="226" y="-9" on="0"/>
        <pt x="102" y="0" on="1"/>
        <pt x="102" y="356" on="1"/>
        <pt x="25" y="356" on="1"/>
        <pt x="25" y="384" on="1"/>
      </contour>
      <contour>
        <pt x="143" y="356" on="1"/>
        <pt x="143" y="31" on="1"/>
        <pt x="227" y="28" on="0"/>
        <pt x="336" y="28" on="1"/>
        <pt x="454" y="28" on="0"/>
        <pt x="548" y="168" on="0"/>
        <pt x="548" y="522" on="0"/>
        <pt x="454" y="662" on="0"/>
        <pt x="336" y="662" on="1"/>
        <pt x="230" y="662" on="0"/>
        <pt x="143" y="659" on="1"/>
        <pt x="143" y="384" on="1"/>
        <pt x="318" y="384" on="1"/>
        <pt x="318" y="356" on="1"/>
      </contour>
    </TTGlyph>
    <TTGlyph name="Delta" xMin="34" yMin="0" xMax="583" yMax="690">
      <contour>
        <pt x="583" y="26" on="1"/>
        <pt x="583" y="0" on="1"/>
        <pt x="34" y="0" on="1"/>
        <pt x="34" y="26" on="1"/>
        <pt x="287" y="690" on="1"/>
        <pt x="330" y="690" on="1"/>
      </contour>
      <contour>
        <pt x="537" y="35" on="1"/>
        <pt x="333" y="578" on="1"/>
        <pt x="329" y="589" on="0"/>
        <pt x="313" y="636" on="0"/>
        <pt x="309" y="648" on="1"/>
        <pt x="305" y="636" on="0"/>
        <pt x="288" y="589" on="0"/>
        <pt x="284" y="577" on="1"/>
        <pt x="79" y="35" on="1"/>
      </contour>
    </TTGlyph>
    <TTGlyph name="E" xMin="93" yMin="0" xMax="497" yMax="690">
      <contour>
        <pt x="495" y="35" on="1"/>
        <pt x="497" y="4" on="1"/>
        <pt x="401" y="0" on="0"/>
        <pt x="203" y="0" on="1"/>
        <pt x="154" y="0" on="0"/>
        <pt x="93" y="59" on="0"/>
        <pt x="93" y="106" on="1"/>
        <pt x="93" y="584" on="1"/>
        <pt x="93" y="631" on="0"/>
        <pt x="154" y="690" on="0"/>
        <pt x="203" y="690" on="1"/>
        <pt x="401" y="690" on="0"/>
        <pt x="497" y="686" on="1"/>
        <pt x="495" y="655" on="1"/>
        <pt x="210" y="655" on="1"/>
        <pt x="176" y="655" on="0"/>
        <pt x="134" y="612" on="0"/>
        <pt x="134" y="577" on="1"/>
        <pt x="134" y="385" on="1"/>
        <pt x="454" y="385" on="1"/>
        <pt x="454" y="351" on="1"/>
        <pt x="134" y="351" on="1"/>
        <pt x="134" y="113" on="1"/>
        <pt x="134" y="78" on="0"/>
        <pt x="176" y="35" on="0"/>
        <pt x="210" y="35" on="1"/>
      </contour>
    </TTGlyph>
    <TTGlyph name="Eacute" xMin="93" yMin="0" xMax="497" yMax="923">
      <contour>
        <pt x="275" y="758" on="1"/>
        <pt x="257" y="778" on="1"/>
        <pt x="413" y="923" on="1"/>
        <pt x="438" y="894" on="1"/>
      </contour>
      <contour>
        <pt x="495" y="35" on="1"/>
        <pt x="497" y="4" on="1"/>
        <pt x="401" y="0" on="0"/>
        <pt x="203" y="0" on="1"/>
        <pt x="154" y="0" on="0"/>
        <pt x="93" y="59" on="0"/>
        <pt x="93" y="106" on="1"/>
        <pt x="93" y="584" on="1"/>
        <pt x="93" y="631" on="0"/>
        <pt x="154" y="690" on="0"/>
        <pt x="203" y="690" on="1"/>
        <pt x="401" y="690" on="0"/>
        <pt x="497" y="686" on="1"/>
        <pt x="495" y="655" on="1"/>
        <pt x="210" y="655" on="1"/>
        <pt x="176" y="655" on="0"/>
        <pt x="134" y="612" on="0"/>
        <pt x="134" y="577" on="1"/>
        <pt x="134" y="385" on="1"/>
        <pt x="454" y="385" on="1"/>
        <pt x="454" y="351" on="1"/>
        <pt x="134" y="351" on="1"/>
        <pt x="134" y="113" on="1"/>
        <pt x="134" y="78" on="0"/>
        <pt x="176" y="35" on="0"/>
        <pt x="210" y="35" on="1"/>
      </contour>
    </TTGlyph>
    <TTGlyph name="Ecaron" xMin="93" yMin="0" xMax="497" yMax="911">
      <contour>
        <pt x="299" y="773" on="1"/>
        <pt x="161" y="893" on="1"/>
        <pt x="178" y="911" on="1"/>
        <pt x="307" y="813" on="1"/>
        <pt x="315" y="813" on="1"/>
        <pt x="445" y="911" on="1"/>
        <pt x="461" y="893" on="1"/>
        <pt x="323" y="773" on="1"/>
      </contour>
      <contour>
        <pt x="495" y="35" on="1"/>
        <pt x="497" y="4" on="1"/>
        <pt x="401" y="0" on="0"/>
        <pt x="203" y="0" on="1"/>
        <pt x="154" y="0" on="0"/>
        <pt x="93" y="59" on="0"/>
        <pt x="93" y="106" on="1"/>
        <pt x="93" y="584" on="1"/>
        <pt x="93" y="631" on="0"/>
        <pt x="154" y="690" on="0"/>
        <pt x="203" y="690" on="1"/>
        <pt x="401" y="690" on="0"/>
        <pt x="497" y="686" on="1"/>
        <pt x="495" y="655" on="1"/>
        <pt x="210" y="655" on="1"/>
        <pt x="176" y="655" on="0"/>
        <pt x="134" y="612" on="0"/>
        <pt x="134" y="577" on="1"/>
        <pt x="134" y="385" on="1"/>
        <pt x="454" y="385" on="1"/>
        <pt x="454" y="351" on="1"/>
        <pt x="134" y="351" on="1"/>
        <pt x="134" y="113" on="1"/>
        <pt x="134" y="78" on="0"/>
        <pt x="176" y="35" on="0"/>
        <pt x="210" y="35" on="1"/>
      </contour>
    </TTGlyph>
    <TTGlyph name="Ecircumflex" xMin="93" yMin="0" xMax="497" yMax="908">
      <contour>
        <pt x="176" y="770" on="1"/>
        <pt x="160" y="788" on="1"/>
        <pt x="294" y="908" on="1"/>
        <pt x="324" y="908" on="1"/>
        <pt x="459" y="788" on="1"/>
        <pt x="443" y="770" on="1"/>
        <pt x="313" y="871" on="1"/>
        <pt x="305" y="871" on="1"/>
      </contour>
      <contour>
        <pt x="495" y="35" on="1"/>
        <pt x="497" y="4" on="1"/>
        <pt x="401" y="0" on="0"/>
        <pt x="203" y="0" on="1"/>
        <pt x="154" y="0" on="0"/>
        <pt x="93" y="59" on="0"/>
        <pt x="93" y="106" on="1"/>
        <pt x="93" y="584" on="1"/>
        <pt x="93" y="631" on="0"/>
        <pt x="154" y="690" on="0"/>
        <pt x="203" y="690" on="1"/>
        <pt x="401" y="690" on="0"/>
        <pt x="497" y="686" on="1"/>
        <pt x="495" y="655" on="1"/>
        <pt x="210" y="655" on="1"/>
        <pt x="176" y="655" on="0"/>
        <pt x="134" y="612" on="0"/>
        <pt x="134" y="577" on="1"/>
        <pt x="134" y="385" on="1"/>
        <pt x="454" y="385" on="1"/>
        <pt x="454" y="351" on="1"/>
        <pt x="134" y="351" on="1"/>
        <pt x="134" y="113" on="1"/>
        <pt x="134" y="78" on="0"/>
        <pt x="176" y="35" on="0"/>
        <pt x="210" y="35" on="1"/>
      </contour>
    </TTGlyph>
    <TTGlyph name="Edieresis" xMin="93" yMin="0" xMax="497" yMax="883">
      <contour>
        <pt x="228" y="799" on="1"/>
        <pt x="214" y="799" on="1"/>
        <pt x="200" y="799" on="0"/>
        <pt x="200" y="813" on="1"/>
        <pt x="200" y="869" on="1"/>
        <pt x="200" y="883" on="0"/>
        <pt x="214" y="883" on="1"/>
        <pt x="228" y="883" on="1"/>
        <pt x="242" y="883" on="0"/>
        <pt x="242" y="869" on="1"/>
        <pt x="242" y="813" on="1"/>
        <pt x="242" y="799" on="0"/>
      </contour>
      <contour>
        <pt x="405" y="799" on="1"/>
        <pt x="391" y="799" on="1"/>
        <pt x="377" y="799" on="0"/>
        <pt x="377" y="813" on="1"/>
        <pt x="377" y="869" on="1"/>
        <pt x="377" y="883" on="0"/>
        <pt x="391" y="883" on="1"/>
        <pt x="405" y="883" on="1"/>
        <pt x="419" y="883" on="0"/>
        <pt x="419" y="869" on="1"/>
        <pt x="419" y="813" on="1"/>
        <pt x="419" y="799" on="0"/>
      </contour>
      <contour>
        <pt x="495" y="35" on="1"/>
        <pt x="497" y="4" on="1"/>
        <pt x="401" y="0" on="0"/>
        <pt x="203" y="0" on="1"/>
        <pt x="154" y="0" on="0"/>
        <pt x="93" y="59" on="0"/>
        <pt x="93" y="106" on="1"/>
        <pt x="93" y="584" on="1"/>
        <pt x="93" y="631" on="0"/>
        <pt x="154" y="690" on="0"/>
        <pt x="203" y="690" on="1"/>
        <pt x="401" y="690" on="0"/>
        <pt x="497" y="686" on="1"/>
        <pt x="495" y="655" on="1"/>
        <pt x="210" y="655" on="1"/>
        <pt x="176" y="655" on="0"/>
        <pt x="134" y="612" on="0"/>
        <pt x="134" y="577" on="1"/>
        <pt x="134" y="385" on="1"/>
        <pt x="454" y="385" on="1"/>
        <pt x="454" y="351" on="1"/>
        <pt x="134" y="351" on="1"/>
        <pt x="134" y="113" on="1"/>
        <pt x="134" y="78" on="0"/>
        <pt x="176" y="35" on="0"/>
        <pt x="210" y="35" on="1"/>
      </contour>
    </TTGlyph>
    <TTGlyph name="Edotaccent" xMin="93" yMin="0" xMax="497" yMax="886">
      <contour>
        <pt x="317" y="794" on="1"/>
        <pt x="303" y="794" on="1"/>
        <pt x="287" y="794" on="0"/>
        <pt x="287" y="809" on="1"/>
        <pt x="287" y="870" on="1"/>
        <pt x="287" y="886" on="0"/>
        <pt x="303" y="886" on="1"/>
        <pt x="317" y="886" on="1"/>
        <pt x="333" y="886" on="0"/>
        <pt x="333" y="870" on="1"/>
        <pt x="333" y="809" on="1"/>
        <pt x="333" y="794" on="0"/>
      </contour>
      <contour>
        <pt x="495" y="35" on="1"/>
        <pt x="497" y="4" on="1"/>
        <pt x="401" y="0" on="0"/>
        <pt x="203" y="0" on="1"/>
        <pt x="154" y="0" on="0"/>
        <pt x="93" y="59" on="0"/>
        <pt x="93" y="106" on="1"/>
        <pt x="93" y="584" on="1"/>
        <pt x="93" y="631" on="0"/>
        <pt x="154" y="690" on="0"/>
        <pt x="203" y="690" on="1"/>
        <pt x="401" y="690" on="0"/>
        <pt x="497" y="686" on="1"/>
        <pt x="495" y="655" on="1"/>
        <pt x="210" y="655" on="1"/>
        <pt x="176" y="655" on="0"/>
        <pt x="134" y="612" on="0"/>
        <pt x="134" y="577" on="1"/>
        <pt x="134" y="385" on="1"/>
        <pt x="454" y="385" on="1"/>
        <pt x="454" y="351" on="1"/>
        <pt x="134" y="351" on="1"/>
        <pt x="134" y="113" on="1"/>
        <pt x="134" y="78" on="0"/>
        <pt x="176" y="35" on="0"/>
        <pt x="210" y="35" on="1"/>
      </contour>
    </TTGlyph>
    <TTGlyph name="Egrave" xMin="93" yMin="0" xMax="497" yMax="923">
      <contour>
        <pt x="334" y="758" on="1"/>
        <pt x="171" y="894" on="1"/>
        <pt x="197" y="923" on="1"/>
        <pt x="352" y="778" on="1"/>
      </contour>
      <contour>
        <pt x="495" y="35" on="1"/>
        <pt x="497" y="4" on="1"/>
        <pt x="401" y="0" on="0"/>
        <pt x="203" y="0" on="1"/>
        <pt x="154" y="0" on="0"/>
        <pt x="93" y="59" on="0"/>
        <pt x="93" y="106" on="1"/>
        <pt x="93" y="584" on="1"/>
        <pt x="93" y="631" on="0"/>
        <pt x="154" y="690" on="0"/>
        <pt x="203" y="690" on="1"/>
        <pt x="401" y="690" on="0"/>
        <pt x="497" y="686" on="1"/>
        <pt x="495" y="655" on="1"/>
        <pt x="210" y="655" on="1"/>
        <pt x="176" y="655" on="0"/>
        <pt x="134" y="612" on="0"/>
        <pt x="134" y="577" on="1"/>
        <pt x="134" y="385" on="1"/>
        <pt x="454" y="385" on="1"/>
        <pt x="454" y="351" on="1"/>
        <pt x="134" y="351" on="1"/>
        <pt x="134" y="113" on="1"/>
        <pt x="134" y="78" on="0"/>
        <pt x="176" y="35" on="0"/>
        <pt x="210" y="35" on="1"/>
      </contour>
    </TTGlyph>
    <TTGlyph name="Emacron" xMin="93" yMin="0" xMax="497" yMax="857">
      <contour>
        <pt x="442" y="823" on="1"/>
        <pt x="178" y="823" on="1"/>
        <pt x="178" y="857" on="1"/>
        <pt x="442" y="857" on="1"/>
      </contour>
      <contour>
        <pt x="495" y="35" on="1"/>
        <pt x="497" y="4" on="1"/>
        <pt x="401" y="0" on="0"/>
        <pt x="203" y="0" on="1"/>
        <pt x="154" y="0" on="0"/>
        <pt x="93" y="59" on="0"/>
        <pt x="93" y="106" on="1"/>
        <pt x="93" y="584" on="1"/>
        <pt x="93" y="631" on="0"/>
        <pt x="154" y="690" on="0"/>
        <pt x="203" y="690" on="1"/>
        <pt x="401" y="690" on="0"/>
        <pt x="497" y="686" on="1"/>
        <pt x="495" y="655" on="1"/>
        <pt x="210" y="655" on="1"/>
        <pt x="176" y="655" on="0"/>
        <pt x="134" y="612" on="0"/>
        <pt x="134" y="577" on="1"/>
        <pt x="134" y="385" on="1"/>
        <pt x="454" y="385" on="1"/>
        <pt x="454" y="351" on="1"/>
        <pt x="134" y="351" on="1"/>
        <pt x="134" y="113" on="1"/>
        <pt x="134" y="78" on="0"/>
        <pt x="176" y="35" on="0"/>
        <pt x="210" y="35" on="1"/>
      </contour>
    </TTGlyph>
    <TTGlyph name="Eng" xMin="99" yMin="-220" xMax="593" yMax="690">
      <contour>
        <pt x="593" y="690" on="1"/>
        <pt x="593" y="-95" on="1"/>
        <pt x="593" y="-157" on="0"/>
        <pt x="530" y="-221" on="0"/>
        <pt x="468" y="-220" on="1"/>
        <pt x="433" y="-220" on="0"/>
        <pt x="398" y="-213" on="1"/>
        <pt x="403" y="-187" on="1"/>
        <pt x="458" y="-187" on="1"/>
        <pt x="554" y="-187" on="0"/>
        <pt x="554" y="-93" on="1"/>
        <pt x="554" y="0" on="1"/>
        <pt x="521" y="0" on="1"/>
        <pt x="507" y="0" on="0"/>
        <pt x="501" y="15" on="1"/>
        <pt x="199" y="575" on="1"/>
        <pt x="168" y="634" on="0"/>
        <pt x="161" y="649" on="1"/>
        <pt x="139" y="649" on="1"/>
        <pt x="140" y="624" on="0"/>
        <pt x="140" y="573" on="1"/>
        <pt x="140" y="0" on="1"/>
        <pt x="99" y="0" on="1"/>
        <pt x="99" y="670" on="1"/>
        <pt x="99" y="690" on="0"/>
        <pt x="119" y="690" on="1"/>
        <pt x="165" y="690" on="1"/>
        <pt x="180" y="690" on="0"/>
        <pt x="189" y="675" on="1"/>
        <pt x="483" y="128" on="1"/>
        <pt x="491" y="114" on="0"/>
        <pt x="528" y="42" on="1"/>
        <pt x="553" y="42" on="1"/>
        <pt x="553" y="58" on="0"/>
        <pt x="552" y="120" on="0"/>
        <pt x="552" y="135" on="1"/>
        <pt x="552" y="690" on="1"/>
      </contour>
    </TTGlyph>
    <TTGlyph name="Eogonek" xMin="93" yMin="-198" xMax="508" yMax="690">
      <contour>
        <pt x="503" y="-171" on="1"/>
        <pt x="508" y="-189" on="1"/>
        <pt x="428" y="-222" on="0"/>
        <pt x="362" y="-173" on="0"/>
        <pt x="382" y="-118" on="1"/>
        <pt x="402" y="-58" on="0"/>
        <pt x="470" y="3" on="1"/>
        <pt x="382" y="0" on="0"/>
        <pt x="203" y="0" on="1"/>
        <pt x="154" y="0" on="0"/>
        <pt x="93" y="59" on="0"/>
        <pt x="93" y="106" on="1"/>
        <pt x="93" y="584" on="1"/>
        <pt x="93" y="631" on="0"/>
        <pt x="154" y="690" on="0"/>
        <pt x="203" y="690" on="1"/>
        <pt x="401" y="690" on="0"/>
        <pt x="497" y="686" on="1"/>
        <pt x="495" y="655" on="1"/>
        <pt x="210" y="655" on="1"/>
        <pt x="176" y="655" on="0"/>
        <pt x="134" y="612" on="0"/>
        <pt x="134" y="577" on="1"/>
        <pt x="134" y="385" on="1"/>
        <pt x="454" y="385" on="1"/>
        <pt x="454" y="351" on="1"/>
        <pt x="134" y="351" on="1"/>
        <pt x="134" y="113" on="1"/>
        <pt x="134" y="78" on="0"/>
        <pt x="176" y="35" on="0"/>
        <pt x="210" y="35" on="1"/>
        <pt x="495" y="35" on="1"/>
        <pt x="497" y="4" on="1"/>
        <pt x="436" y="-58" on="0"/>
        <pt x="414" y="-118" on="1"/>
        <pt x="398" y="-162" on="0"/>
        <pt x="448" y="-191" on="0"/>
      </contour>
    </TTGlyph>
    <TTGlyph name="Eth" xMin="25" yMin="-9" xMax="591" yMax="699">
      <contour>
        <pt x="102" y="384" on="1"/>
        <pt x="102" y="690" on="1"/>
        <pt x="224" y="699" on="0"/>
        <pt x="336" y="699" on="1"/>
        <pt x="477" y="699" on="0"/>
        <pt x="591" y="541" on="0"/>
        <pt x="591" y="149" on="0"/>
        <pt x="477" y="-9" on="0"/>
        <pt x="336" y="-9" on="1"/>
        <pt x="226" y="-9" on="0"/>
        <pt x="102" y="0" on="1"/>
        <pt x="102" y="356" on="1"/>
        <pt x="25" y="356" on="1"/>
        <pt x="25" y="384" on="1"/>
      </contour>
      <contour>
        <pt x="143" y="356" on="1"/>
        <pt x="143" y="31" on="1"/>
        <pt x="227" y="28" on="0"/>
        <pt x="336" y="28" on="1"/>
        <pt x="454" y="28" on="0"/>
        <pt x="548" y="168" on="0"/>
        <pt x="548" y="522" on="0"/>
        <pt x="454" y="662" on="0"/>
        <pt x="336" y="662" on="1"/>
        <pt x="230" y="662" on="0"/>
        <pt x="143" y="659" on="1"/>
        <pt x="143" y="384" on="1"/>
        <pt x="318" y="384" on="1"/>
        <pt x="318" y="356" on="1"/>
      </contour>
    </TTGlyph>
    <TTGlyph name="Euro" xMin="64" yMin="-12" xMax="586" yMax="702">
      <contour>
        <pt x="579" y="38" on="1"/>
        <pt x="586" y="7" on="1"/>
        <pt x="512" y="-12" on="0"/>
        <pt x="416" y="-12" on="1"/>
        <pt x="290" y="-12" on="0"/>
        <pt x="169" y="128" on="0"/>
        <pt x="158" y="272" on="1"/>
        <pt x="64" y="272" on="1"/>
        <pt x="64" y="301" on="1"/>
        <pt x="157" y="301" on="1"/>
        <pt x="156" y="345" on="1"/>
        <pt x="156" y="389" on="0"/>
        <pt x="158" y="409" on="1"/>
        <pt x="64" y="409" on="1"/>
        <pt x="64" y="438" on="1"/>
        <pt x="160" y="438" on="1"/>
        <pt x="173" y="572" on="0"/>
        <pt x="294" y="702" on="0"/>
        <pt x="416" y="702" on="1"/>
        <pt x="505" y="702" on="0"/>
        <pt x="577" y="684" on="1"/>
        <pt x="570" y="653" on="1"/>
        <pt x="505" y="665" on="0"/>
        <pt x="415" y="665" on="1"/>
        <pt x="316" y="664" on="0"/>
        <pt x="215" y="552" on="0"/>
        <pt x="203" y="438" on="1"/>
        <pt x="483" y="438" on="1"/>
        <pt x="476" y="409" on="1"/>
        <pt x="201" y="409" on="1"/>
        <pt x="199" y="389" on="0"/>
        <pt x="199" y="345" on="1"/>
        <pt x="199" y="301" on="1"/>
        <pt x="434" y="301" on="1"/>
        <pt x="426" y="272" on="1"/>
        <pt x="201" y="272" on="1"/>
        <pt x="211" y="147" on="0"/>
        <pt x="312" y="26" on="0"/>
        <pt x="415" y="25" on="1"/>
        <pt x="511" y="25" on="0"/>
      </contour>
    </TTGlyph>
    <TTGlyph name="F" xMin="96" yMin="0" xMax="493" yMax="690">
      <contour>
        <pt x="490" y="655" on="1"/>
        <pt x="215" y="655" on="1"/>
        <pt x="180" y="655" on="0"/>
        <pt x="137" y="612" on="0"/>
        <pt x="137" y="577" on="1"/>
        <pt x="137" y="380" on="1"/>
        <pt x="450" y="380" on="1"/>
        <pt x="450" y="346" on="1"/>
        <pt x="137" y="346" on="1"/>
        <pt x="137" y="0" on="1"/>
        <pt x="96" y="0" on="1"/>
        <pt x="96" y="583" on="1"/>
        <pt x="96" y="631" on="0"/>
        <pt x="157" y="690" on="0"/>
        <pt x="206" y="690" on="1"/>
        <pt x="399" y="690" on="0"/>
        <pt x="493" y="685" on="1"/>
      </contour>
    </TTGlyph>
    <TTGlyph name="G" xMin="72" yMin="-12" xMax="546" yMax="702">
      <contour>
        <pt x="546" y="400" on="1"/>
        <pt x="546" y="0" on="1"/>
        <pt x="517" y="0" on="1"/>
        <pt x="509" y="84" on="1"/>
        <pt x="420" y="-12" on="0"/>
        <pt x="298" y="-12" on="1"/>
        <pt x="177" y="-12" on="0"/>
        <pt x="72" y="157" on="0"/>
        <pt x="72" y="346" on="1"/>
        <pt x="72" y="544" on="0"/>
        <pt x="190" y="702" on="0"/>
        <pt x="338" y="702" on="1"/>
        <pt x="451" y="702" on="0"/>
        <pt x="533" y="684" on="1"/>
        <pt x="526" y="654" on="1"/>
        <pt x="439" y="665" on="0"/>
        <pt x="339" y="665" on="1"/>
        <pt x="214" y="665" on="0"/>
        <pt x="116" y="527" on="0"/>
        <pt x="116" y="344" on="1"/>
        <pt x="116" y="173" on="0"/>
        <pt x="202" y="25" on="0"/>
        <pt x="305" y="25" on="1"/>
        <pt x="366" y="25" on="0"/>
        <pt x="455" y="73" on="0"/>
        <pt x="505" y="117" on="1"/>
        <pt x="505" y="400" on="1"/>
      </contour>
    </TTGlyph>
    <TTGlyph name="Gbreve" xMin="72" yMin="-12" xMax="546" yMax="876">
      <contour>
        <pt x="439" y="876" on="1"/>
        <pt x="464" y="871" on="1"/>
        <pt x="465" y="816" on="0"/>
        <pt x="390" y="753" on="0"/>
        <pt x="260" y="753" on="0"/>
        <pt x="183" y="816" on="0"/>
        <pt x="184" y="871" on="1"/>
        <pt x="209" y="876" on="1"/>
        <pt x="209" y="834" on="0"/>
        <pt x="271" y="787" on="0"/>
        <pt x="325" y="787" on="1"/>
        <pt x="378" y="787" on="0"/>
        <pt x="439" y="834" on="0"/>
      </contour>
      <contour>
        <pt x="546" y="400" on="1"/>
        <pt x="546" y="0" on="1"/>
        <pt x="517" y="0" on="1"/>
        <pt x="509" y="84" on="1"/>
        <pt x="420" y="-12" on="0"/>
        <pt x="298" y="-12" on="1"/>
        <pt x="177" y="-12" on="0"/>
        <pt x="72" y="157" on="0"/>
        <pt x="72" y="346" on="1"/>
        <pt x="72" y="544" on="0"/>
        <pt x="190" y="702" on="0"/>
        <pt x="338" y="702" on="1"/>
        <pt x="451" y="702" on="0"/>
        <pt x="533" y="684" on="1"/>
        <pt x="526" y="654" on="1"/>
        <pt x="439" y="665" on="0"/>
        <pt x="339" y="665" on="1"/>
        <pt x="214" y="665" on="0"/>
        <pt x="116" y="527" on="0"/>
        <pt x="116" y="344" on="1"/>
        <pt x="116" y="173" on="0"/>
        <pt x="202" y="25" on="0"/>
        <pt x="305" y="25" on="1"/>
        <pt x="366" y="25" on="0"/>
        <pt x="455" y="73" on="0"/>
        <pt x="505" y="117" on="1"/>
        <pt x="505" y="400" on="1"/>
      </contour>
    </TTGlyph>
    <TTGlyph name="Gcommaaccent" xMin="72" yMin="-256" xMax="546" yMax="702">
      <contour>
        <pt x="546" y="400" on="1"/>
        <pt x="546" y="0" on="1"/>
        <pt x="517" y="0" on="1"/>
        <pt x="509" y="84" on="1"/>
        <pt x="420" y="-12" on="0"/>
        <pt x="298" y="-12" on="1"/>
        <pt x="177" y="-12" on="0"/>
        <pt x="72" y="157" on="0"/>
        <pt x="72" y="346" on="1"/>
        <pt x="72" y="544" on="0"/>
        <pt x="190" y="702" on="0"/>
        <pt x="338" y="702" on="1"/>
        <pt x="451" y="702" on="0"/>
        <pt x="533" y="684" on="1"/>
        <pt x="526" y="654" on="1"/>
        <pt x="439" y="665" on="0"/>
        <pt x="339" y="665" on="1"/>
        <pt x="214" y="665" on="0"/>
        <pt x="116" y="527" on="0"/>
        <pt x="116" y="344" on="1"/>
        <pt x="116" y="173" on="0"/>
        <pt x="202" y="25" on="0"/>
        <pt x="305" y="25" on="1"/>
        <pt x="366" y="25" on="0"/>
        <pt x="455" y="73" on="0"/>
        <pt x="505" y="117" on="1"/>
        <pt x="505" y="400" on="1"/>
      </contour>
      <contour>
        <pt x="317" y="-63" on="1"/>
        <pt x="329" y="-63" on="1"/>
        <pt x="344" y="-63" on="0"/>
        <pt x="344" y="-78" on="1"/>
        <pt x="344" y="-136" on="1"/>
        <pt x="342" y="-200" on="0"/>
        <pt x="324" y="-256" on="1"/>
        <pt x="306" y="-250" on="1"/>
        <pt x="311" y="-205" on="0"/>
        <pt x="311" y="-147" on="1"/>
        <pt x="299" y="-147" on="0"/>
        <pt x="302" y="-134" on="1"/>
        <pt x="302" y="-78" on="1"/>
        <pt x="301" y="-63" on="0"/>
      </contour>
    </TTGlyph>
    <TTGlyph name="Gdotaccent" xMin="72" yMin="-12" xMax="546" yMax="862">
      <contour>
        <pt x="332" y="770" on="1"/>
        <pt x="318" y="770" on="1"/>
        <pt x="302" y="770" on="0"/>
        <pt x="302" y="786" on="1"/>
        <pt x="302" y="846" on="1"/>
        <pt x="302" y="862" on="0"/>
        <pt x="318" y="862" on="1"/>
        <pt x="332" y="862" on="1"/>
        <pt x="348" y="862" on="0"/>
        <pt x="348" y="846" on="1"/>
        <pt x="348" y="786" on="1"/>
        <pt x="348" y="770" on="0"/>
      </contour>
      <contour>
        <pt x="546" y="400" on="1"/>
        <pt x="546" y="0" on="1"/>
        <pt x="517" y="0" on="1"/>
        <pt x="509" y="84" on="1"/>
        <pt x="420" y="-12" on="0"/>
        <pt x="298" y="-12" on="1"/>
        <pt x="177" y="-12" on="0"/>
        <pt x="72" y="157" on="0"/>
        <pt x="72" y="346" on="1"/>
        <pt x="72" y="544" on="0"/>
        <pt x="190" y="702" on="0"/>
        <pt x="338" y="702" on="1"/>
        <pt x="451" y="702" on="0"/>
        <pt x="533" y="684" on="1"/>
        <pt x="526" y="654" on="1"/>
        <pt x="439" y="665" on="0"/>
        <pt x="339" y="665" on="1"/>
        <pt x="214" y="665" on="0"/>
        <pt x="116" y="527" on="0"/>
        <pt x="116" y="344" on="1"/>
        <pt x="116" y="173" on="0"/>
        <pt x="202" y="25" on="0"/>
        <pt x="305" y="25" on="1"/>
        <pt x="366" y="25" on="0"/>
        <pt x="455" y="73" on="0"/>
        <pt x="505" y="117" on="1"/>
        <pt x="505" y="400" on="1"/>
      </contour>
    </TTGlyph>
    <TTGlyph name="H" xMin="99" yMin="0" xMax="561" yMax="690">
      <contour>
        <pt x="561" y="690" on="1"/>
        <pt x="561" y="0" on="1"/>
        <pt x="520" y="0" on="1"/>
        <pt x="520" y="352" on="1"/>
        <pt x="140" y="352" on="1"/>
        <pt x="140" y="0" on="1"/>
        <pt x="99" y="0" on="1"/>
        <pt x="99" y="690" on="1"/>
        <pt x="140" y="690" on="1"/>
        <pt x="140" y="388" on="1"/>
        <pt x="520" y="388" on="1"/>
        <pt x="520" y="690" on="1"/>
      </contour>
    </TTGlyph>
    <TTGlyph name="Hbar" xMin="25" yMin="0" xMax="642" yMax="690">
      <contour>
        <pt x="642" y="523" on="1"/>
        <pt x="565" y="523" on="1"/>
        <pt x="565" y="0" on="1"/>
        <pt x="524" y="0" on="1"/>
        <pt x="524" y="352" on="1"/>
        <pt x="144" y="352" on="1"/>
        <pt x="144" y="0" on="1"/>
        <pt x="103" y="0" on="1"/>
        <pt x="103" y="523" on="1"/>
        <pt x="25" y="523" on="1"/>
        <pt x="25" y="550" on="1"/>
        <pt x="103" y="550" on="1"/>
        <pt x="103" y="690" on="1"/>
        <pt x="144" y="690" on="1"/>
        <pt x="144" y="550" on="1"/>
        <pt x="524" y="550" on="1"/>
        <pt x="524" y="690" on="1"/>
        <pt x="565" y="690" on="1"/>
        <pt x="565" y="550" on="1"/>
        <pt x="642" y="550" on="1"/>
      </contour>
      <contour>
        <pt x="524" y="523" on="1"/>
        <pt x="144" y="523" on="1"/>
        <pt x="144" y="388" on="1"/>
        <pt x="524" y="388" on="1"/>
      </contour>
    </TTGlyph>
    <TTGlyph name="I" xMin="99" yMin="0" xMax="140" yMax="690">
      <contour>
        <pt x="140" y="0" on="1"/>
        <pt x="99" y="0" on="1"/>
        <pt x="99" y="690" on="1"/>
        <pt x="140" y="690" on="1"/>
      </contour>
    </TTGlyph>
    <TTGlyph name="IJ" xMin="99" yMin="-7" xMax="471" yMax="690">
      <contour>
        <pt x="140" y="0" on="1"/>
        <pt x="99" y="0" on="1"/>
        <pt x="99" y="690" on="1"/>
        <pt x="140" y="690" on="1"/>
      </contour>
      <contour>
        <pt x="471" y="690" on="1"/>
        <pt x="471" y="123" on="1"/>
        <pt x="471" y="58" on="0"/>
        <pt x="408" y="-8" on="0"/>
        <pt x="346" y="-7" on="1"/>
        <pt x="313" y="-7" on="0"/>
        <pt x="275" y="1" on="1"/>
        <pt x="280" y="29" on="1"/>
        <pt x="335" y="29" on="1"/>
        <pt x="430" y="29" on="0"/>
        <pt x="430" y="123" on="1"/>
        <pt x="430" y="690" on="1"/>
      </contour>
    </TTGlyph>
    <TTGlyph name="Iacute" xMin="67" yMin="0" xMax="248" yMax="899">
      <contour>
        <pt x="248" y="870" on="1"/>
        <pt x="85" y="734" on="1"/>
        <pt x="67" y="754" on="1"/>
        <pt x="222" y="899" on="1"/>
      </contour>
      <contour>
        <pt x="140" y="0" on="1"/>
        <pt x="99" y="0" on="1"/>
        <pt x="99" y="690" on="1"/>
        <pt x="140" y="690" on="1"/>
      </contour>
    </TTGlyph>
    <TTGlyph name="Icircumflex" xMin="-31" yMin="0" xMax="268" yMax="884">
      <contour>
        <pt x="268" y="765" on="1"/>
        <pt x="252" y="746" on="1"/>
        <pt x="122" y="847" on="1"/>
        <pt x="114" y="847" on="1"/>
        <pt x="-15" y="746" on="1"/>
        <pt x="-31" y="765" on="1"/>
        <pt x="104" y="884" on="1"/>
        <pt x="133" y="884" on="1"/>
      </contour>
      <contour>
        <pt x="140" y="0" on="1"/>
        <pt x="99" y="0" on="1"/>
        <pt x="99" y="690" on="1"/>
        <pt x="140" y="690" on="1"/>
      </contour>
    </TTGlyph>
    <TTGlyph name="Idieresis" xMin="9" yMin="0" xMax="228" yMax="860">
      <contour>
        <pt x="23" y="860" on="1"/>
        <pt x="38" y="860" on="1"/>
        <pt x="51" y="860" on="0"/>
        <pt x="51" y="845" on="1"/>
        <pt x="51" y="790" on="1"/>
        <pt x="51" y="775" on="0"/>
        <pt x="38" y="775" on="1"/>
        <pt x="23" y="775" on="1"/>
        <pt x="9" y="775" on="0"/>
        <pt x="9" y="790" on="1"/>
        <pt x="9" y="845" on="1"/>
        <pt x="9" y="860" on="0"/>
      </contour>
      <contour>
        <pt x="200" y="860" on="1"/>
        <pt x="215" y="860" on="1"/>
        <pt x="228" y="860" on="0"/>
        <pt x="228" y="845" on="1"/>
        <pt x="228" y="790" on="1"/>
        <pt x="228" y="775" on="0"/>
        <pt x="215" y="775" on="1"/>
        <pt x="200" y="775" on="1"/>
        <pt x="186" y="775" on="0"/>
        <pt x="186" y="790" on="1"/>
        <pt x="186" y="845" on="1"/>
        <pt x="186" y="860" on="0"/>
      </contour>
      <contour>
        <pt x="140" y="0" on="1"/>
        <pt x="99" y="0" on="1"/>
        <pt x="99" y="690" on="1"/>
        <pt x="140" y="690" on="1"/>
      </contour>
    </TTGlyph>
    <TTGlyph name="Idotaccent" xMin="96" yMin="0" xMax="142" yMax="862">
      <contour>
        <pt x="112" y="862" on="1"/>
        <pt x="126" y="862" on="1"/>
        <pt x="142" y="862" on="0"/>
        <pt x="142" y="846" on="1"/>
        <pt x="142" y="786" on="1"/>
        <pt x="142" y="770" on="0"/>
        <pt x="126" y="770" on="1"/>
        <pt x="112" y="770" on="1"/>
        <pt x="96" y="770" on="0"/>
        <pt x="96" y="786" on="1"/>
        <pt x="96" y="846" on="1"/>
        <pt x="96" y="862" on="0"/>
      </contour>
      <contour>
        <pt x="140" y="0" on="1"/>
        <pt x="99" y="0" on="1"/>
        <pt x="99" y="690" on="1"/>
        <pt x="140" y="690" on="1"/>
      </contour>
    </TTGlyph>
    <TTGlyph name="Igrave" xMin="-20" yMin="0" xMax="161" yMax="899">
      <contour>
        <pt x="161" y="754" on="1"/>
        <pt x="143" y="734" on="1"/>
        <pt x="-20" y="870" on="1"/>
        <pt x="6" y="899" on="1"/>
      </contour>
      <contour>
        <pt x="140" y="0" on="1"/>
        <pt x="99" y="0" on="1"/>
        <pt x="99" y="690" on="1"/>
        <pt x="140" y="690" on="1"/>
      </contour>
    </TTGlyph>
    <TTGlyph name="Imacron" xMin="-13" yMin="0" xMax="252" yMax="833">
      <contour>
        <pt x="252" y="799" on="1"/>
        <pt x="-13" y="799" on="1"/>
        <pt x="-13" y="833" on="1"/>
        <pt x="252" y="833" on="1"/>
      </contour>
      <contour>
        <pt x="140" y="0" on="1"/>
        <pt x="99" y="0" on="1"/>
        <pt x="99" y="690" on="1"/>
        <pt x="140" y="690" on="1"/>
      </contour>
    </TTGlyph>
    <TTGlyph name="Iogonek" xMin="22" yMin="-202" xMax="148" yMax="690">
      <contour>
        <pt x="143" y="-176" on="1"/>
        <pt x="148" y="-194" on="1"/>
        <pt x="68" y="-226" on="0"/>
        <pt x="2" y="-177" on="0"/>
        <pt x="22" y="-122" on="1"/>
        <pt x="44" y="-61" on="0"/>
        <pt x="112" y="0" on="1"/>
        <pt x="99" y="0" on="1"/>
        <pt x="99" y="690" on="1"/>
        <pt x="140" y="690" on="1"/>
        <pt x="140" y="0" on="1"/>
        <pt x="138" y="0" on="1"/>
        <pt x="77" y="-61" on="0"/>
        <pt x="54" y="-123" on="1"/>
        <pt x="38" y="-167" on="0"/>
        <pt x="88" y="-195" on="0"/>
      </contour>
    </TTGlyph>
    <TTGlyph name="J" xMin="36" yMin="-7" xMax="232" yMax="690">
      <contour>
        <pt x="232" y="690" on="1"/>
        <pt x="232" y="123" on="1"/>
        <pt x="232" y="58" on="0"/>
        <pt x="169" y="-8" on="0"/>
        <pt x="107" y="-7" on="1"/>
        <pt x="74" y="-7" on="0"/>
        <pt x="36" y="1" on="1"/>
        <pt x="41" y="29" on="1"/>
        <pt x="97" y="29" on="1"/>
        <pt x="191" y="29" on="0"/>
        <pt x="191" y="123" on="1"/>
        <pt x="191" y="690" on="1"/>
      </contour>
    </TTGlyph>
    <TTGlyph name="K" xMin="99" yMin="0" xMax="540" yMax="690">
      <contour>
        <pt x="243" y="343" on="1"/>
        <pt x="136" y="343" on="1"/>
        <pt x="139" y="299" on="0"/>
        <pt x="139" y="260" on="1"/>
        <pt x="139" y="0" on="1"/>
        <pt x="99" y="0" on="1"/>
        <pt x="99" y="690" on="1"/>
        <pt x="139" y="690" on="1"/>
        <pt x="139" y="459" on="1"/>
        <pt x="139" y="414" on="0"/>
        <pt x="135" y="377" on="1"/>
        <pt x="243" y="377" on="1"/>
        <pt x="477" y="690" on="1"/>
        <pt x="524" y="690" on="1"/>
        <pt x="301" y="390" on="1"/>
        <pt x="292" y="376" on="0"/>
        <pt x="274" y="361" on="1"/>
        <pt x="274" y="359" on="1"/>
        <pt x="291" y="344" on="0"/>
        <pt x="302" y="329" on="1"/>
        <pt x="540" y="0" on="1"/>
        <pt x="492" y="0" on="1"/>
      </contour>
    </TTGlyph>
    <TTGlyph name="Kcommaaccent" xMin="99" yMin="-256" xMax="540" yMax="690">
      <contour>
        <pt x="540" y="0" on="1"/>
        <pt x="492" y="0" on="1"/>
        <pt x="243" y="343" on="1"/>
        <pt x="136" y="343" on="1"/>
        <pt x="139" y="299" on="0"/>
        <pt x="139" y="260" on="1"/>
        <pt x="139" y="0" on="1"/>
        <pt x="99" y="0" on="1"/>
        <pt x="99" y="690" on="1"/>
        <pt x="139" y="690" on="1"/>
        <pt x="139" y="459" on="1"/>
        <pt x="139" y="414" on="0"/>
        <pt x="135" y="377" on="1"/>
        <pt x="243" y="377" on="1"/>
        <pt x="477" y="690" on="1"/>
        <pt x="524" y="690" on="1"/>
        <pt x="301" y="390" on="1"/>
        <pt x="292" y="376" on="0"/>
        <pt x="274" y="361" on="1"/>
        <pt x="274" y="359" on="1"/>
        <pt x="291" y="344" on="0"/>
        <pt x="302" y="329" on="1"/>
      </contour>
      <contour>
        <pt x="302" y="-63" on="1"/>
        <pt x="314" y="-63" on="1"/>
        <pt x="329" y="-63" on="0"/>
        <pt x="329" y="-78" on="1"/>
        <pt x="329" y="-136" on="1"/>
        <pt x="327" y="-200" on="0"/>
        <pt x="309" y="-256" on="1"/>
        <pt x="291" y="-250" on="1"/>
        <pt x="296" y="-205" on="0"/>
        <pt x="296" y="-147" on="1"/>
        <pt x="284" y="-147" on="0"/>
        <pt x="286" y="-134" on="1"/>
        <pt x="286" y="-78" on="1"/>
        <pt x="286" y="-63" on="0"/>
      </contour>
    </TTGlyph>
    <TTGlyph name="L" xMin="96" yMin="0" xMax="482" yMax="690">
      <contour>
        <pt x="137" y="690" on="1"/>
        <pt x="137" y="113" on="1"/>
        <pt x="137" y="78" on="0"/>
        <pt x="180" y="35" on="0"/>
        <pt x="215" y="35" on="1"/>
        <pt x="482" y="35" on="1"/>
        <pt x="482" y="5" on="1"/>
        <pt x="392" y="0" on="0"/>
        <pt x="208" y="0" on="1"/>
        <pt x="156" y="0" on="0"/>
        <pt x="96" y="61" on="0"/>
        <pt x="96" y="109" on="1"/>
        <pt x="96" y="690" on="1"/>
      </contour>
    </TTGlyph>
    <TTGlyph name="Lacute" xMin="65" yMin="0" xMax="482" yMax="899">
      <contour>
        <pt x="246" y="870" on="1"/>
        <pt x="83" y="734" on="1"/>
        <pt x="65" y="754" on="1"/>
        <pt x="220" y="899" on="1"/>
      </contour>
      <contour>
        <pt x="137" y="690" on="1"/>
        <pt x="137" y="113" on="1"/>
        <pt x="137" y="78" on="0"/>
        <pt x="180" y="35" on="0"/>
        <pt x="215" y="35" on="1"/>
        <pt x="482" y="35" on="1"/>
        <pt x="482" y="5" on="1"/>
        <pt x="392" y="0" on="0"/>
        <pt x="208" y="0" on="1"/>
        <pt x="156" y="0" on="0"/>
        <pt x="96" y="61" on="0"/>
        <pt x="96" y="109" on="1"/>
        <pt x="96" y="690" on="1"/>
      </contour>
    </TTGlyph>
    <TTGlyph name="Lcaron" xMin="96" yMin="0" xMax="482" yMax="691">
      <contour>
        <pt x="294" y="691" on="1"/>
        <pt x="306" y="691" on="1"/>
        <pt x="321" y="691" on="0"/>
        <pt x="321" y="676" on="1"/>
        <pt x="321" y="618" on="1"/>
        <pt x="319" y="553" on="0"/>
        <pt x="301" y="498" on="1"/>
        <pt x="283" y="504" on="1"/>
        <pt x="288" y="549" on="0"/>
        <pt x="288" y="606" on="1"/>
        <pt x="276" y="606" on="0"/>
        <pt x="279" y="619" on="1"/>
        <pt x="279" y="676" on="1"/>
        <pt x="278" y="691" on="0"/>
      </contour>
      <contour>
        <pt x="137" y="690" on="1"/>
        <pt x="137" y="113" on="1"/>
        <pt x="137" y="78" on="0"/>
        <pt x="180" y="35" on="0"/>
        <pt x="215" y="35" on="1"/>
        <pt x="482" y="35" on="1"/>
        <pt x="482" y="5" on="1"/>
        <pt x="392" y="0" on="0"/>
        <pt x="208" y="0" on="1"/>
        <pt x="156" y="0" on="0"/>
        <pt x="96" y="61" on="0"/>
        <pt x="96" y="109" on="1"/>
        <pt x="96" y="690" on="1"/>
      </contour>
    </TTGlyph>
    <TTGlyph name="Lcommaaccent" xMin="96" yMin="-264" xMax="482" yMax="690">
      <contour>
        <pt x="137" y="690" on="1"/>
        <pt x="137" y="113" on="1"/>
        <pt x="137" y="78" on="0"/>
        <pt x="180" y="35" on="0"/>
        <pt x="215" y="35" on="1"/>
        <pt x="482" y="35" on="1"/>
        <pt x="482" y="5" on="1"/>
        <pt x="392" y="0" on="0"/>
        <pt x="208" y="0" on="1"/>
        <pt x="156" y="0" on="0"/>
        <pt x="96" y="61" on="0"/>
        <pt x="96" y="109" on="1"/>
        <pt x="96" y="690" on="1"/>
      </contour>
      <contour>
        <pt x="294" y="-71" on="1"/>
        <pt x="306" y="-71" on="1"/>
        <pt x="321" y="-71" on="0"/>
        <pt x="321" y="-86" on="1"/>
        <pt x="321" y="-144" on="1"/>
        <pt x="319" y="-208" on="0"/>
        <pt x="301" y="-264" on="1"/>
        <pt x="283" y="-258" on="1"/>
        <pt x="288" y="-213" on="0"/>
        <pt x="288" y="-155" on="1"/>
        <pt x="276" y="-155" on="0"/>
        <pt x="279" y="-142" on="1"/>
        <pt x="279" y="-86" on="1"/>
        <pt x="278" y="-71" on="0"/>
      </contour>
    </TTGlyph>
    <TTGlyph name="Ldot" xMin="96" yMin="0" xMax="482" yMax="690">
      <contour>
        <pt x="137" y="690" on="1"/>
        <pt x="137" y="113" on="1"/>
        <pt x="137" y="78" on="0"/>
        <pt x="180" y="35" on="0"/>
        <pt x="215" y="35" on="1"/>
        <pt x="482" y="35" on="1"/>
        <pt x="482" y="5" on="1"/>
        <pt x="392" y="0" on="0"/>
        <pt x="208" y="0" on="1"/>
        <pt x="156" y="0" on="0"/>
        <pt x="96" y="61" on="0"/>
        <pt x="96" y="109" on="1"/>
        <pt x="96" y="690" on="1"/>
      </contour>
      <contour>
        <pt x="381" y="333" on="1"/>
        <pt x="366" y="333" on="1"/>
        <pt x="351" y="333" on="0"/>
        <pt x="351" y="348" on="1"/>
        <pt x="351" y="409" on="1"/>
        <pt x="351" y="425" on="0"/>
        <pt x="366" y="425" on="1"/>
        <pt x="381" y="425" on="1"/>
        <pt x="396" y="425" on="0"/>
        <pt x="396" y="409" on="1"/>
        <pt x="396" y="348" on="1"/>
        <pt x="396" y="333" on="0"/>
      </contour>
    </TTGlyph>
    <TTGlyph name="Lslash" xMin="25" yMin="0" xMax="486" yMax="690">
      <contour>
        <pt x="486" y="35" on="1"/>
        <pt x="486" y="5" on="1"/>
        <pt x="396" y="0" on="0"/>
        <pt x="212" y="0" on="1"/>
        <pt x="161" y="0" on="0"/>
        <pt x="101" y="61" on="0"/>
        <pt x="101" y="109" on="1"/>
        <pt x="101" y="351" on="1"/>
        <pt x="25" y="318" on="1"/>
        <pt x="25" y="348" on="1"/>
        <pt x="101" y="381" on="1"/>
        <pt x="101" y="690" on="1"/>
        <pt x="142" y="690" on="1"/>
        <pt x="142" y="399" on="1"/>
        <pt x="267" y="453" on="1"/>
        <pt x="267" y="424" on="1"/>
        <pt x="142" y="369" on="1"/>
        <pt x="142" y="113" on="1"/>
        <pt x="142" y="78" on="0"/>
        <pt x="184" y="35" on="0"/>
        <pt x="220" y="35" on="1"/>
      </contour>
    </TTGlyph>
    <TTGlyph name="M" xMin="84" yMin="0" xMax="776" yMax="690">
      <contour>
        <pt x="669" y="690" on="1"/>
        <pt x="726" y="690" on="1"/>
        <pt x="746" y="690" on="0"/>
        <pt x="746" y="669" on="1"/>
        <pt x="776" y="0" on="1"/>
        <pt x="735" y="0" on="1"/>
        <pt x="706" y="655" on="1"/>
        <pt x="683" y="655" on="1"/>
        <pt x="475" y="79" on="1"/>
        <pt x="470" y="65" on="0"/>
        <pt x="456" y="65" on="1"/>
        <pt x="404" y="65" on="1"/>
        <pt x="389" y="65" on="0"/>
        <pt x="384" y="79" on="1"/>
        <pt x="177" y="655" on="1"/>
        <pt x="154" y="655" on="1"/>
        <pt x="125" y="0" on="1"/>
        <pt x="84" y="0" on="1"/>
        <pt x="113" y="669" on="1"/>
        <pt x="115" y="690" on="0"/>
        <pt x="134" y="690" on="1"/>
        <pt x="191" y="690" on="1"/>
        <pt x="205" y="690" on="0"/>
        <pt x="210" y="676" on="1"/>
        <pt x="385" y="192" on="1"/>
        <pt x="390" y="178" on="0"/>
        <pt x="401" y="147" on="0"/>
        <pt x="414" y="109" on="0"/>
        <pt x="418" y="99" on="1"/>
        <pt x="442" y="99" on="1"/>
        <pt x="475" y="194" on="1"/>
        <pt x="649" y="676" on="1"/>
        <pt x="654" y="690" on="0"/>
      </contour>
    </TTGlyph>
    <TTGlyph name="N" xMin="99" yMin="0" xMax="593" yMax="690">
      <contour>
        <pt x="593" y="690" on="1"/>
        <pt x="593" y="20" on="1"/>
        <pt x="593" y="0" on="0"/>
        <pt x="574" y="0" on="1"/>
        <pt x="520" y="0" on="1"/>
        <pt x="504" y="0" on="0"/>
        <pt x="497" y="15" on="1"/>
        <pt x="199" y="579" on="1"/>
        <pt x="171" y="633" on="0"/>
        <pt x="162" y="653" on="1"/>
        <pt x="139" y="653" on="1"/>
        <pt x="140" y="628" on="0"/>
        <pt x="140" y="578" on="1"/>
        <pt x="140" y="0" on="1"/>
        <pt x="99" y="0" on="1"/>
        <pt x="99" y="670" on="1"/>
        <pt x="99" y="690" on="0"/>
        <pt x="119" y="690" on="1"/>
        <pt x="169" y="690" on="1"/>
        <pt x="186" y="690" on="0"/>
        <pt x="193" y="675" on="1"/>
        <pt x="483" y="124" on="1"/>
        <pt x="491" y="111" on="0"/>
        <pt x="528" y="38" on="1"/>
        <pt x="553" y="38" on="1"/>
        <pt x="553" y="54" on="0"/>
        <pt x="552" y="117" on="0"/>
        <pt x="552" y="132" on="1"/>
        <pt x="552" y="690" on="1"/>
      </contour>
    </TTGlyph>
    <TTGlyph name="Nacute" xMin="99" yMin="0" xMax="593" yMax="899">
      <contour>
        <pt x="487" y="870" on="1"/>
        <pt x="324" y="734" on="1"/>
        <pt x="306" y="754" on="1"/>
        <pt x="461" y="899" on="1"/>
      </contour>
      <contour>
        <pt x="593" y="690" on="1"/>
        <pt x="593" y="20" on="1"/>
        <pt x="593" y="0" on="0"/>
        <pt x="574" y="0" on="1"/>
        <pt x="520" y="0" on="1"/>
        <pt x="504" y="0" on="0"/>
        <pt x="497" y="15" on="1"/>
        <pt x="199" y="579" on="1"/>
        <pt x="171" y="633" on="0"/>
        <pt x="162" y="653" on="1"/>
        <pt x="139" y="653" on="1"/>
        <pt x="140" y="628" on="0"/>
        <pt x="140" y="578" on="1"/>
        <pt x="140" y="0" on="1"/>
        <pt x="99" y="0" on="1"/>
        <pt x="99" y="670" on="1"/>
        <pt x="99" y="690" on="0"/>
        <pt x="119" y="690" on="1"/>
        <pt x="169" y="690" on="1"/>
        <pt x="186" y="690" on="0"/>
        <pt x="193" y="675" on="1"/>
        <pt x="483" y="124" on="1"/>
        <pt x="491" y="111" on="0"/>
        <pt x="528" y="38" on="1"/>
        <pt x="553" y="38" on="1"/>
        <pt x="553" y="54" on="0"/>
        <pt x="552" y="117" on="0"/>
        <pt x="552" y="132" on="1"/>
        <pt x="552" y="690" on="1"/>
      </contour>
    </TTGlyph>
    <TTGlyph name="Ncaron" xMin="99" yMin="0" xMax="593" yMax="887">
      <contour>
        <pt x="510" y="869" on="1"/>
        <pt x="372" y="749" on="1"/>
        <pt x="348" y="749" on="1"/>
        <pt x="209" y="869" on="1"/>
        <pt x="227" y="887" on="1"/>
        <pt x="356" y="789" on="1"/>
        <pt x="364" y="789" on="1"/>
        <pt x="494" y="887" on="1"/>
      </contour>
      <contour>
        <pt x="593" y="690" on="1"/>
        <pt x="593" y="20" on="1"/>
        <pt x="593" y="0" on="0"/>
        <pt x="574" y="0" on="1"/>
        <pt x="520" y="0" on="1"/>
        <pt x="504" y="0" on="0"/>
        <pt x="497" y="15" on="1"/>
        <pt x="199" y="579" on="1"/>
        <pt x="171" y="633" on="0"/>
        <pt x="162" y="653" on="1"/>
        <pt x="139" y="653" on="1"/>
        <pt x="140" y="628" on="0"/>
        <pt x="140" y="578" on="1"/>
        <pt x="140" y="0" on="1"/>
        <pt x="99" y="0" on="1"/>
        <pt x="99" y="670" on="1"/>
        <pt x="99" y="690" on="0"/>
        <pt x="119" y="690" on="1"/>
        <pt x="169" y="690" on="1"/>
        <pt x="186" y="690" on="0"/>
        <pt x="193" y="675" on="1"/>
        <pt x="483" y="124" on="1"/>
        <pt x="491" y="111" on="0"/>
        <pt x="528" y="38" on="1"/>
        <pt x="553" y="38" on="1"/>
        <pt x="553" y="54" on="0"/>
        <pt x="552" y="117" on="0"/>
        <pt x="552" y="132" on="1"/>
        <pt x="552" y="690" on="1"/>
      </contour>
    </TTGlyph>
    <TTGlyph name="Ncommaaccent" xMin="99" yMin="-256" xMax="593" yMax="690">
      <contour>
        <pt x="593" y="690" on="1"/>
        <pt x="593" y="20" on="1"/>
        <pt x="593" y="0" on="0"/>
        <pt x="574" y="0" on="1"/>
        <pt x="520" y="0" on="1"/>
        <pt x="504" y="0" on="0"/>
        <pt x="497" y="15" on="1"/>
        <pt x="199" y="579" on="1"/>
        <pt x="171" y="633" on="0"/>
        <pt x="162" y="653" on="1"/>
        <pt x="139" y="653" on="1"/>
        <pt x="140" y="628" on="0"/>
        <pt x="140" y="578" on="1"/>
        <pt x="140" y="0" on="1"/>
        <pt x="99" y="0" on="1"/>
        <pt x="99" y="670" on="1"/>
        <pt x="99" y="690" on="0"/>
        <pt x="119" y="690" on="1"/>
        <pt x="169" y="690" on="1"/>
        <pt x="186" y="690" on="0"/>
        <pt x="193" y="675" on="1"/>
        <pt x="483" y="124" on="1"/>
        <pt x="491" y="111" on="0"/>
        <pt x="528" y="38" on="1"/>
        <pt x="553" y="38" on="1"/>
        <pt x="553" y="54" on="0"/>
        <pt x="552" y="117" on="0"/>
        <pt x="552" y="132" on="1"/>
        <pt x="552" y="690" on="1"/>
      </contour>
      <contour>
        <pt x="327" y="-63" on="1"/>
        <pt x="339" y="-63" on="1"/>
        <pt x="354" y="-63" on="0"/>
        <pt x="354" y="-78" on="1"/>
        <pt x="354" y="-136" on="1"/>
        <pt x="352" y="-200" on="0"/>
        <pt x="334" y="-256" on="1"/>
        <pt x="316" y="-250" on="1"/>
        <pt x="321" y="-205" on="0"/>
        <pt x="321" y="-147" on="1"/>
        <pt x="309" y="-147" on="0"/>
        <pt x="311" y="-134" on="1"/>
        <pt x="311" y="-78" on="1"/>
        <pt x="311" y="-63" on="0"/>
      </contour>
    </TTGlyph>
    <TTGlyph name="Ntilde" xMin="99" yMin="0" xMax="593" yMax="870">
      <contour>
        <pt x="233" y="774" on="1"/>
        <pt x="210" y="774" on="1"/>
        <pt x="208" y="822" on="0"/>
        <pt x="250" y="873" on="0"/>
        <pt x="286" y="870" on="1"/>
        <pt x="316" y="867" on="0"/>
        <pt x="400" y="807" on="0"/>
        <pt x="429" y="805" on="1"/>
        <pt x="459" y="802" on="0"/>
        <pt x="484" y="831" on="0"/>
        <pt x="484" y="865" on="1"/>
        <pt x="507" y="865" on="1"/>
        <pt x="510" y="818" on="0"/>
        <pt x="468" y="770" on="0"/>
        <pt x="431" y="773" on="1"/>
        <pt x="395" y="776" on="0"/>
        <pt x="311" y="835" on="0"/>
        <pt x="289" y="838" on="1"/>
        <pt x="259" y="841" on="0"/>
        <pt x="233" y="810" on="0"/>
      </contour>
      <contour>
        <pt x="593" y="690" on="1"/>
        <pt x="593" y="20" on="1"/>
        <pt x="593" y="0" on="0"/>
        <pt x="574" y="0" on="1"/>
        <pt x="520" y="0" on="1"/>
        <pt x="504" y="0" on="0"/>
        <pt x="497" y="15" on="1"/>
        <pt x="199" y="579" on="1"/>
        <pt x="171" y="633" on="0"/>
        <pt x="162" y="653" on="1"/>
        <pt x="139" y="653" on="1"/>
        <pt x="140" y="628" on="0"/>
        <pt x="140" y="578" on="1"/>
        <pt x="140" y="0" on="1"/>
        <pt x="99" y="0" on="1"/>
        <pt x="99" y="670" on="1"/>
        <pt x="99" y="690" on="0"/>
        <pt x="119" y="690" on="1"/>
        <pt x="169" y="690" on="1"/>
        <pt x="186" y="690" on="0"/>
        <pt x="193" y="675" on="1"/>
        <pt x="483" y="124" on="1"/>
        <pt x="491" y="111" on="0"/>
        <pt x="528" y="38" on="1"/>
        <pt x="553" y="38" on="1"/>
        <pt x="553" y="54" on="0"/>
        <pt x="552" y="117" on="0"/>
        <pt x="552" y="132" on="1"/>
        <pt x="552" y="690" on="1"/>
      </contour>
    </TTGlyph>
    <TTGlyph name="O" xMin="72" yMin="-12" xMax="591" yMax="702">
      <contour>
        <pt x="188" y="702" on="0"/>
        <pt x="476" y="702" on="0"/>
        <pt x="591" y="544" on="0"/>
        <pt x="591" y="146" on="0"/>
        <pt x="476" y="-12" on="0"/>
        <pt x="188" y="-12" on="0"/>
        <pt x="72" y="147" on="0"/>
        <pt x="72" y="543" on="0"/>
      </contour>
      <contour>
        <pt x="453" y="665" on="0"/>
        <pt x="211" y="665" on="0"/>
        <pt x="115" y="523" on="0"/>
        <pt x="115" y="167" on="0"/>
        <pt x="211" y="25" on="0"/>
        <pt x="453" y="25" on="0"/>
        <pt x="548" y="166" on="0"/>
        <pt x="548" y="524" on="0"/>
      </contour>
    </TTGlyph>
    <TTGlyph name="OE" xMin="72" yMin="-12" xMax="839" yMax="702">
      <contour>
        <pt x="839" y="35" on="1"/>
        <pt x="839" y="4" on="1"/>
        <pt x="747" y="0" on="0"/>
        <pt x="559" y="0" on="1"/>
        <pt x="520" y="0" on="0"/>
        <pt x="494" y="21" on="1"/>
        <pt x="418" y="-12" on="0"/>
        <pt x="332" y="-12" on="1"/>
        <pt x="188" y="-12" on="0"/>
        <pt x="72" y="147" on="0"/>
        <pt x="72" y="543" on="0"/>
        <pt x="188" y="702" on="0"/>
        <pt x="332" y="702" on="1"/>
        <pt x="384" y="702" on="0"/>
        <pt x="451" y="688" on="0"/>
        <pt x="495" y="669" on="1"/>
        <pt x="522" y="690" on="0"/>
        <pt x="561" y="690" on="1"/>
        <pt x="747" y="690" on="0"/>
        <pt x="838" y="686" on="1"/>
        <pt x="838" y="655" on="1"/>
        <pt x="572" y="655" on="1"/>
        <pt x="537" y="655" on="0"/>
        <pt x="494" y="612" on="0"/>
        <pt x="494" y="577" on="1"/>
        <pt x="494" y="385" on="1"/>
        <pt x="796" y="385" on="1"/>
        <pt x="796" y="351" on="1"/>
        <pt x="494" y="351" on="1"/>
        <pt x="494" y="113" on="1"/>
        <pt x="494" y="78" on="0"/>
        <pt x="537" y="35" on="0"/>
        <pt x="572" y="35" on="1"/>
      </contour>
      <contour>
        <pt x="453" y="109" on="1"/>
        <pt x="453" y="581" on="1"/>
        <pt x="453" y="614" on="0"/>
        <pt x="469" y="641" on="1"/>
        <pt x="403" y="665" on="0"/>
        <pt x="332" y="665" on="1"/>
        <pt x="211" y="665" on="0"/>
        <pt x="115" y="525" on="0"/>
        <pt x="115" y="345" on="1"/>
        <pt x="115" y="167" on="0"/>
        <pt x="211" y="25" on="0"/>
        <pt x="332" y="25" on="1"/>
        <pt x="407" y="25" on="0"/>
        <pt x="469" y="49" on="1"/>
        <pt x="453" y="76" on="0"/>
      </contour>
    </TTGlyph>
    <TTGlyph name="Oacute" xMin="72" yMin="-12" xMax="591" yMax="899">
      <contour>
        <pt x="461" y="870" on="1"/>
        <pt x="298" y="734" on="1"/>
        <pt x="280" y="754" on="1"/>
        <pt x="435" y="899" on="1"/>
      </contour>
      <contour>
        <pt x="188" y="702" on="0"/>
        <pt x="476" y="702" on="0"/>
        <pt x="591" y="544" on="0"/>
        <pt x="591" y="146" on="0"/>
        <pt x="476" y="-12" on="0"/>
        <pt x="188" y="-12" on="0"/>
        <pt x="72" y="147" on="0"/>
        <pt x="72" y="543" on="0"/>
      </contour>
      <contour>
        <pt x="453" y="665" on="0"/>
        <pt x="211" y="665" on="0"/>
        <pt x="115" y="523" on="0"/>
        <pt x="115" y="167" on="0"/>
        <pt x="211" y="25" on="0"/>
        <pt x="453" y="25" on="0"/>
        <pt x="548" y="166" on="0"/>
        <pt x="548" y="524" on="0"/>
      </contour>
    </TTGlyph>
    <TTGlyph name="Ocircumflex" xMin="72" yMin="-12" xMax="591" yMax="884">
      <contour>
        <pt x="481" y="765" on="1"/>
        <pt x="465" y="746" on="1"/>
        <pt x="336" y="847" on="1"/>
        <pt x="328" y="847" on="1"/>
        <pt x="198" y="746" on="1"/>
        <pt x="182" y="765" on="1"/>
        <pt x="317" y="884" on="1"/>
        <pt x="346" y="884" on="1"/>
      </contour>
      <contour>
        <pt x="188" y="702" on="0"/>
        <pt x="476" y="702" on="0"/>
        <pt x="591" y="544" on="0"/>
        <pt x="591" y="146" on="0"/>
        <pt x="476" y="-12" on="0"/>
        <pt x="188" y="-12" on="0"/>
        <pt x="72" y="147" on="0"/>
        <pt x="72" y="543" on="0"/>
      </contour>
      <contour>
        <pt x="453" y="665" on="0"/>
        <pt x="211" y="665" on="0"/>
        <pt x="115" y="523" on="0"/>
        <pt x="115" y="167" on="0"/>
        <pt x="211" y="25" on="0"/>
        <pt x="453" y="25" on="0"/>
        <pt x="548" y="166" on="0"/>
        <pt x="548" y="524" on="0"/>
      </contour>
    </TTGlyph>
    <TTGlyph name="Odieresis" xMin="72" yMin="-12" xMax="591" yMax="860">
      <contour>
        <pt x="236" y="860" on="1"/>
        <pt x="251" y="860" on="1"/>
        <pt x="264" y="860" on="0"/>
        <pt x="264" y="845" on="1"/>
        <pt x="264" y="790" on="1"/>
        <pt x="264" y="775" on="0"/>
        <pt x="251" y="775" on="1"/>
        <pt x="236" y="775" on="1"/>
        <pt x="223" y="775" on="0"/>
        <pt x="223" y="790" on="1"/>
        <pt x="223" y="845" on="1"/>
        <pt x="223" y="860" on="0"/>
      </contour>
      <contour>
        <pt x="413" y="860" on="1"/>
        <pt x="428" y="860" on="1"/>
        <pt x="441" y="860" on="0"/>
        <pt x="441" y="845" on="1"/>
        <pt x="441" y="790" on="1"/>
        <pt x="441" y="775" on="0"/>
        <pt x="428" y="775" on="1"/>
        <pt x="413" y="775" on="1"/>
        <pt x="400" y="775" on="0"/>
        <pt x="400" y="790" on="1"/>
        <pt x="400" y="845" on="1"/>
        <pt x="400" y="860" on="0"/>
      </contour>
      <contour>
        <pt x="188" y="702" on="0"/>
        <pt x="476" y="702" on="0"/>
        <pt x="591" y="544" on="0"/>
        <pt x="591" y="146" on="0"/>
        <pt x="476" y="-12" on="0"/>
        <pt x="188" y="-12" on="0"/>
        <pt x="72" y="147" on="0"/>
        <pt x="72" y="543" on="0"/>
      </contour>
      <contour>
        <pt x="453" y="665" on="0"/>
        <pt x="211" y="665" on="0"/>
        <pt x="115" y="523" on="0"/>
        <pt x="115" y="167" on="0"/>
        <pt x="211" y="25" on="0"/>
        <pt x="453" y="25" on="0"/>
        <pt x="548" y="166" on="0"/>
        <pt x="548" y="524" on="0"/>
      </contour>
    </TTGlyph>
    <TTGlyph name="Ograve" xMin="72" yMin="-12" xMax="591" yMax="899">
      <contour>
        <pt x="374" y="754" on="1"/>
        <pt x="356" y="734" on="1"/>
        <pt x="193" y="870" on="1"/>
        <pt x="219" y="899" on="1"/>
      </contour>
      <contour>
        <pt x="188" y="702" on="0"/>
        <pt x="476" y="702" on="0"/>
        <pt x="591" y="544" on="0"/>
        <pt x="591" y="146" on="0"/>
        <pt x="476" y="-12" on="0"/>
        <pt x="188" y="-12" on="0"/>
        <pt x="72" y="147" on="0"/>
        <pt x="72" y="543" on="0"/>
      </contour>
      <contour>
        <pt x="453" y="665" on="0"/>
        <pt x="211" y="665" on="0"/>
        <pt x="115" y="523" on="0"/>
        <pt x="115" y="167" on="0"/>
        <pt x="211" y="25" on="0"/>
        <pt x="453" y="25" on="0"/>
        <pt x="548" y="166" on="0"/>
        <pt x="548" y="524" on="0"/>
      </contour>
    </TTGlyph>
    <TTGlyph name="Ohungarumlaut" xMin="72" yMin="-12" xMax="591" yMax="907">
      <contour>
        <pt x="370" y="885" on="1"/>
        <pt x="248" y="731" on="1"/>
        <pt x="226" y="746" on="1"/>
        <pt x="337" y="907" on="1"/>
      </contour>
      <contour>
        <pt x="516" y="885" on="1"/>
        <pt x="394" y="731" on="1"/>
        <pt x="373" y="746" on="1"/>
        <pt x="483" y="907" on="1"/>
      </contour>
      <contour>
        <pt x="188" y="702" on="0"/>
        <pt x="476" y="702" on="0"/>
        <pt x="591" y="544" on="0"/>
        <pt x="591" y="146" on="0"/>
        <pt x="476" y="-12" on="0"/>
        <pt x="188" y="-12" on="0"/>
        <pt x="72" y="147" on="0"/>
        <pt x="72" y="543" on="0"/>
      </contour>
      <contour>
        <pt x="453" y="665" on="0"/>
        <pt x="211" y="665" on="0"/>
        <pt x="115" y="523" on="0"/>
        <pt x="115" y="167" on="0"/>
        <pt x="211" y="25" on="0"/>
        <pt x="453" y="25" on="0"/>
        <pt x="548" y="166" on="0"/>
        <pt x="548" y="524" on="0"/>
      </contour>
    </TTGlyph>
    <TTGlyph name="Omacron" xMin="72" yMin="-12" xMax="591" yMax="833">
      <contour>
        <pt x="465" y="799" on="1"/>
        <pt x="200" y="799" on="1"/>
        <pt x="200" y="833" on="1"/>
        <pt x="465" y="833" on="1"/>
      </contour>
      <contour>
        <pt x="188" y="702" on="0"/>
        <pt x="476" y="702" on="0"/>
        <pt x="591" y="544" on="0"/>
        <pt x="591" y="146" on="0"/>
        <pt x="476" y="-12" on="0"/>
        <pt x="188" y="-12" on="0"/>
        <pt x="72" y="147" on="0"/>
        <pt x="72" y="543" on="0"/>
      </contour>
      <contour>
        <pt x="453" y="665" on="0"/>
        <pt x="211" y="665" on="0"/>
        <pt x="115" y="523" on="0"/>
        <pt x="115" y="167" on="0"/>
        <pt x="211" y="25" on="0"/>
        <pt x="453" y="25" on="0"/>
        <pt x="548" y="166" on="0"/>
        <pt x="548" y="524" on="0"/>
      </contour>
    </TTGlyph>
    <TTGlyph name="Omega" xMin="54" yMin="0" xMax="664" yMax="702">
      <contour>
        <pt x="54" y="36" on="1"/>
        <pt x="181" y="36" on="1"/>
        <pt x="224" y="36" on="0"/>
        <pt x="244" y="35" on="1"/>
        <pt x="160" y="91" on="0"/>
        <pt x="87" y="243" on="0"/>
        <pt x="87" y="361" on="1"/>
        <pt x="87" y="534" on="0"/>
        <pt x="216" y="702" on="0"/>
        <pt x="359" y="702" on="1"/>
        <pt x="500" y="702" on="0"/>
        <pt x="631" y="533" on="0"/>
        <pt x="631" y="361" on="1"/>
        <pt x="631" y="242" on="0"/>
        <pt x="557" y="92" on="0"/>
        <pt x="474" y="35" on="1"/>
        <pt x="495" y="36" on="0"/>
        <pt x="537" y="36" on="1"/>
        <pt x="664" y="36" on="1"/>
        <pt x="664" y="0" on="1"/>
        <pt x="430" y="0" on="1"/>
        <pt x="430" y="35" on="1"/>
        <pt x="517" y="93" on="0"/>
        <pt x="588" y="241" on="0"/>
        <pt x="589" y="357" on="1"/>
        <pt x="588" y="516" on="0"/>
        <pt x="479" y="665" on="0"/>
        <pt x="359" y="665" on="1"/>
        <pt x="237" y="665" on="0"/>
        <pt x="130" y="517" on="0"/>
        <pt x="130" y="355" on="1"/>
        <pt x="130" y="235" on="0"/>
        <pt x="202" y="97" on="0"/>
        <pt x="288" y="35" on="1"/>
        <pt x="288" y="0" on="1"/>
        <pt x="54" y="0" on="1"/>
      </contour>
    </TTGlyph>
    <TTGlyph name="Oslash" xMin="72" yMin="-53" xMax="591" yMax="743">
      <contour>
        <pt x="522" y="731" on="1"/>
        <pt x="491" y="664" on="1"/>
        <pt x="544" y="628" on="0"/>
        <pt x="591" y="476" on="0"/>
        <pt x="591" y="345" on="1"/>
        <pt x="591" y="146" on="0"/>
        <pt x="476" y="-12" on="0"/>
        <pt x="332" y="-12" on="1"/>
        <pt x="241" y="-12" on="0"/>
        <pt x="187" y="17" on="1"/>
        <pt x="154" y="-53" on="1"/>
        <pt x="127" y="-40" on="1"/>
        <pt x="162" y="34" on="1"/>
        <pt x="115" y="72" on="0"/>
        <pt x="72" y="222" on="0"/>
        <pt x="72" y="345" on="1"/>
        <pt x="72" y="543" on="0"/>
        <pt x="188" y="702" on="0"/>
        <pt x="332" y="702" on="1"/>
        <pt x="414" y="702" on="0"/>
        <pt x="464" y="679" on="1"/>
        <pt x="494" y="743" on="1"/>
      </contour>
      <contour>
        <pt x="181" y="74" on="1"/>
        <pt x="447" y="642" on="1"/>
        <pt x="404" y="665" on="0"/>
        <pt x="332" y="665" on="1"/>
        <pt x="211" y="665" on="0"/>
        <pt x="115" y="523" on="0"/>
        <pt x="115" y="345" on="1"/>
        <pt x="115" y="141" on="0"/>
      </contour>
      <contour>
        <pt x="472" y="625" on="1"/>
        <pt x="205" y="55" on="1"/>
        <pt x="251" y="25" on="0"/>
        <pt x="332" y="25" on="1"/>
        <pt x="453" y="25" on="0"/>
        <pt x="548" y="166" on="0"/>
        <pt x="548" y="345" on="1"/>
        <pt x="548" y="458" on="0"/>
        <pt x="513" y="592" on="0"/>
      </contour>
    </TTGlyph>
    <TTGlyph name="Otilde" xMin="72" yMin="-12" xMax="591" yMax="870">
      <contour>
        <pt x="207" y="774" on="1"/>
        <pt x="184" y="774" on="1"/>
        <pt x="181" y="822" on="0"/>
        <pt x="223" y="873" on="0"/>
        <pt x="260" y="870" on="1"/>
        <pt x="290" y="867" on="0"/>
        <pt x="373" y="807" on="0"/>
        <pt x="402" y="805" on="1"/>
        <pt x="432" y="802" on="0"/>
        <pt x="458" y="831" on="0"/>
        <pt x="458" y="865" on="1"/>
        <pt x="481" y="865" on="1"/>
        <pt x="483" y="819" on="0"/>
        <pt x="442" y="770" on="0"/>
        <pt x="405" y="773" on="1"/>
        <pt x="369" y="776" on="0"/>
        <pt x="284" y="835" on="0"/>
        <pt x="262" y="838" on="1"/>
        <pt x="233" y="841" on="0"/>
        <pt x="207" y="810" on="0"/>
      </contour>
      <contour>
        <pt x="188" y="702" on="0"/>
        <pt x="476" y="702" on="0"/>
        <pt x="591" y="544" on="0"/>
        <pt x="591" y="146" on="0"/>
        <pt x="476" y="-12" on="0"/>
        <pt x="188" y="-12" on="0"/>
        <pt x="72" y="147" on="0"/>
        <pt x="72" y="543" on="0"/>
      </contour>
      <contour>
        <pt x="453" y="665" on="0"/>
        <pt x="211" y="665" on="0"/>
        <pt x="115" y="523" on="0"/>
        <pt x="115" y="167" on="0"/>
        <pt x="211" y="25" on="0"/>
        <pt x="453" y="25" on="0"/>
        <pt x="548" y="166" on="0"/>
        <pt x="548" y="524" on="0"/>
      </contour>
    </TTGlyph>
    <TTGlyph name="P" xMin="99" yMin="0" xMax="529" yMax="698">
      <contour>
        <pt x="99" y="0" on="1"/>
        <pt x="99" y="690" on="1"/>
        <pt x="180" y="698" on="0"/>
        <pt x="324" y="698" on="1"/>
        <pt x="439" y="698" on="0"/>
        <pt x="529" y="611" on="0"/>
        <pt x="529" y="492" on="1"/>
        <pt x="529" y="372" on="0"/>
        <pt x="440" y="286" on="0"/>
        <pt x="327" y="286" on="1"/>
        <pt x="220" y="286" on="0"/>
        <pt x="140" y="292" on="1"/>
        <pt x="140" y="0" on="1"/>
      </contour>
      <contour>
        <pt x="140" y="322" on="1"/>
        <pt x="324" y="322" on="1"/>
        <pt x="416" y="324" on="0"/>
        <pt x="487" y="393" on="0"/>
        <pt x="487" y="591" on="0"/>
        <pt x="416" y="662" on="0"/>
        <pt x="324" y="662" on="1"/>
        <pt x="218" y="662" on="0"/>
        <pt x="140" y="660" on="1"/>
      </contour>
    </TTGlyph>
    <TTGlyph name="Q" xMin="72" yMin="-171" xMax="591" yMax="702">
      <contour>
        <pt x="188" y="702" on="0"/>
        <pt x="476" y="702" on="0"/>
        <pt x="591" y="544" on="0"/>
        <pt x="591" y="146" on="0"/>
        <pt x="476" y="-12" on="0"/>
        <pt x="188" y="-12" on="0"/>
        <pt x="72" y="147" on="0"/>
        <pt x="72" y="543" on="0"/>
      </contour>
      <contour>
        <pt x="453" y="665" on="0"/>
        <pt x="211" y="665" on="0"/>
        <pt x="116" y="524" on="0"/>
        <pt x="116" y="166" on="0"/>
        <pt x="211" y="25" on="0"/>
        <pt x="453" y="25" on="0"/>
        <pt x="548" y="166" on="0"/>
        <pt x="548" y="524" on="0"/>
      </contour>
      <contour>
        <pt x="282" y="-73" on="1"/>
        <pt x="297" y="-49" on="1"/>
        <pt x="392" y="-108" on="0"/>
        <pt x="532" y="-130" on="1"/>
        <pt x="519" y="-171" on="1"/>
        <pt x="384" y="-150" on="0"/>
      </contour>
    </TTGlyph>
    <TTGlyph name="R" xMin="99" yMin="0" xMax="554" yMax="698">
      <contour>
        <pt x="554" y="0" on="1"/>
        <pt x="509" y="0" on="1"/>
        <pt x="439" y="217" on="1"/>
        <pt x="409" y="304" on="0"/>
        <pt x="331" y="304" on="1"/>
        <pt x="257" y="304" on="0"/>
        <pt x="140" y="307" on="1"/>
        <pt x="140" y="0" on="1"/>
        <pt x="99" y="0" on="1"/>
        <pt x="99" y="690" on="1"/>
        <pt x="180" y="698" on="0"/>
        <pt x="324" y="698" on="1"/>
        <pt x="439" y="698" on="0"/>
        <pt x="529" y="616" on="0"/>
        <pt x="529" y="503" on="1"/>
        <pt x="529" y="413" on="0"/>
        <pt x="470" y="330" on="0"/>
        <pt x="402" y="321" on="1"/>
        <pt x="402" y="316" on="1"/>
        <pt x="455" y="301" on="0"/>
        <pt x="481" y="220" on="1"/>
      </contour>
      <contour>
        <pt x="140" y="341" on="1"/>
        <pt x="324" y="341" on="1"/>
        <pt x="416" y="343" on="0"/>
        <pt x="487" y="409" on="0"/>
        <pt x="487" y="595" on="0"/>
        <pt x="416" y="662" on="0"/>
        <pt x="324" y="662" on="1"/>
        <pt x="216" y="662" on="0"/>
        <pt x="140" y="660" on="1"/>
      </contour>
    </TTGlyph>
    <TTGlyph name="Racute" xMin="99" yMin="0" xMax="554" yMax="899">
      <contour>
        <pt x="268" y="734" on="1"/>
        <pt x="250" y="754" on="1"/>
        <pt x="406" y="899" on="1"/>
        <pt x="431" y="870" on="1"/>
      </contour>
      <contour>
        <pt x="554" y="0" on="1"/>
        <pt x="509" y="0" on="1"/>
        <pt x="439" y="217" on="1"/>
        <pt x="409" y="304" on="0"/>
        <pt x="331" y="304" on="1"/>
        <pt x="257" y="304" on="0"/>
        <pt x="140" y="307" on="1"/>
        <pt x="140" y="0" on="1"/>
        <pt x="99" y="0" on="1"/>
        <pt x="99" y="690" on="1"/>
        <pt x="180" y="698" on="0"/>
        <pt x="324" y="698" on="1"/>
        <pt x="439" y="698" on="0"/>
        <pt x="529" y="616" on="0"/>
        <pt x="529" y="503" on="1"/>
        <pt x="529" y="413" on="0"/>
        <pt x="470" y="330" on="0"/>
        <pt x="402" y="321" on="1"/>
        <pt x="402" y="316" on="1"/>
        <pt x="455" y="301" on="0"/>
        <pt x="481" y="220" on="1"/>
      </contour>
      <contour>
        <pt x="140" y="341" on="1"/>
        <pt x="324" y="341" on="1"/>
        <pt x="416" y="343" on="0"/>
        <pt x="487" y="409" on="0"/>
        <pt x="487" y="595" on="0"/>
        <pt x="416" y="662" on="0"/>
        <pt x="324" y="662" on="1"/>
        <pt x="216" y="662" on="0"/>
        <pt x="140" y="660" on="1"/>
      </contour>
    </TTGlyph>
    <TTGlyph name="Rcaron" xMin="99" yMin="0" xMax="554" yMax="887">
      <contour>
        <pt x="292" y="749" on="1"/>
        <pt x="154" y="869" on="1"/>
        <pt x="171" y="887" on="1"/>
        <pt x="300" y="789" on="1"/>
        <pt x="308" y="789" on="1"/>
        <pt x="438" y="887" on="1"/>
        <pt x="454" y="869" on="1"/>
        <pt x="316" y="749" on="1"/>
      </contour>
      <contour>
        <pt x="554" y="0" on="1"/>
        <pt x="509" y="0" on="1"/>
        <pt x="439" y="217" on="1"/>
        <pt x="409" y="304" on="0"/>
        <pt x="331" y="304" on="1"/>
        <pt x="257" y="304" on="0"/>
        <pt x="140" y="307" on="1"/>
        <pt x="140" y="0" on="1"/>
        <pt x="99" y="0" on="1"/>
        <pt x="99" y="690" on="1"/>
        <pt x="180" y="698" on="0"/>
        <pt x="324" y="698" on="1"/>
        <pt x="439" y="698" on="0"/>
        <pt x="529" y="616" on="0"/>
        <pt x="529" y="503" on="1"/>
        <pt x="529" y="413" on="0"/>
        <pt x="470" y="330" on="0"/>
        <pt x="402" y="321" on="1"/>
        <pt x="402" y="316" on="1"/>
        <pt x="455" y="301" on="0"/>
        <pt x="481" y="220" on="1"/>
      </contour>
      <contour>
        <pt x="140" y="341" on="1"/>
        <pt x="324" y="341" on="1"/>
        <pt x="416" y="343" on="0"/>
        <pt x="487" y="409" on="0"/>
        <pt x="487" y="595" on="0"/>
        <pt x="416" y="662" on="0"/>
        <pt x="324" y="662" on="1"/>
        <pt x="216" y="662" on="0"/>
        <pt x="140" y="660" on="1"/>
      </contour>
    </TTGlyph>
    <TTGlyph name="Rcommaaccent" xMin="99" yMin="-256" xMax="554" yMax="698">
      <contour>
        <pt x="554" y="0" on="1"/>
        <pt x="509" y="0" on="1"/>
        <pt x="439" y="217" on="1"/>
        <pt x="409" y="304" on="0"/>
        <pt x="331" y="304" on="1"/>
        <pt x="257" y="304" on="0"/>
        <pt x="140" y="307" on="1"/>
        <pt x="140" y="0" on="1"/>
        <pt x="99" y="0" on="1"/>
        <pt x="99" y="690" on="1"/>
        <pt x="180" y="698" on="0"/>
        <pt x="324" y="698" on="1"/>
        <pt x="439" y="698" on="0"/>
        <pt x="529" y="616" on="0"/>
        <pt x="529" y="503" on="1"/>
        <pt x="529" y="413" on="0"/>
        <pt x="470" y="330" on="0"/>
        <pt x="402" y="321" on="1"/>
        <pt x="402" y="316" on="1"/>
        <pt x="455" y="301" on="0"/>
        <pt x="481" y="220" on="1"/>
      </contour>
      <contour>
        <pt x="140" y="341" on="1"/>
        <pt x="324" y="341" on="1"/>
        <pt x="416" y="343" on="0"/>
        <pt x="487" y="409" on="0"/>
        <pt x="487" y="595" on="0"/>
        <pt x="416" y="662" on="0"/>
        <pt x="324" y="662" on="1"/>
        <pt x="216" y="662" on="0"/>
        <pt x="140" y="660" on="1"/>
      </contour>
      <contour>
        <pt x="322" y="-63" on="1"/>
        <pt x="334" y="-63" on="1"/>
        <pt x="349" y="-63" on="0"/>
        <pt x="349" y="-78" on="1"/>
        <pt x="349" y="-136" on="1"/>
        <pt x="349" y="-199" on="0"/>
        <pt x="329" y="-256" on="1"/>
        <pt x="312" y="-250" on="1"/>
        <pt x="317" y="-190" on="0"/>
        <pt x="317" y="-147" on="1"/>
        <pt x="305" y="-147" on="0"/>
        <pt x="307" y="-134" on="1"/>
        <pt x="307" y="-78" on="1"/>
        <pt x="307" y="-63" on="0"/>
      </contour>
    </TTGlyph>
    <TTGlyph name="S" xMin="63" yMin="-11" xMax="497" yMax="701">
      <contour>
        <pt x="348" y="317" on="1"/>
        <pt x="198" y="342" on="1"/>
        <pt x="126" y="353" on="0"/>
        <pt x="63" y="439" on="0"/>
        <pt x="63" y="523" on="1"/>
        <pt x="63" y="584" on="0"/>
        <pt x="87" y="657" on="0"/>
        <pt x="146" y="692" on="0"/>
        <pt x="215" y="702" on="0"/>
        <pt x="275" y="701" on="1"/>
        <pt x="382" y="699" on="0"/>
        <pt x="467" y="687" on="1"/>
        <pt x="463" y="657" on="1"/>
        <pt x="325" y="664" on="0"/>
        <pt x="276" y="664" on="1"/>
        <pt x="240" y="664" on="0"/>
        <pt x="202" y="662" on="0"/>
        <pt x="156" y="654" on="0"/>
        <pt x="134" y="636" on="0"/>
        <pt x="112" y="605" on="0"/>
        <pt x="105" y="557" on="0"/>
        <pt x="105" y="522" on="1"/>
        <pt x="105" y="452" on="0"/>
        <pt x="152" y="389" on="0"/>
        <pt x="208" y="380" on="1"/>
        <pt x="358" y="355" on="1"/>
        <pt x="434" y="344" on="0"/>
        <pt x="497" y="259" on="0"/>
        <pt x="497" y="171" on="1"/>
        <pt x="497" y="111" on="0"/>
        <pt x="471" y="37" on="0"/>
        <pt x="411" y="0" on="0"/>
        <pt x="340" y="-11" on="0"/>
        <pt x="281" y="-11" on="1"/>
        <pt x="169" y="-11" on="0"/>
        <pt x="75" y="2" on="1"/>
        <pt x="78" y="33" on="1"/>
        <pt x="196" y="25" on="0"/>
        <pt x="283" y="26" on="1"/>
        <pt x="335" y="27" on="0"/>
        <pt x="393" y="37" on="0"/>
        <pt x="438" y="67" on="0"/>
        <pt x="455" y="124" on="0"/>
        <pt x="455" y="171" on="1"/>
        <pt x="455" y="246" on="0"/>
        <pt x="407" y="308" on="0"/>
      </contour>
    </TTGlyph>
    <TTGlyph name="Sacute" xMin="63" yMin="-11" xMax="497" yMax="899">
      <contour>
        <pt x="408" y="870" on="1"/>
        <pt x="245" y="734" on="1"/>
        <pt x="227" y="754" on="1"/>
        <pt x="382" y="899" on="1"/>
      </contour>
      <contour>
        <pt x="348" y="317" on="1"/>
        <pt x="198" y="342" on="1"/>
        <pt x="126" y="353" on="0"/>
        <pt x="63" y="439" on="0"/>
        <pt x="63" y="523" on="1"/>
        <pt x="63" y="584" on="0"/>
        <pt x="87" y="657" on="0"/>
        <pt x="146" y="692" on="0"/>
        <pt x="215" y="702" on="0"/>
        <pt x="275" y="701" on="1"/>
        <pt x="382" y="699" on="0"/>
        <pt x="467" y="687" on="1"/>
        <pt x="463" y="657" on="1"/>
        <pt x="325" y="664" on="0"/>
        <pt x="276" y="664" on="1"/>
        <pt x="240" y="664" on="0"/>
        <pt x="202" y="662" on="0"/>
        <pt x="156" y="654" on="0"/>
        <pt x="134" y="636" on="0"/>
        <pt x="112" y="605" on="0"/>
        <pt x="105" y="557" on="0"/>
        <pt x="105" y="522" on="1"/>
        <pt x="105" y="452" on="0"/>
        <pt x="152" y="389" on="0"/>
        <pt x="208" y="380" on="1"/>
        <pt x="358" y="355" on="1"/>
        <pt x="434" y="344" on="0"/>
        <pt x="497" y="259" on="0"/>
        <pt x="497" y="171" on="1"/>
        <pt x="497" y="111" on="0"/>
        <pt x="471" y="37" on="0"/>
        <pt x="411" y="0" on="0"/>
        <pt x="340" y="-11" on="0"/>
        <pt x="281" y="-11" on="1"/>
        <pt x="169" y="-11" on="0"/>
        <pt x="75" y="2" on="1"/>
        <pt x="78" y="33" on="1"/>
        <pt x="196" y="25" on="0"/>
        <pt x="283" y="26" on="1"/>
        <pt x="335" y="27" on="0"/>
        <pt x="393" y="37" on="0"/>
        <pt x="438" y="67" on="0"/>
        <pt x="455" y="124" on="0"/>
        <pt x="455" y="171" on="1"/>
        <pt x="455" y="246" on="0"/>
        <pt x="407" y="308" on="0"/>
      </contour>
    </TTGlyph>
    <TTGlyph name="Scaron" xMin="63" yMin="-11" xMax="497" yMax="887">
      <contour>
        <pt x="431" y="869" on="1"/>
        <pt x="292" y="749" on="1"/>
        <pt x="269" y="749" on="1"/>
        <pt x="130" y="869" on="1"/>
        <pt x="147" y="887" on="1"/>
        <pt x="277" y="789" on="1"/>
        <pt x="285" y="789" on="1"/>
        <pt x="414" y="887" on="1"/>
      </contour>
      <contour>
        <pt x="348" y="317" on="1"/>
        <pt x="198" y="342" on="1"/>
        <pt x="126" y="353" on="0"/>
        <pt x="63" y="439" on="0"/>
        <pt x="63" y="523" on="1"/>
        <pt x="63" y="584" on="0"/>
        <pt x="87" y="657" on="0"/>
        <pt x="146" y="692" on="0"/>
        <pt x="215" y="702" on="0"/>
        <pt x="275" y="701" on="1"/>
        <pt x="382" y="699" on="0"/>
        <pt x="467" y="687" on="1"/>
        <pt x="463" y="657" on="1"/>
        <pt x="325" y="664" on="0"/>
        <pt x="276" y="664" on="1"/>
        <pt x="240" y="664" on="0"/>
        <pt x="202" y="662" on="0"/>
        <pt x="156" y="654" on="0"/>
        <pt x="134" y="636" on="0"/>
        <pt x="112" y="605" on="0"/>
        <pt x="105" y="557" on="0"/>
        <pt x="105" y="522" on="1"/>
        <pt x="105" y="452" on="0"/>
        <pt x="152" y="389" on="0"/>
        <pt x="208" y="380" on="1"/>
        <pt x="358" y="355" on="1"/>
        <pt x="434" y="344" on="0"/>
        <pt x="497" y="259" on="0"/>
        <pt x="497" y="171" on="1"/>
        <pt x="497" y="111" on="0"/>
        <pt x="471" y="37" on="0"/>
        <pt x="411" y="0" on="0"/>
        <pt x="340" y="-11" on="0"/>
        <pt x="281" y="-11" on="1"/>
        <pt x="169" y="-11" on="0"/>
        <pt x="75" y="2" on="1"/>
        <pt x="78" y="33" on="1"/>
        <pt x="196" y="25" on="0"/>
        <pt x="283" y="26" on="1"/>
        <pt x="335" y="27" on="0"/>
        <pt x="393" y="37" on="0"/>
        <pt x="438" y="67" on="0"/>
        <pt x="455" y="124" on="0"/>
        <pt x="455" y="171" on="1"/>
        <pt x="455" y="246" on="0"/>
        <pt x="407" y="308" on="0"/>
      </contour>
    </TTGlyph>
    <TTGlyph name="Scedilla" xMin="63" yMin="-233" xMax="497" yMax="701">
      <contour>
        <pt x="348" y="317" on="1"/>
        <pt x="198" y="342" on="1"/>
        <pt x="126" y="353" on="0"/>
        <pt x="63" y="439" on="0"/>
        <pt x="63" y="523" on="1"/>
        <pt x="63" y="584" on="0"/>
        <pt x="87" y="657" on="0"/>
        <pt x="146" y="692" on="0"/>
        <pt x="215" y="702" on="0"/>
        <pt x="275" y="701" on="1"/>
        <pt x="382" y="699" on="0"/>
        <pt x="467" y="687" on="1"/>
        <pt x="463" y="657" on="1"/>
        <pt x="325" y="664" on="0"/>
        <pt x="276" y="664" on="1"/>
        <pt x="240" y="664" on="0"/>
        <pt x="202" y="662" on="0"/>
        <pt x="156" y="654" on="0"/>
        <pt x="134" y="636" on="0"/>
        <pt x="112" y="605" on="0"/>
        <pt x="105" y="557" on="0"/>
        <pt x="105" y="522" on="1"/>
        <pt x="105" y="452" on="0"/>
        <pt x="152" y="389" on="0"/>
        <pt x="208" y="380" on="1"/>
        <pt x="358" y="355" on="1"/>
        <pt x="434" y="344" on="0"/>
        <pt x="497" y="259" on="0"/>
        <pt x="497" y="171" on="1"/>
        <pt x="497" y="111" on="0"/>
        <pt x="471" y="37" on="0"/>
        <pt x="411" y="0" on="0"/>
        <pt x="340" y="-11" on="0"/>
        <pt x="281" y="-11" on="1"/>
        <pt x="169" y="-11" on="0"/>
        <pt x="75" y="2" on="1"/>
        <pt x="78" y="33" on="1"/>
        <pt x="196" y="25" on="0"/>
        <pt x="283" y="26" on="1"/>
        <pt x="335" y="27" on="0"/>
        <pt x="393" y="37" on="0"/>
        <pt x="438" y="67" on="0"/>
        <pt x="455" y="124" on="0"/>
        <pt x="455" y="171" on="1"/>
        <pt x="455" y="246" on="0"/>
        <pt x="407" y="308" on="0"/>
      </contour>
      <contour>
        <pt x="245" y="-79" on="1"/>
        <pt x="250" y="-59" on="1"/>
        <pt x="295" y="-56" on="0"/>
        <pt x="337" y="-86" on="0"/>
        <pt x="336" y="-124" on="1"/>
        <pt x="335" y="-178" on="0"/>
        <pt x="255" y="-241" on="0"/>
        <pt x="190" y="-233" on="1"/>
        <pt x="197" y="-210" on="1"/>
        <pt x="245" y="-212" on="0"/>
        <pt x="304" y="-162" on="0"/>
        <pt x="304" y="-125" on="1"/>
        <pt x="304" y="-100" on="0"/>
        <pt x="278" y="-80" on="0"/>
      </contour>
    </TTGlyph>
    <TTGlyph name="Scommaaccent" xMin="63" yMin="-256" xMax="497" yMax="701">
      <contour>
        <pt x="348" y="317" on="1"/>
        <pt x="198" y="342" on="1"/>
        <pt x="126" y="353" on="0"/>
        <pt x="63" y="439" on="0"/>
        <pt x="63" y="523" on="1"/>
        <pt x="63" y="584" on="0"/>
        <pt x="87" y="657" on="0"/>
        <pt x="146" y="692" on="0"/>
        <pt x="215" y="702" on="0"/>
        <pt x="275" y="701" on="1"/>
        <pt x="382" y="699" on="0"/>
        <pt x="467" y="687" on="1"/>
        <pt x="463" y="657" on="1"/>
        <pt x="325" y="664" on="0"/>
        <pt x="276" y="664" on="1"/>
        <pt x="240" y="664" on="0"/>
        <pt x="202" y="662" on="0"/>
        <pt x="156" y="654" on="0"/>
        <pt x="134" y="636" on="0"/>
        <pt x="112" y="605" on="0"/>
        <pt x="105" y="557" on="0"/>
        <pt x="105" y="522" on="1"/>
        <pt x="105" y="452" on="0"/>
        <pt x="152" y="389" on="0"/>
        <pt x="208" y="380" on="1"/>
        <pt x="358" y="355" on="1"/>
        <pt x="434" y="344" on="0"/>
        <pt x="497" y="259" on="0"/>
        <pt x="497" y="171" on="1"/>
        <pt x="497" y="111" on="0"/>
        <pt x="471" y="37" on="0"/>
        <pt x="411" y="0" on="0"/>
        <pt x="340" y="-11" on="0"/>
        <pt x="281" y="-11" on="1"/>
        <pt x="169" y="-11" on="0"/>
        <pt x="75" y="2" on="1"/>
        <pt x="78" y="33" on="1"/>
        <pt x="196" y="25" on="0"/>
        <pt x="283" y="26" on="1"/>
        <pt x="335" y="27" on="0"/>
        <pt x="393" y="37" on="0"/>
        <pt x="438" y="67" on="0"/>
        <pt x="455" y="124" on="0"/>
        <pt x="455" y="171" on="1"/>
        <pt x="455" y="246" on="0"/>
        <pt x="407" y="308" on="0"/>
      </contour>
      <contour>
        <pt x="284" y="-63" on="1"/>
        <pt x="296" y="-63" on="1"/>
        <pt x="312" y="-63" on="0"/>
        <pt x="312" y="-78" on="1"/>
        <pt x="312" y="-136" on="1"/>
        <pt x="310" y="-201" on="0"/>
        <pt x="291" y="-256" on="1"/>
        <pt x="274" y="-250" on="1"/>
        <pt x="279" y="-190" on="0"/>
        <pt x="279" y="-147" on="1"/>
        <pt x="267" y="-147" on="0"/>
        <pt x="269" y="-134" on="1"/>
        <pt x="269" y="-78" on="1"/>
        <pt x="269" y="-63" on="0"/>
      </contour>
    </TTGlyph>
    <TTGlyph name="T" xMin="26" yMin="0" xMax="542" yMax="690">
      <contour>
        <pt x="542" y="654" on="1"/>
        <pt x="304" y="654" on="1"/>
        <pt x="304" y="0" on="1"/>
        <pt x="263" y="0" on="1"/>
        <pt x="263" y="654" on="1"/>
        <pt x="26" y="654" on="1"/>
        <pt x="26" y="690" on="1"/>
        <pt x="542" y="690" on="1"/>
      </contour>
    </TTGlyph>
    <TTGlyph name="Tbar" xMin="26" yMin="0" xMax="542" yMax="690">
      <contour>
        <pt x="304" y="654" on="1"/>
        <pt x="304" y="424" on="1"/>
        <pt x="451" y="424" on="1"/>
        <pt x="451" y="396" on="1"/>
        <pt x="304" y="396" on="1"/>
        <pt x="304" y="0" on="1"/>
        <pt x="263" y="0" on="1"/>
        <pt x="263" y="396" on="1"/>
        <pt x="112" y="396" on="1"/>
        <pt x="112" y="424" on="1"/>
        <pt x="263" y="424" on="1"/>
        <pt x="263" y="654" on="1"/>
        <pt x="26" y="654" on="1"/>
        <pt x="26" y="690" on="1"/>
        <pt x="542" y="690" on="1"/>
        <pt x="542" y="654" on="1"/>
      </contour>
    </TTGlyph>
    <TTGlyph name="Tcaron" xMin="26" yMin="0" xMax="542" yMax="887">
      <contour>
        <pt x="274" y="749" on="1"/>
        <pt x="136" y="869" on="1"/>
        <pt x="153" y="887" on="1"/>
        <pt x="282" y="789" on="1"/>
        <pt x="290" y="789" on="1"/>
        <pt x="420" y="887" on="1"/>
        <pt x="436" y="869" on="1"/>
        <pt x="298" y="749" on="1"/>
      </contour>
      <contour>
        <pt x="542" y="654" on="1"/>
        <pt x="304" y="654" on="1"/>
        <pt x="304" y="0" on="1"/>
        <pt x="263" y="0" on="1"/>
        <pt x="263" y="654" on="1"/>
        <pt x="26" y="654" on="1"/>
        <pt x="26" y="690" on="1"/>
        <pt x="542" y="690" on="1"/>
      </contour>
    </TTGlyph>
    <TTGlyph name="Tcedilla" xMin="26" yMin="-222" xMax="542" yMax="690">
      <contour>
        <pt x="542" y="690" on="1"/>
        <pt x="542" y="654" on="1"/>
        <pt x="304" y="654" on="1"/>
        <pt x="304" y="0" on="1"/>
        <pt x="263" y="0" on="1"/>
        <pt x="263" y="654" on="1"/>
        <pt x="26" y="654" on="1"/>
        <pt x="26" y="690" on="1"/>
      </contour>
      <contour>
        <pt x="246" y="-68" on="1"/>
        <pt x="251" y="-47" on="1"/>
        <pt x="340" y="-41" on="0"/>
        <pt x="337" y="-112" on="1"/>
        <pt x="336" y="-167" on="0"/>
        <pt x="256" y="-230" on="0"/>
        <pt x="191" y="-222" on="1"/>
        <pt x="198" y="-199" on="1"/>
        <pt x="246" y="-201" on="0"/>
        <pt x="305" y="-151" on="0"/>
        <pt x="305" y="-114" on="1"/>
        <pt x="305" y="-89" on="0"/>
        <pt x="279" y="-69" on="0"/>
      </contour>
    </TTGlyph>
    <TTGlyph name="Thorn" xMin="99" yMin="0" xMax="529" yMax="690">
      <contour>
        <pt x="140" y="690" on="1"/>
        <pt x="140" y="554" on="1"/>
        <pt x="192" y="558" on="0"/>
        <pt x="324" y="558" on="1"/>
        <pt x="439" y="558" on="0"/>
        <pt x="529" y="471" on="0"/>
        <pt x="529" y="231" on="0"/>
        <pt x="440" y="144" on="0"/>
        <pt x="327" y="144" on="1"/>
        <pt x="220" y="144" on="0"/>
        <pt x="140" y="150" on="1"/>
        <pt x="140" y="0" on="1"/>
        <pt x="99" y="0" on="1"/>
        <pt x="99" y="550" on="1"/>
        <pt x="99" y="690" on="1"/>
      </contour>
      <contour>
        <pt x="140" y="181" on="1"/>
        <pt x="324" y="181" on="1"/>
        <pt x="416" y="183" on="0"/>
        <pt x="487" y="252" on="0"/>
        <pt x="487" y="351" on="1"/>
        <pt x="487" y="451" on="0"/>
        <pt x="416" y="522" on="0"/>
        <pt x="324" y="522" on="1"/>
        <pt x="218" y="522" on="0"/>
        <pt x="140" y="520" on="1"/>
      </contour>
    </TTGlyph>
    <TTGlyph name="U" xMin="94" yMin="-12" xMax="573" yMax="690">
      <contour>
        <pt x="573" y="690" on="1"/>
        <pt x="573" y="257" on="1"/>
        <pt x="573" y="111" on="0"/>
        <pt x="465" y="-12" on="0"/>
        <pt x="335" y="-12" on="1"/>
        <pt x="203" y="-12" on="0"/>
        <pt x="94" y="111" on="0"/>
        <pt x="94" y="257" on="1"/>
        <pt x="94" y="690" on="1"/>
        <pt x="135" y="690" on="1"/>
        <pt x="135" y="257" on="1"/>
        <pt x="135" y="129" on="0"/>
        <pt x="224" y="25" on="0"/>
        <pt x="334" y="25" on="1"/>
        <pt x="442" y="25" on="0"/>
        <pt x="532" y="129" on="0"/>
        <pt x="532" y="257" on="1"/>
        <pt x="532" y="690" on="1"/>
      </contour>
    </TTGlyph>
    <TTGlyph name="Uacute" xMin="94" yMin="-12" xMax="573" yMax="899">
      <contour>
        <pt x="463" y="870" on="1"/>
        <pt x="300" y="734" on="1"/>
        <pt x="282" y="754" on="1"/>
        <pt x="437" y="899" on="1"/>
      </contour>
      <contour>
        <pt x="573" y="690" on="1"/>
        <pt x="573" y="257" on="1"/>
        <pt x="573" y="111" on="0"/>
        <pt x="465" y="-12" on="0"/>
        <pt x="335" y="-12" on="1"/>
        <pt x="203" y="-12" on="0"/>
        <pt x="94" y="111" on="0"/>
        <pt x="94" y="257" on="1"/>
        <pt x="94" y="690" on="1"/>
        <pt x="135" y="690" on="1"/>
        <pt x="135" y="257" on="1"/>
        <pt x="135" y="129" on="0"/>
        <pt x="224" y="25" on="0"/>
        <pt x="334" y="25" on="1"/>
        <pt x="442" y="25" on="0"/>
        <pt x="532" y="129" on="0"/>
        <pt x="532" y="257" on="1"/>
        <pt x="532" y="690" on="1"/>
      </contour>
    </TTGlyph>
    <TTGlyph name="Ucircumflex" xMin="94" yMin="-12" xMax="573" yMax="884">
      <contour>
        <pt x="484" y="765" on="1"/>
        <pt x="468" y="746" on="1"/>
        <pt x="338" y="847" on="1"/>
        <pt x="330" y="847" on="1"/>
        <pt x="201" y="746" on="1"/>
        <pt x="184" y="765" on="1"/>
        <pt x="319" y="884" on="1"/>
        <pt x="349" y="884" on="1"/>
      </contour>
      <contour>
        <pt x="573" y="690" on="1"/>
        <pt x="573" y="257" on="1"/>
        <pt x="573" y="111" on="0"/>
        <pt x="465" y="-12" on="0"/>
        <pt x="335" y="-12" on="1"/>
        <pt x="203" y="-12" on="0"/>
        <pt x="94" y="111" on="0"/>
        <pt x="94" y="257" on="1"/>
        <pt x="94" y="690" on="1"/>
        <pt x="135" y="690" on="1"/>
        <pt x="135" y="257" on="1"/>
        <pt x="135" y="129" on="0"/>
        <pt x="224" y="25" on="0"/>
        <pt x="334" y="25" on="1"/>
        <pt x="442" y="25" on="0"/>
        <pt x="532" y="129" on="0"/>
        <pt x="532" y="257" on="1"/>
        <pt x="532" y="690" on="1"/>
      </contour>
    </TTGlyph>
    <TTGlyph name="Udieresis" xMin="94" yMin="-12" xMax="573" yMax="860">
      <contour>
        <pt x="238" y="860" on="1"/>
        <pt x="253" y="860" on="1"/>
        <pt x="267" y="860" on="0"/>
        <pt x="267" y="845" on="1"/>
        <pt x="267" y="790" on="1"/>
        <pt x="267" y="775" on="0"/>
        <pt x="253" y="775" on="1"/>
        <pt x="238" y="775" on="1"/>
        <pt x="225" y="775" on="0"/>
        <pt x="225" y="790" on="1"/>
        <pt x="225" y="845" on="1"/>
        <pt x="225" y="860" on="0"/>
      </contour>
      <contour>
        <pt x="416" y="860" on="1"/>
        <pt x="430" y="860" on="1"/>
        <pt x="444" y="860" on="0"/>
        <pt x="444" y="845" on="1"/>
        <pt x="444" y="790" on="1"/>
        <pt x="444" y="775" on="0"/>
        <pt x="430" y="775" on="1"/>
        <pt x="416" y="775" on="1"/>
        <pt x="402" y="775" on="0"/>
        <pt x="402" y="790" on="1"/>
        <pt x="402" y="845" on="1"/>
        <pt x="402" y="860" on="0"/>
      </contour>
      <contour>
        <pt x="573" y="690" on="1"/>
        <pt x="573" y="257" on="1"/>
        <pt x="573" y="111" on="0"/>
        <pt x="465" y="-12" on="0"/>
        <pt x="335" y="-12" on="1"/>
        <pt x="203" y="-12" on="0"/>
        <pt x="94" y="111" on="0"/>
        <pt x="94" y="257" on="1"/>
        <pt x="94" y="690" on="1"/>
        <pt x="135" y="690" on="1"/>
        <pt x="135" y="257" on="1"/>
        <pt x="135" y="129" on="0"/>
        <pt x="224" y="25" on="0"/>
        <pt x="334" y="25" on="1"/>
        <pt x="442" y="25" on="0"/>
        <pt x="532" y="129" on="0"/>
        <pt x="532" y="257" on="1"/>
        <pt x="532" y="690" on="1"/>
      </contour>
    </TTGlyph>
    <TTGlyph name="Ugrave" xMin="94" yMin="-12" xMax="573" yMax="899">
      <contour>
        <pt x="377" y="754" on="1"/>
        <pt x="359" y="734" on="1"/>
        <pt x="196" y="870" on="1"/>
        <pt x="222" y="899" on="1"/>
      </contour>
      <contour>
        <pt x="573" y="690" on="1"/>
        <pt x="573" y="257" on="1"/>
        <pt x="573" y="111" on="0"/>
        <pt x="465" y="-12" on="0"/>
        <pt x="335" y="-12" on="1"/>
        <pt x="203" y="-12" on="0"/>
        <pt x="94" y="111" on="0"/>
        <pt x="94" y="257" on="1"/>
        <pt x="94" y="690" on="1"/>
        <pt x="135" y="690" on="1"/>
        <pt x="135" y="257" on="1"/>
        <pt x="135" y="129" on="0"/>
        <pt x="224" y="25" on="0"/>
        <pt x="334" y="25" on="1"/>
        <pt x="442" y="25" on="0"/>
        <pt x="532" y="129" on="0"/>
        <pt x="532" y="257" on="1"/>
        <pt x="532" y="690" on="1"/>
      </contour>
    </TTGlyph>
    <TTGlyph name="Uhungarumlaut" xMin="94" yMin="-12" xMax="573" yMax="907">
      <contour>
        <pt x="372" y="885" on="1"/>
        <pt x="250" y="731" on="1"/>
        <pt x="229" y="746" on="1"/>
        <pt x="340" y="907" on="1"/>
      </contour>
      <contour>
        <pt x="518" y="885" on="1"/>
        <pt x="397" y="731" on="1"/>
        <pt x="375" y="746" on="1"/>
        <pt x="486" y="907" on="1"/>
      </contour>
      <contour>
        <pt x="573" y="690" on="1"/>
        <pt x="573" y="257" on="1"/>
        <pt x="573" y="111" on="0"/>
        <pt x="465" y="-12" on="0"/>
        <pt x="335" y="-12" on="1"/>
        <pt x="203" y="-12" on="0"/>
        <pt x="94" y="111" on="0"/>
        <pt x="94" y="257" on="1"/>
        <pt x="94" y="690" on="1"/>
        <pt x="135" y="690" on="1"/>
        <pt x="135" y="257" on="1"/>
        <pt x="135" y="129" on="0"/>
        <pt x="224" y="25" on="0"/>
        <pt x="334" y="25" on="1"/>
        <pt x="442" y="25" on="0"/>
        <pt x="532" y="129" on="0"/>
        <pt x="532" y="257" on="1"/>
        <pt x="532" y="690" on="1"/>
      </contour>
    </TTGlyph>
    <TTGlyph name="Umacron" xMin="94" yMin="-12" xMax="573" yMax="833">
      <contour>
        <pt x="467" y="799" on="1"/>
        <pt x="202" y="799" on="1"/>
        <pt x="202" y="833" on="1"/>
        <pt x="467" y="833" on="1"/>
      </contour>
      <contour>
        <pt x="573" y="690" on="1"/>
        <pt x="573" y="257" on="1"/>
        <pt x="573" y="111" on="0"/>
        <pt x="465" y="-12" on="0"/>
        <pt x="335" y="-12" on="1"/>
        <pt x="203" y="-12" on="0"/>
        <pt x="94" y="111" on="0"/>
        <pt x="94" y="257" on="1"/>
        <pt x="94" y="690" on="1"/>
        <pt x="135" y="690" on="1"/>
        <pt x="135" y="257" on="1"/>
        <pt x="135" y="129" on="0"/>
        <pt x="224" y="25" on="0"/>
        <pt x="334" y="25" on="1"/>
        <pt x="442" y="25" on="0"/>
        <pt x="532" y="129" on="0"/>
        <pt x="532" y="257" on="1"/>
        <pt x="532" y="690" on="1"/>
      </contour>
    </TTGlyph>
    <TTGlyph name="Uogonek" xMin="94" yMin="-211" xMax="573" yMax="690">
      <contour>
        <pt x="573" y="690" on="1"/>
        <pt x="573" y="257" on="1"/>
        <pt x="573" y="122" on="0"/>
        <pt x="481" y="-3" on="0"/>
        <pt x="372" y="-11" on="1"/>
        <pt x="311" y="-75" on="0"/>
        <pt x="290" y="-132" on="1"/>
        <pt x="274" y="-176" on="0"/>
        <pt x="325" y="-204" on="0"/>
        <pt x="380" y="-185" on="1"/>
        <pt x="384" y="-203" on="1"/>
        <pt x="305" y="-236" on="0"/>
        <pt x="239" y="-186" on="0"/>
        <pt x="259" y="-131" on="1"/>
        <pt x="279" y="-72" on="0"/>
        <pt x="345" y="-12" on="1"/>
        <pt x="335" y="-12" on="1"/>
        <pt x="203" y="-12" on="0"/>
        <pt x="94" y="111" on="0"/>
        <pt x="94" y="257" on="1"/>
        <pt x="94" y="690" on="1"/>
        <pt x="135" y="690" on="1"/>
        <pt x="135" y="257" on="1"/>
        <pt x="135" y="129" on="0"/>
        <pt x="224" y="25" on="0"/>
        <pt x="334" y="25" on="1"/>
        <pt x="442" y="25" on="0"/>
        <pt x="532" y="129" on="0"/>
        <pt x="532" y="257" on="1"/>
        <pt x="532" y="690" on="1"/>
      </contour>
    </TTGlyph>
    <TTGlyph name="Uring" xMin="94" yMin="-12" xMax="573" yMax="913">
      <contour>
        <pt x="294" y="913" on="0"/>
        <pt x="376" y="913" on="0"/>
        <pt x="434" y="855" on="0"/>
        <pt x="434" y="775" on="0"/>
        <pt x="376" y="718" on="0"/>
        <pt x="294" y="718" on="0"/>
        <pt x="236" y="775" on="0"/>
        <pt x="236" y="815" on="1"/>
        <pt x="236" y="856" on="0"/>
      </contour>
      <contour>
        <pt x="335" y="888" on="1"/>
        <pt x="304" y="888" on="0"/>
        <pt x="264" y="847" on="0"/>
        <pt x="264" y="815" on="1"/>
        <pt x="264" y="784" on="0"/>
        <pt x="304" y="743" on="0"/>
        <pt x="335" y="743" on="1"/>
        <pt x="365" y="743" on="0"/>
        <pt x="406" y="784" on="0"/>
        <pt x="406" y="846" on="0"/>
        <pt x="365" y="888" on="0"/>
      </contour>
      <contour>
        <pt x="573" y="690" on="1"/>
        <pt x="573" y="257" on="1"/>
        <pt x="573" y="111" on="0"/>
        <pt x="465" y="-12" on="0"/>
        <pt x="335" y="-12" on="1"/>
        <pt x="203" y="-12" on="0"/>
        <pt x="94" y="111" on="0"/>
        <pt x="94" y="257" on="1"/>
        <pt x="94" y="690" on="1"/>
        <pt x="135" y="690" on="1"/>
        <pt x="135" y="257" on="1"/>
        <pt x="135" y="129" on="0"/>
        <pt x="224" y="25" on="0"/>
        <pt x="334" y="25" on="1"/>
        <pt x="442" y="25" on="0"/>
        <pt x="532" y="129" on="0"/>
        <pt x="532" y="257" on="1"/>
        <pt x="532" y="690" on="1"/>
      </contour>
    </TTGlyph>
    <TTGlyph name="V" xMin="24" yMin="0" xMax="573" yMax="690">
      <contour>
        <pt x="573" y="690" on="1"/>
        <pt x="344" y="13" on="1"/>
        <pt x="338" y="0" on="0"/>
        <pt x="325" y="0" on="1"/>
        <pt x="271" y="0" on="1"/>
        <pt x="257" y="0" on="0"/>
        <pt x="253" y="13" on="1"/>
        <pt x="24" y="690" on="1"/>
        <pt x="67" y="690" on="1"/>
        <pt x="261" y="108" on="1"/>
        <pt x="279" y="51" on="0"/>
        <pt x="284" y="34" on="1"/>
        <pt x="312" y="34" on="1"/>
        <pt x="336" y="109" on="1"/>
        <pt x="529" y="690" on="1"/>
      </contour>
    </TTGlyph>
    <TTGlyph name="W" xMin="32" yMin="0" xMax="902" yMax="690">
      <contour>
        <pt x="902" y="690" on="1"/>
        <pt x="730" y="14" on="1"/>
        <pt x="726" y="0" on="0"/>
        <pt x="711" y="0" on="1"/>
        <pt x="654" y="0" on="1"/>
        <pt x="638" y="0" on="0"/>
        <pt x="635" y="15" on="1"/>
        <pt x="498" y="579" on="1"/>
        <pt x="479" y="657" on="1"/>
        <pt x="456" y="657" on="1"/>
        <pt x="449" y="631" on="0"/>
        <pt x="437" y="579" on="1"/>
        <pt x="300" y="15" on="1"/>
        <pt x="297" y="0" on="0"/>
        <pt x="281" y="0" on="1"/>
        <pt x="224" y="0" on="1"/>
        <pt x="209" y="0" on="0"/>
        <pt x="204" y="14" on="1"/>
        <pt x="32" y="690" on="1"/>
        <pt x="76" y="690" on="1"/>
        <pt x="222" y="107" on="1"/>
        <pt x="239" y="34" on="1"/>
        <pt x="266" y="34" on="1"/>
        <pt x="268" y="43" on="0"/>
        <pt x="280" y="92" on="0"/>
        <pt x="283" y="106" on="1"/>
        <pt x="422" y="674" on="1"/>
        <pt x="425" y="690" on="0"/>
        <pt x="441" y="690" on="1"/>
        <pt x="494" y="690" on="1"/>
        <pt x="508" y="690" on="0"/>
        <pt x="513" y="674" on="1"/>
        <pt x="652" y="107" on="1"/>
        <pt x="658" y="82" on="0"/>
        <pt x="668" y="34" on="1"/>
        <pt x="695" y="34" on="1"/>
        <pt x="712" y="106" on="1"/>
        <pt x="859" y="690" on="1"/>
      </contour>
    </TTGlyph>
    <TTGlyph name="Wacute" xMin="32" yMin="0" xMax="902" yMax="899">
      <contour>
        <pt x="597" y="869" on="1"/>
        <pt x="434" y="734" on="1"/>
        <pt x="416" y="753" on="1"/>
        <pt x="571" y="899" on="1"/>
      </contour>
      <contour>
        <pt x="902" y="690" on="1"/>
        <pt x="730" y="14" on="1"/>
        <pt x="726" y="0" on="0"/>
        <pt x="711" y="0" on="1"/>
        <pt x="654" y="0" on="1"/>
        <pt x="638" y="0" on="0"/>
        <pt x="635" y="15" on="1"/>
        <pt x="498" y="579" on="1"/>
        <pt x="479" y="657" on="1"/>
        <pt x="456" y="657" on="1"/>
        <pt x="449" y="631" on="0"/>
        <pt x="437" y="579" on="1"/>
        <pt x="300" y="15" on="1"/>
        <pt x="297" y="0" on="0"/>
        <pt x="281" y="0" on="1"/>
        <pt x="224" y="0" on="1"/>
        <pt x="209" y="0" on="0"/>
        <pt x="204" y="14" on="1"/>
        <pt x="32" y="690" on="1"/>
        <pt x="76" y="690" on="1"/>
        <pt x="222" y="107" on="1"/>
        <pt x="239" y="34" on="1"/>
        <pt x="266" y="34" on="1"/>
        <pt x="268" y="43" on="0"/>
        <pt x="280" y="92" on="0"/>
        <pt x="283" y="106" on="1"/>
        <pt x="422" y="674" on="1"/>
        <pt x="425" y="690" on="0"/>
        <pt x="441" y="690" on="1"/>
        <pt x="494" y="690" on="1"/>
        <pt x="508" y="690" on="0"/>
        <pt x="513" y="674" on="1"/>
        <pt x="652" y="107" on="1"/>
        <pt x="658" y="82" on="0"/>
        <pt x="668" y="34" on="1"/>
        <pt x="695" y="34" on="1"/>
        <pt x="712" y="106" on="1"/>
        <pt x="859" y="690" on="1"/>
      </contour>
    </TTGlyph>
    <TTGlyph name="Wcircumflex" xMin="32" yMin="0" xMax="902" yMax="884">
      <contour>
        <pt x="617" y="764" on="1"/>
        <pt x="601" y="746" on="1"/>
        <pt x="471" y="847" on="1"/>
        <pt x="463" y="847" on="1"/>
        <pt x="334" y="746" on="1"/>
        <pt x="318" y="764" on="1"/>
        <pt x="453" y="884" on="1"/>
        <pt x="482" y="884" on="1"/>
      </contour>
      <contour>
        <pt x="902" y="690" on="1"/>
        <pt x="730" y="14" on="1"/>
        <pt x="726" y="0" on="0"/>
        <pt x="711" y="0" on="1"/>
        <pt x="654" y="0" on="1"/>
        <pt x="638" y="0" on="0"/>
        <pt x="635" y="15" on="1"/>
        <pt x="498" y="579" on="1"/>
        <pt x="479" y="657" on="1"/>
        <pt x="456" y="657" on="1"/>
        <pt x="449" y="631" on="0"/>
        <pt x="437" y="579" on="1"/>
        <pt x="300" y="15" on="1"/>
        <pt x="297" y="0" on="0"/>
        <pt x="281" y="0" on="1"/>
        <pt x="224" y="0" on="1"/>
        <pt x="209" y="0" on="0"/>
        <pt x="204" y="14" on="1"/>
        <pt x="32" y="690" on="1"/>
        <pt x="76" y="690" on="1"/>
        <pt x="222" y="107" on="1"/>
        <pt x="239" y="34" on="1"/>
        <pt x="266" y="34" on="1"/>
        <pt x="268" y="43" on="0"/>
        <pt x="280" y="92" on="0"/>
        <pt x="283" y="106" on="1"/>
        <pt x="422" y="674" on="1"/>
        <pt x="425" y="690" on="0"/>
        <pt x="441" y="690" on="1"/>
        <pt x="494" y="690" on="1"/>
        <pt x="508" y="690" on="0"/>
        <pt x="513" y="674" on="1"/>
        <pt x="652" y="107" on="1"/>
        <pt x="658" y="82" on="0"/>
        <pt x="668" y="34" on="1"/>
        <pt x="695" y="34" on="1"/>
        <pt x="712" y="106" on="1"/>
        <pt x="859" y="690" on="1"/>
      </contour>
    </TTGlyph>
    <TTGlyph name="Wdieresis" xMin="32" yMin="0" xMax="902" yMax="859">
      <contour>
        <pt x="372" y="859" on="1"/>
        <pt x="387" y="859" on="1"/>
        <pt x="400" y="859" on="0"/>
        <pt x="400" y="845" on="1"/>
        <pt x="400" y="789" on="1"/>
        <pt x="400" y="775" on="0"/>
        <pt x="387" y="775" on="1"/>
        <pt x="372" y="775" on="1"/>
        <pt x="358" y="775" on="0"/>
        <pt x="358" y="789" on="1"/>
        <pt x="358" y="845" on="1"/>
        <pt x="358" y="859" on="0"/>
      </contour>
      <contour>
        <pt x="549" y="859" on="1"/>
        <pt x="564" y="859" on="1"/>
        <pt x="577" y="859" on="0"/>
        <pt x="577" y="845" on="1"/>
        <pt x="577" y="789" on="1"/>
        <pt x="577" y="775" on="0"/>
        <pt x="564" y="775" on="1"/>
        <pt x="549" y="775" on="1"/>
        <pt x="535" y="775" on="0"/>
        <pt x="535" y="789" on="1"/>
        <pt x="535" y="845" on="1"/>
        <pt x="535" y="859" on="0"/>
      </contour>
      <contour>
        <pt x="902" y="690" on="1"/>
        <pt x="730" y="14" on="1"/>
        <pt x="726" y="0" on="0"/>
        <pt x="711" y="0" on="1"/>
        <pt x="654" y="0" on="1"/>
        <pt x="638" y="0" on="0"/>
        <pt x="635" y="15" on="1"/>
        <pt x="498" y="579" on="1"/>
        <pt x="479" y="657" on="1"/>
        <pt x="456" y="657" on="1"/>
        <pt x="449" y="631" on="0"/>
        <pt x="437" y="579" on="1"/>
        <pt x="300" y="15" on="1"/>
        <pt x="297" y="0" on="0"/>
        <pt x="281" y="0" on="1"/>
        <pt x="224" y="0" on="1"/>
        <pt x="209" y="0" on="0"/>
        <pt x="204" y="14" on="1"/>
        <pt x="32" y="690" on="1"/>
        <pt x="76" y="690" on="1"/>
        <pt x="222" y="107" on="1"/>
        <pt x="239" y="34" on="1"/>
        <pt x="266" y="34" on="1"/>
        <pt x="268" y="43" on="0"/>
        <pt x="280" y="92" on="0"/>
        <pt x="283" y="106" on="1"/>
        <pt x="422" y="674" on="1"/>
        <pt x="425" y="690" on="0"/>
        <pt x="441" y="690" on="1"/>
        <pt x="494" y="690" on="1"/>
        <pt x="508" y="690" on="0"/>
        <pt x="513" y="674" on="1"/>
        <pt x="652" y="107" on="1"/>
        <pt x="658" y="82" on="0"/>
        <pt x="668" y="34" on="1"/>
        <pt x="695" y="34" on="1"/>
        <pt x="712" y="106" on="1"/>
        <pt x="859" y="690" on="1"/>
      </contour>
    </TTGlyph>
    <TTGlyph name="Wgrave" xMin="32" yMin="0" xMax="902" yMax="899">
      <contour>
        <pt x="510" y="753" on="1"/>
        <pt x="492" y="734" on="1"/>
        <pt x="329" y="869" on="1"/>
        <pt x="355" y="899" on="1"/>
      </contour>
      <contour>
        <pt x="902" y="690" on="1"/>
        <pt x="730" y="14" on="1"/>
        <pt x="726" y="0" on="0"/>
        <pt x="711" y="0" on="1"/>
        <pt x="654" y="0" on="1"/>
        <pt x="638" y="0" on="0"/>
        <pt x="635" y="15" on="1"/>
        <pt x="498" y="579" on="1"/>
        <pt x="479" y="657" on="1"/>
        <pt x="456" y="657" on="1"/>
        <pt x="449" y="631" on="0"/>
        <pt x="437" y="579" on="1"/>
        <pt x="300" y="15" on="1"/>
        <pt x="297" y="0" on="0"/>
        <pt x="281" y="0" on="1"/>
        <pt x="224" y="0" on="1"/>
        <pt x="209" y="0" on="0"/>
        <pt x="204" y="14" on="1"/>
        <pt x="32" y="690" on="1"/>
        <pt x="76" y="690" on="1"/>
        <pt x="222" y="107" on="1"/>
        <pt x="239" y="34" on="1"/>
        <pt x="266" y="34" on="1"/>
        <pt x="268" y="43" on="0"/>
        <pt x="280" y="92" on="0"/>
        <pt x="283" y="106" on="1"/>
        <pt x="422" y="674" on="1"/>
        <pt x="425" y="690" on="0"/>
        <pt x="441" y="690" on="1"/>
        <pt x="494" y="690" on="1"/>
        <pt x="508" y="690" on="0"/>
        <pt x="513" y="674" on="1"/>
        <pt x="652" y="107" on="1"/>
        <pt x="658" y="82" on="0"/>
        <pt x="668" y="34" on="1"/>
        <pt x="695" y="34" on="1"/>
        <pt x="712" y="106" on="1"/>
        <pt x="859" y="690" on="1"/>
      </contour>
    </TTGlyph>
    <TTGlyph name="X" xMin="35" yMin="0" xMax="563" yMax="690">
      <contour>
        <pt x="314" y="343" on="1"/>
        <pt x="284" y="343" on="1"/>
        <pt x="82" y="0" on="1"/>
        <pt x="35" y="0" on="1"/>
        <pt x="247" y="359" on="1"/>
        <pt x="48" y="690" on="1"/>
        <pt x="94" y="690" on="1"/>
        <pt x="282" y="377" on="1"/>
        <pt x="315" y="377" on="1"/>
        <pt x="503" y="690" on="1"/>
        <pt x="550" y="690" on="1"/>
        <pt x="350" y="359" on="1"/>
        <pt x="563" y="0" on="1"/>
        <pt x="516" y="0" on="1"/>
      </contour>
    </TTGlyph>
    <TTGlyph name="Y" xMin="19" yMin="0" xMax="528" yMax="690">
      <contour>
        <pt x="295" y="253" on="1"/>
        <pt x="295" y="0" on="1"/>
        <pt x="253" y="0" on="1"/>
        <pt x="253" y="254" on="1"/>
        <pt x="19" y="690" on="1"/>
        <pt x="64" y="690" on="1"/>
        <pt x="235" y="368" on="1"/>
        <pt x="241" y="357" on="0"/>
        <pt x="265" y="309" on="0"/>
        <pt x="271" y="297" on="1"/>
        <pt x="277" y="297" on="1"/>
        <pt x="312" y="367" on="1"/>
        <pt x="483" y="690" on="1"/>
        <pt x="528" y="690" on="1"/>
      </contour>
    </TTGlyph>
    <TTGlyph name="Yacute" xMin="19" yMin="0" xMax="528" yMax="899">
      <contour>
        <pt x="240" y="734" on="1"/>
        <pt x="222" y="754" on="1"/>
        <pt x="377" y="899" on="1"/>
        <pt x="403" y="870" on="1"/>
      </contour>
      <contour>
        <pt x="295" y="253" on="1"/>
        <pt x="295" y="0" on="1"/>
        <pt x="253" y="0" on="1"/>
        <pt x="253" y="254" on="1"/>
        <pt x="19" y="690" on="1"/>
        <pt x="64" y="690" on="1"/>
        <pt x="235" y="368" on="1"/>
        <pt x="241" y="357" on="0"/>
        <pt x="265" y="309" on="0"/>
        <pt x="271" y="297" on="1"/>
        <pt x="277" y="297" on="1"/>
        <pt x="312" y="367" on="1"/>
        <pt x="483" y="690" on="1"/>
        <pt x="528" y="690" on="1"/>
      </contour>
    </TTGlyph>
    <TTGlyph name="Ycircumflex" xMin="19" yMin="0" xMax="528" yMax="884">
      <contour>
        <pt x="140" y="746" on="1"/>
        <pt x="124" y="765" on="1"/>
        <pt x="259" y="884" on="1"/>
        <pt x="288" y="884" on="1"/>
        <pt x="423" y="765" on="1"/>
        <pt x="407" y="746" on="1"/>
        <pt x="278" y="847" on="1"/>
        <pt x="270" y="847" on="1"/>
      </contour>
      <contour>
        <pt x="295" y="253" on="1"/>
        <pt x="295" y="0" on="1"/>
        <pt x="253" y="0" on="1"/>
        <pt x="253" y="254" on="1"/>
        <pt x="19" y="690" on="1"/>
        <pt x="64" y="690" on="1"/>
        <pt x="235" y="368" on="1"/>
        <pt x="241" y="357" on="0"/>
        <pt x="265" y="309" on="0"/>
        <pt x="271" y="297" on="1"/>
        <pt x="277" y="297" on="1"/>
        <pt x="312" y="367" on="1"/>
        <pt x="483" y="690" on="1"/>
        <pt x="528" y="690" on="1"/>
      </contour>
    </TTGlyph>
    <TTGlyph name="Ydieresis" xMin="19" yMin="0" xMax="528" yMax="860">
      <contour>
        <pt x="193" y="775" on="1"/>
        <pt x="178" y="775" on="1"/>
        <pt x="165" y="775" on="0"/>
        <pt x="165" y="790" on="1"/>
        <pt x="165" y="845" on="1"/>
        <pt x="165" y="860" on="0"/>
        <pt x="178" y="860" on="1"/>
        <pt x="193" y="860" on="1"/>
        <pt x="206" y="860" on="0"/>
        <pt x="206" y="845" on="1"/>
        <pt x="206" y="790" on="1"/>
        <pt x="206" y="775" on="0"/>
      </contour>
      <contour>
        <pt x="370" y="775" on="1"/>
        <pt x="355" y="775" on="1"/>
        <pt x="342" y="775" on="0"/>
        <pt x="342" y="790" on="1"/>
        <pt x="342" y="845" on="1"/>
        <pt x="342" y="860" on="0"/>
        <pt x="355" y="860" on="1"/>
        <pt x="370" y="860" on="1"/>
        <pt x="383" y="860" on="0"/>
        <pt x="383" y="845" on="1"/>
        <pt x="383" y="790" on="1"/>
        <pt x="383" y="775" on="0"/>
      </contour>
      <contour>
        <pt x="295" y="253" on="1"/>
        <pt x="295" y="0" on="1"/>
        <pt x="253" y="0" on="1"/>
        <pt x="253" y="254" on="1"/>
        <pt x="19" y="690" on="1"/>
        <pt x="64" y="690" on="1"/>
        <pt x="235" y="368" on="1"/>
        <pt x="241" y="357" on="0"/>
        <pt x="265" y="309" on="0"/>
        <pt x="271" y="297" on="1"/>
        <pt x="277" y="297" on="1"/>
        <pt x="312" y="367" on="1"/>
        <pt x="483" y="690" on="1"/>
        <pt x="528" y="690" on="1"/>
      </contour>
    </TTGlyph>
    <TTGlyph name="Ygrave" xMin="19" yMin="0" xMax="528" yMax="899">
      <contour>
        <pt x="298" y="734" on="1"/>
        <pt x="135" y="870" on="1"/>
        <pt x="161" y="899" on="1"/>
        <pt x="316" y="754" on="1"/>
      </contour>
      <contour>
        <pt x="295" y="253" on="1"/>
        <pt x="295" y="0" on="1"/>
        <pt x="253" y="0" on="1"/>
        <pt x="253" y="254" on="1"/>
        <pt x="19" y="690" on="1"/>
        <pt x="64" y="690" on="1"/>
        <pt x="235" y="368" on="1"/>
        <pt x="241" y="357" on="0"/>
        <pt x="265" y="309" on="0"/>
        <pt x="271" y="297" on="1"/>
        <pt x="277" y="297" on="1"/>
        <pt x="312" y="367" on="1"/>
        <pt x="483" y="690" on="1"/>
        <pt x="528" y="690" on="1"/>
      </contour>
    </TTGlyph>
    <TTGlyph name="Z" xMin="51" yMin="0" xMax="510" yMax="690">
      <contour>
        <pt x="510" y="36" on="1"/>
        <pt x="510" y="0" on="1"/>
        <pt x="51" y="0" on="1"/>
        <pt x="51" y="36" on="1"/>
        <pt x="458" y="654" on="1"/>
        <pt x="55" y="654" on="1"/>
        <pt x="55" y="690" on="1"/>
        <pt x="505" y="690" on="1"/>
        <pt x="505" y="654" on="1"/>
        <pt x="97" y="36" on="1"/>
      </contour>
    </TTGlyph>
    <TTGlyph name="Zacute" xMin="51" yMin="0" xMax="510" yMax="899">
      <contour>
        <pt x="246" y="734" on="1"/>
        <pt x="228" y="754" on="1"/>
        <pt x="383" y="899" on="1"/>
        <pt x="409" y="870" on="1"/>
      </contour>
      <contour>
        <pt x="510" y="36" on="1"/>
        <pt x="510" y="0" on="1"/>
        <pt x="51" y="0" on="1"/>
        <pt x="51" y="36" on="1"/>
        <pt x="458" y="654" on="1"/>
        <pt x="55" y="654" on="1"/>
        <pt x="55" y="690" on="1"/>
        <pt x="505" y="690" on="1"/>
        <pt x="505" y="654" on="1"/>
        <pt x="97" y="36" on="1"/>
      </contour>
    </TTGlyph>
    <TTGlyph name="Zcaron" xMin="51" yMin="0" xMax="510" yMax="887">
      <contour>
        <pt x="270" y="749" on="1"/>
        <pt x="131" y="869" on="1"/>
        <pt x="148" y="887" on="1"/>
        <pt x="278" y="789" on="1"/>
        <pt x="286" y="789" on="1"/>
        <pt x="415" y="887" on="1"/>
        <pt x="432" y="869" on="1"/>
        <pt x="293" y="749" on="1"/>
      </contour>
      <contour>
        <pt x="510" y="36" on="1"/>
        <pt x="510" y="0" on="1"/>
        <pt x="51" y="0" on="1"/>
        <pt x="51" y="36" on="1"/>
        <pt x="458" y="654" on="1"/>
        <pt x="55" y="654" on="1"/>
        <pt x="55" y="690" on="1"/>
        <pt x="505" y="690" on="1"/>
        <pt x="505" y="654" on="1"/>
        <pt x="97" y="36" on="1"/>
      </contour>
    </TTGlyph>
    <TTGlyph name="Zdotaccent" xMin="51" yMin="0" xMax="510" yMax="862">
      <contour>
        <pt x="288" y="770" on="1"/>
        <pt x="273" y="770" on="1"/>
        <pt x="258" y="770" on="0"/>
        <pt x="258" y="786" on="1"/>
        <pt x="258" y="846" on="1"/>
        <pt x="258" y="862" on="0"/>
        <pt x="273" y="862" on="1"/>
        <pt x="288" y="862" on="1"/>
        <pt x="304" y="862" on="0"/>
        <pt x="304" y="846" on="1"/>
        <pt x="304" y="786" on="1"/>
        <pt x="304" y="770" on="0"/>
      </contour>
      <contour>
        <pt x="510" y="36" on="1"/>
        <pt x="510" y="0" on="1"/>
        <pt x="51" y="0" on="1"/>
        <pt x="51" y="36" on="1"/>
        <pt x="458" y="654" on="1"/>
        <pt x="55" y="654" on="1"/>
        <pt x="55" y="690" on="1"/>
        <pt x="505" y="690" on="1"/>
        <pt x="505" y="654" on="1"/>
        <pt x="97" y="36" on="1"/>
      </contour>
    </TTGlyph>
    <TTGlyph name="a" xMin="62" yMin="-7" xMax="454" yMax="494">
      <contour>
        <pt x="86" y="443" on="1"/>
        <pt x="82" y="473" on="1"/>
        <pt x="234" y="494" on="0"/>
        <pt x="312" y="494" on="1"/>
        <pt x="454" y="494" on="0"/>
        <pt x="454" y="354" on="1"/>
        <pt x="454" y="0" on="1"/>
        <pt x="424" y="0" on="1"/>
        <pt x="417" y="89" on="1"/>
        <pt x="380" y="53" on="0"/>
        <pt x="255" y="-7" on="0"/>
        <pt x="131" y="-7" on="0"/>
        <pt x="62" y="58" on="0"/>
        <pt x="62" y="118" on="1"/>
        <pt x="62" y="178" on="1"/>
        <pt x="62" y="233" on="0"/>
        <pt x="125" y="293" on="0"/>
        <pt x="182" y="293" on="1"/>
        <pt x="414" y="293" on="1"/>
        <pt x="414" y="354" on="1"/>
        <pt x="414" y="404" on="0"/>
        <pt x="366" y="458" on="0"/>
        <pt x="307" y="458" on="1"/>
        <pt x="221" y="458" on="0"/>
      </contour>
      <contour>
        <pt x="103" y="175" on="1"/>
        <pt x="103" y="121" on="1"/>
        <pt x="103" y="31" on="0"/>
        <pt x="197" y="30" on="1"/>
        <pt x="247" y="29" on="0"/>
        <pt x="371" y="82" on="0"/>
        <pt x="414" y="122" on="1"/>
        <pt x="414" y="261" on="1"/>
        <pt x="186" y="258" on="1"/>
        <pt x="103" y="257" on="0"/>
      </contour>
    </TTGlyph>
    <TTGlyph name="aacute" xMin="62" yMin="-7" xMax="454" yMax="718">
      <contour>
        <pt x="233" y="552" on="1"/>
        <pt x="215" y="572" on="1"/>
        <pt x="370" y="718" on="1"/>
        <pt x="396" y="688" on="1"/>
      </contour>
      <contour>
        <pt x="86" y="443" on="1"/>
        <pt x="82" y="473" on="1"/>
        <pt x="234" y="494" on="0"/>
        <pt x="312" y="494" on="1"/>
        <pt x="454" y="494" on="0"/>
        <pt x="454" y="354" on="1"/>
        <pt x="454" y="0" on="1"/>
        <pt x="424" y="0" on="1"/>
        <pt x="417" y="89" on="1"/>
        <pt x="380" y="53" on="0"/>
        <pt x="255" y="-7" on="0"/>
        <pt x="131" y="-7" on="0"/>
        <pt x="62" y="58" on="0"/>
        <pt x="62" y="118" on="1"/>
        <pt x="62" y="178" on="1"/>
        <pt x="62" y="233" on="0"/>
        <pt x="125" y="293" on="0"/>
        <pt x="182" y="293" on="1"/>
        <pt x="414" y="293" on="1"/>
        <pt x="414" y="354" on="1"/>
        <pt x="414" y="404" on="0"/>
        <pt x="366" y="458" on="0"/>
        <pt x="307" y="458" on="1"/>
        <pt x="221" y="458" on="0"/>
      </contour>
      <contour>
        <pt x="103" y="175" on="1"/>
        <pt x="103" y="121" on="1"/>
        <pt x="103" y="31" on="0"/>
        <pt x="197" y="30" on="1"/>
        <pt x="247" y="29" on="0"/>
        <pt x="371" y="82" on="0"/>
        <pt x="414" y="122" on="1"/>
        <pt x="414" y="261" on="1"/>
        <pt x="186" y="258" on="1"/>
        <pt x="103" y="257" on="0"/>
      </contour>
    </TTGlyph>
    <TTGlyph name="abreve" xMin="62" yMin="-7" xMax="454" yMax="694">
      <contour>
        <pt x="382" y="694" on="1"/>
        <pt x="406" y="690" on="1"/>
        <pt x="407" y="635" on="0"/>
        <pt x="333" y="571" on="0"/>
        <pt x="268" y="571" on="1"/>
        <pt x="202" y="571" on="0"/>
        <pt x="126" y="635" on="0"/>
        <pt x="127" y="690" on="1"/>
        <pt x="152" y="694" on="1"/>
        <pt x="152" y="652" on="0"/>
        <pt x="214" y="605" on="0"/>
        <pt x="268" y="605" on="1"/>
        <pt x="321" y="605" on="0"/>
        <pt x="382" y="652" on="0"/>
      </contour>
      <contour>
        <pt x="86" y="443" on="1"/>
        <pt x="82" y="473" on="1"/>
        <pt x="234" y="494" on="0"/>
        <pt x="312" y="494" on="1"/>
        <pt x="454" y="494" on="0"/>
        <pt x="454" y="354" on="1"/>
        <pt x="454" y="0" on="1"/>
        <pt x="424" y="0" on="1"/>
        <pt x="417" y="89" on="1"/>
        <pt x="380" y="53" on="0"/>
        <pt x="255" y="-7" on="0"/>
        <pt x="131" y="-7" on="0"/>
        <pt x="62" y="58" on="0"/>
        <pt x="62" y="118" on="1"/>
        <pt x="62" y="178" on="1"/>
        <pt x="62" y="233" on="0"/>
        <pt x="125" y="293" on="0"/>
        <pt x="182" y="293" on="1"/>
        <pt x="414" y="293" on="1"/>
        <pt x="414" y="354" on="1"/>
        <pt x="414" y="404" on="0"/>
        <pt x="366" y="458" on="0"/>
        <pt x="307" y="458" on="1"/>
        <pt x="221" y="458" on="0"/>
      </contour>
      <contour>
        <pt x="103" y="175" on="1"/>
        <pt x="103" y="121" on="1"/>
        <pt x="103" y="31" on="0"/>
        <pt x="197" y="30" on="1"/>
        <pt x="247" y="29" on="0"/>
        <pt x="371" y="82" on="0"/>
        <pt x="414" y="122" on="1"/>
        <pt x="414" y="261" on="1"/>
        <pt x="186" y="258" on="1"/>
        <pt x="103" y="257" on="0"/>
      </contour>
    </TTGlyph>
    <TTGlyph name="acircumflex" xMin="62" yMin="-7" xMax="454" yMax="703">
      <contour>
        <pt x="134" y="565" on="1"/>
        <pt x="117" y="583" on="1"/>
        <pt x="252" y="703" on="1"/>
        <pt x="281" y="703" on="1"/>
        <pt x="416" y="583" on="1"/>
        <pt x="401" y="565" on="1"/>
        <pt x="271" y="666" on="1"/>
        <pt x="263" y="666" on="1"/>
      </contour>
      <contour>
        <pt x="86" y="443" on="1"/>
        <pt x="82" y="473" on="1"/>
        <pt x="234" y="494" on="0"/>
        <pt x="312" y="494" on="1"/>
        <pt x="454" y="494" on="0"/>
        <pt x="454" y="354" on="1"/>
        <pt x="454" y="0" on="1"/>
        <pt x="424" y="0" on="1"/>
        <pt x="417" y="89" on="1"/>
        <pt x="380" y="53" on="0"/>
        <pt x="255" y="-7" on="0"/>
        <pt x="131" y="-7" on="0"/>
        <pt x="62" y="58" on="0"/>
        <pt x="62" y="118" on="1"/>
        <pt x="62" y="178" on="1"/>
        <pt x="62" y="233" on="0"/>
        <pt x="125" y="293" on="0"/>
        <pt x="182" y="293" on="1"/>
        <pt x="414" y="293" on="1"/>
        <pt x="414" y="354" on="1"/>
        <pt x="414" y="404" on="0"/>
        <pt x="366" y="458" on="0"/>
        <pt x="307" y="458" on="1"/>
        <pt x="221" y="458" on="0"/>
      </contour>
      <contour>
        <pt x="103" y="175" on="1"/>
        <pt x="103" y="121" on="1"/>
        <pt x="103" y="31" on="0"/>
        <pt x="197" y="30" on="1"/>
        <pt x="247" y="29" on="0"/>
        <pt x="371" y="82" on="0"/>
        <pt x="414" y="122" on="1"/>
        <pt x="414" y="261" on="1"/>
        <pt x="186" y="258" on="1"/>
        <pt x="103" y="257" on="0"/>
      </contour>
    </TTGlyph>
    <TTGlyph name="acute" xMin="59" yMin="547" xMax="240" yMax="712">
      <contour>
        <pt x="240" y="683" on="1"/>
        <pt x="77" y="547" on="1"/>
        <pt x="59" y="567" on="1"/>
        <pt x="214" y="712" on="1"/>
      </contour>
    </TTGlyph>
    <TTGlyph name="adieresis" xMin="62" yMin="-7" xMax="454" yMax="678">
      <contour>
        <pt x="186" y="594" on="1"/>
        <pt x="171" y="594" on="1"/>
        <pt x="158" y="594" on="0"/>
        <pt x="158" y="608" on="1"/>
        <pt x="158" y="664" on="1"/>
        <pt x="158" y="678" on="0"/>
        <pt x="171" y="678" on="1"/>
        <pt x="186" y="678" on="1"/>
        <pt x="199" y="678" on="0"/>
        <pt x="199" y="664" on="1"/>
        <pt x="199" y="608" on="1"/>
        <pt x="199" y="594" on="0"/>
      </contour>
      <contour>
        <pt x="363" y="594" on="1"/>
        <pt x="348" y="594" on="1"/>
        <pt x="335" y="594" on="0"/>
        <pt x="335" y="608" on="1"/>
        <pt x="335" y="664" on="1"/>
        <pt x="335" y="678" on="0"/>
        <pt x="348" y="678" on="1"/>
        <pt x="363" y="678" on="1"/>
        <pt x="377" y="678" on="0"/>
        <pt x="377" y="664" on="1"/>
        <pt x="377" y="608" on="1"/>
        <pt x="377" y="594" on="0"/>
      </contour>
      <contour>
        <pt x="86" y="443" on="1"/>
        <pt x="82" y="473" on="1"/>
        <pt x="234" y="494" on="0"/>
        <pt x="312" y="494" on="1"/>
        <pt x="454" y="494" on="0"/>
        <pt x="454" y="354" on="1"/>
        <pt x="454" y="0" on="1"/>
        <pt x="424" y="0" on="1"/>
        <pt x="417" y="89" on="1"/>
        <pt x="380" y="53" on="0"/>
        <pt x="255" y="-7" on="0"/>
        <pt x="131" y="-7" on="0"/>
        <pt x="62" y="58" on="0"/>
        <pt x="62" y="118" on="1"/>
        <pt x="62" y="178" on="1"/>
        <pt x="62" y="233" on="0"/>
        <pt x="125" y="293" on="0"/>
        <pt x="182" y="293" on="1"/>
        <pt x="414" y="293" on="1"/>
        <pt x="414" y="354" on="1"/>
        <pt x="414" y="404" on="0"/>
        <pt x="366" y="458" on="0"/>
        <pt x="307" y="458" on="1"/>
        <pt x="221" y="458" on="0"/>
      </contour>
      <contour>
        <pt x="103" y="175" on="1"/>
        <pt x="103" y="121" on="1"/>
        <pt x="103" y="31" on="0"/>
        <pt x="197" y="30" on="1"/>
        <pt x="247" y="29" on="0"/>
        <pt x="371" y="82" on="0"/>
        <pt x="414" y="122" on="1"/>
        <pt x="414" y="261" on="1"/>
        <pt x="186" y="258" on="1"/>
        <pt x="103" y="257" on="0"/>
      </contour>
    </TTGlyph>
    <TTGlyph name="ae" xMin="62" yMin="-12" xMax="819" yMax="494">
      <contour>
        <pt x="680" y="221" on="1"/>
        <pt x="456" y="221" on="1"/>
        <pt x="460" y="111" on="0"/>
        <pt x="544" y="24" on="0"/>
        <pt x="638" y="24" on="1"/>
        <pt x="721" y="24" on="0"/>
        <pt x="803" y="36" on="1"/>
        <pt x="808" y="8" on="1"/>
        <pt x="748" y="-12" on="0"/>
        <pt x="633" y="-12" on="1"/>
        <pt x="476" y="-12" on="0"/>
        <pt x="435" y="99" on="1"/>
        <pt x="397" y="60" on="0"/>
        <pt x="261" y="-7" on="0"/>
        <pt x="193" y="-7" on="1"/>
        <pt x="131" y="-7" on="0"/>
        <pt x="62" y="58" on="0"/>
        <pt x="62" y="118" on="1"/>
        <pt x="62" y="178" on="1"/>
        <pt x="62" y="233" on="0"/>
        <pt x="125" y="293" on="0"/>
        <pt x="182" y="293" on="1"/>
        <pt x="414" y="293" on="1"/>
        <pt x="414" y="354" on="1"/>
        <pt x="414" y="404" on="0"/>
        <pt x="366" y="458" on="0"/>
        <pt x="307" y="458" on="1"/>
        <pt x="221" y="458" on="0"/>
        <pt x="86" y="443" on="1"/>
        <pt x="82" y="473" on="1"/>
        <pt x="234" y="494" on="0"/>
        <pt x="312" y="494" on="1"/>
        <pt x="421" y="494" on="0"/>
        <pt x="446" y="414" on="1"/>
        <pt x="491" y="494" on="0"/>
        <pt x="625" y="494" on="1"/>
        <pt x="816" y="494" on="0"/>
        <pt x="819" y="352" on="1"/>
        <pt x="820" y="282" on="0"/>
        <pt x="756" y="221" on="0"/>
      </contour>
      <contour>
        <pt x="456" y="254" on="1"/>
        <pt x="674" y="254" on="1"/>
        <pt x="732" y="254" on="0"/>
        <pt x="780" y="299" on="0"/>
        <pt x="778" y="350" on="1"/>
        <pt x="777" y="458" on="0"/>
        <pt x="626" y="458" on="1"/>
        <pt x="533" y="458" on="0"/>
        <pt x="457" y="368" on="0"/>
      </contour>
      <contour>
        <pt x="103" y="175" on="1"/>
        <pt x="103" y="121" on="1"/>
        <pt x="103" y="31" on="0"/>
        <pt x="197" y="30" on="1"/>
        <pt x="249" y="29" on="0"/>
        <pt x="379" y="84" on="0"/>
        <pt x="426" y="126" on="1"/>
        <pt x="414" y="176" on="0"/>
        <pt x="414" y="243" on="1"/>
        <pt x="414" y="260" on="1"/>
        <pt x="414" y="261" on="1"/>
        <pt x="186" y="258" on="1"/>
        <pt x="103" y="257" on="0"/>
      </contour>
    </TTGlyph>
    <TTGlyph name="agrave" xMin="62" yMin="-7" xMax="454" yMax="718">
      <contour>
        <pt x="291" y="552" on="1"/>
        <pt x="128" y="688" on="1"/>
        <pt x="154" y="718" on="1"/>
        <pt x="309" y="572" on="1"/>
      </contour>
      <contour>
        <pt x="86" y="443" on="1"/>
        <pt x="82" y="473" on="1"/>
        <pt x="234" y="494" on="0"/>
        <pt x="312" y="494" on="1"/>
        <pt x="454" y="494" on="0"/>
        <pt x="454" y="354" on="1"/>
        <pt x="454" y="0" on="1"/>
        <pt x="424" y="0" on="1"/>
        <pt x="417" y="89" on="1"/>
        <pt x="380" y="53" on="0"/>
        <pt x="255" y="-7" on="0"/>
        <pt x="131" y="-7" on="0"/>
        <pt x="62" y="58" on="0"/>
        <pt x="62" y="118" on="1"/>
        <pt x="62" y="178" on="1"/>
        <pt x="62" y="233" on="0"/>
        <pt x="125" y="293" on="0"/>
        <pt x="182" y="293" on="1"/>
        <pt x="414" y="293" on="1"/>
        <pt x="414" y="354" on="1"/>
        <pt x="414" y="404" on="0"/>
        <pt x="366" y="458" on="0"/>
        <pt x="307" y="458" on="1"/>
        <pt x="221" y="458" on="0"/>
      </contour>
      <contour>
        <pt x="103" y="175" on="1"/>
        <pt x="103" y="121" on="1"/>
        <pt x="103" y="31" on="0"/>
        <pt x="197" y="30" on="1"/>
        <pt x="247" y="29" on="0"/>
        <pt x="371" y="82" on="0"/>
        <pt x="414" y="122" on="1"/>
        <pt x="414" y="261" on="1"/>
        <pt x="186" y="258" on="1"/>
        <pt x="103" y="257" on="0"/>
      </contour>
    </TTGlyph>
    <TTGlyph name="amacron" xMin="62" yMin="-7" xMax="454" yMax="651">
      <contour>
        <pt x="400" y="618" on="1"/>
        <pt x="135" y="618" on="1"/>
        <pt x="135" y="651" on="1"/>
        <pt x="400" y="651" on="1"/>
      </contour>
      <contour>
        <pt x="86" y="443" on="1"/>
        <pt x="82" y="473" on="1"/>
        <pt x="234" y="494" on="0"/>
        <pt x="312" y="494" on="1"/>
        <pt x="454" y="494" on="0"/>
        <pt x="454" y="354" on="1"/>
        <pt x="454" y="0" on="1"/>
        <pt x="424" y="0" on="1"/>
        <pt x="417" y="89" on="1"/>
        <pt x="380" y="53" on="0"/>
        <pt x="255" y="-7" on="0"/>
        <pt x="131" y="-7" on="0"/>
        <pt x="62" y="58" on="0"/>
        <pt x="62" y="118" on="1"/>
        <pt x="62" y="178" on="1"/>
        <pt x="62" y="233" on="0"/>
        <pt x="125" y="293" on="0"/>
        <pt x="182" y="293" on="1"/>
        <pt x="414" y="293" on="1"/>
        <pt x="414" y="354" on="1"/>
        <pt x="414" y="404" on="0"/>
        <pt x="366" y="458" on="0"/>
        <pt x="307" y="458" on="1"/>
        <pt x="221" y="458" on="0"/>
      </contour>
      <contour>
        <pt x="103" y="175" on="1"/>
        <pt x="103" y="121" on="1"/>
        <pt x="103" y="31" on="0"/>
        <pt x="197" y="30" on="1"/>
        <pt x="247" y="29" on="0"/>
        <pt x="371" y="82" on="0"/>
        <pt x="414" y="122" on="1"/>
        <pt x="414" y="261" on="1"/>
        <pt x="186" y="258" on="1"/>
        <pt x="103" y="257" on="0"/>
      </contour>
    </TTGlyph>
    <TTGlyph name="ampersand" xMin="77" yMin="-9" xMax="726" yMax="699">
      <contour>
        <pt x="721" y="29" on="1"/>
        <pt x="726" y="1" on="1"/>
        <pt x="681" y="-7" on="0"/>
        <pt x="635" y="-7" on="1"/>
        <pt x="527" y="-7" on="0"/>
        <pt x="522" y="91" on="1"/>
        <pt x="475" y="36" on="0"/>
        <pt x="360" y="-9" on="0"/>
        <pt x="276" y="-9" on="1"/>
        <pt x="167" y="-9" on="0"/>
        <pt x="77" y="71" on="0"/>
        <pt x="77" y="174" on="1"/>
        <pt x="77" y="258" on="0"/>
        <pt x="139" y="350" on="0"/>
        <pt x="213" y="356" on="1"/>
        <pt x="213" y="360" on="1"/>
        <pt x="151" y="365" on="0"/>
        <pt x="97" y="445" on="0"/>
        <pt x="97" y="521" on="1"/>
        <pt x="97" y="580" on="0"/>
        <pt x="125" y="652" on="0"/>
        <pt x="195" y="688" on="0"/>
        <pt x="281" y="699" on="0"/>
        <pt x="355" y="699" on="1"/>
        <pt x="444" y="699" on="0"/>
        <pt x="514" y="690" on="1"/>
        <pt x="508" y="660" on="1"/>
        <pt x="477" y="663" on="0"/>
        <pt x="353" y="663" on="1"/>
        <pt x="227" y="663" on="0"/>
        <pt x="139" y="609" on="0"/>
        <pt x="139" y="517" on="1"/>
        <pt x="139" y="433" on="0"/>
        <pt x="210" y="374" on="0"/>
        <pt x="304" y="374" on="1"/>
        <pt x="523" y="374" on="1"/>
        <pt x="529" y="523" on="1"/>
        <pt x="561" y="523" on="1"/>
        <pt x="561" y="374" on="1"/>
        <pt x="698" y="374" on="1"/>
        <pt x="695" y="341" on="1"/>
        <pt x="561" y="341" on="1"/>
        <pt x="561" y="105" on="1"/>
        <pt x="561" y="29" on="0"/>
        <pt x="637" y="29" on="1"/>
      </contour>
      <contour>
        <pt x="522" y="341" on="1"/>
        <pt x="303" y="341" on="1"/>
        <pt x="201" y="341" on="0"/>
        <pt x="120" y="272" on="0"/>
        <pt x="120" y="178" on="1"/>
        <pt x="120" y="93" on="0"/>
        <pt x="190" y="28" on="0"/>
        <pt x="280" y="28" on="1"/>
        <pt x="364" y="28" on="0"/>
        <pt x="477" y="78" on="0"/>
        <pt x="522" y="133" on="1"/>
      </contour>
    </TTGlyph>
    <TTGlyph name="aogonek" xMin="62" yMin="-202" xMax="465" yMax="494">
      <contour>
        <pt x="460" y="-176" on="1"/>
        <pt x="465" y="-194" on="1"/>
        <pt x="385" y="-226" on="0"/>
        <pt x="319" y="-177" on="0"/>
        <pt x="339" y="-122" on="1"/>
        <pt x="358" y="-63" on="0"/>
        <pt x="429" y="0" on="1"/>
        <pt x="424" y="0" on="1"/>
        <pt x="417" y="89" on="1"/>
        <pt x="380" y="53" on="0"/>
        <pt x="255" y="-7" on="0"/>
        <pt x="131" y="-7" on="0"/>
        <pt x="62" y="58" on="0"/>
        <pt x="62" y="118" on="1"/>
        <pt x="62" y="178" on="1"/>
        <pt x="62" y="233" on="0"/>
        <pt x="125" y="293" on="0"/>
        <pt x="182" y="293" on="1"/>
        <pt x="414" y="293" on="1"/>
        <pt x="414" y="354" on="1"/>
        <pt x="414" y="404" on="0"/>
        <pt x="366" y="458" on="0"/>
        <pt x="307" y="458" on="1"/>
        <pt x="221" y="458" on="0"/>
        <pt x="86" y="443" on="1"/>
        <pt x="82" y="473" on="1"/>
        <pt x="234" y="494" on="0"/>
        <pt x="312" y="494" on="1"/>
        <pt x="454" y="494" on="0"/>
        <pt x="454" y="354" on="1"/>
        <pt x="454" y="0" on="1"/>
        <pt x="391" y="-65" on="0"/>
        <pt x="371" y="-123" on="1"/>
        <pt x="355" y="-167" on="0"/>
        <pt x="405" y="-195" on="0"/>
      </contour>
      <contour>
        <pt x="103" y="175" on="1"/>
        <pt x="103" y="121" on="1"/>
        <pt x="103" y="31" on="0"/>
        <pt x="197" y="30" on="1"/>
        <pt x="247" y="29" on="0"/>
        <pt x="371" y="82" on="0"/>
        <pt x="414" y="122" on="1"/>
        <pt x="414" y="261" on="1"/>
        <pt x="186" y="258" on="1"/>
        <pt x="103" y="257" on="0"/>
      </contour>
    </TTGlyph>
    <TTGlyph name="approxequal" xMin="84" yMin="148" xMax="508" yMax="437">
      <contour>
        <pt x="114" y="340" on="1"/>
        <pt x="84" y="340" on="1"/>
        <pt x="80" y="437" on="0"/>
        <pt x="166" y="437" on="1"/>
        <pt x="207" y="437" on="0"/>
        <pt x="381" y="373" on="0"/>
        <pt x="426" y="372" on="1"/>
        <pt x="453" y="372" on="0"/>
        <pt x="478" y="396" on="0"/>
        <pt x="478" y="432" on="1"/>
        <pt x="508" y="432" on="1"/>
        <pt x="510" y="383" on="0"/>
        <pt x="471" y="338" on="0"/>
        <pt x="423" y="338" on="1"/>
        <pt x="377" y="338" on="0"/>
        <pt x="204" y="403" on="0"/>
        <pt x="166" y="403" on="1"/>
        <pt x="139" y="403" on="0"/>
        <pt x="114" y="377" on="0"/>
      </contour>
      <contour>
        <pt x="114" y="149" on="1"/>
        <pt x="84" y="149" on="1"/>
        <pt x="80" y="248" on="0"/>
        <pt x="166" y="246" on="1"/>
        <pt x="208" y="246" on="0"/>
        <pt x="382" y="182" on="0"/>
        <pt x="426" y="181" on="1"/>
        <pt x="453" y="181" on="0"/>
        <pt x="478" y="205" on="0"/>
        <pt x="478" y="241" on="1"/>
        <pt x="508" y="241" on="1"/>
        <pt x="510" y="192" on="0"/>
        <pt x="471" y="148" on="0"/>
        <pt x="423" y="148" on="1"/>
        <pt x="377" y="148" on="0"/>
        <pt x="203" y="212" on="0"/>
        <pt x="166" y="213" on="1"/>
        <pt x="139" y="213" on="0"/>
        <pt x="114" y="187" on="0"/>
      </contour>
    </TTGlyph>
    <TTGlyph name="aring" xMin="62" yMin="-7" xMax="454" yMax="732">
      <contour>
        <pt x="309" y="536" on="0"/>
        <pt x="227" y="536" on="0"/>
        <pt x="169" y="593" on="0"/>
        <pt x="169" y="675" on="0"/>
        <pt x="227" y="732" on="0"/>
        <pt x="268" y="732" on="1"/>
        <pt x="308" y="732" on="0"/>
        <pt x="366" y="674" on="0"/>
        <pt x="366" y="634" on="1"/>
        <pt x="366" y="593" on="0"/>
      </contour>
      <contour>
        <pt x="268" y="706" on="1"/>
        <pt x="237" y="706" on="0"/>
        <pt x="197" y="665" on="0"/>
        <pt x="197" y="603" on="0"/>
        <pt x="237" y="562" on="0"/>
        <pt x="268" y="562" on="1"/>
        <pt x="298" y="562" on="0"/>
        <pt x="339" y="603" on="0"/>
        <pt x="339" y="634" on="1"/>
        <pt x="339" y="664" on="0"/>
        <pt x="298" y="706" on="0"/>
      </contour>
      <contour>
        <pt x="86" y="443" on="1"/>
        <pt x="82" y="473" on="1"/>
        <pt x="234" y="494" on="0"/>
        <pt x="312" y="494" on="1"/>
        <pt x="454" y="494" on="0"/>
        <pt x="454" y="354" on="1"/>
        <pt x="454" y="0" on="1"/>
        <pt x="424" y="0" on="1"/>
        <pt x="417" y="89" on="1"/>
        <pt x="380" y="53" on="0"/>
        <pt x="255" y="-7" on="0"/>
        <pt x="131" y="-7" on="0"/>
        <pt x="62" y="58" on="0"/>
        <pt x="62" y="118" on="1"/>
        <pt x="62" y="178" on="1"/>
        <pt x="62" y="233" on="0"/>
        <pt x="125" y="293" on="0"/>
        <pt x="182" y="293" on="1"/>
        <pt x="414" y="293" on="1"/>
        <pt x="414" y="354" on="1"/>
        <pt x="414" y="404" on="0"/>
        <pt x="366" y="458" on="0"/>
        <pt x="307" y="458" on="1"/>
        <pt x="221" y="458" on="0"/>
      </contour>
      <contour>
        <pt x="103" y="175" on="1"/>
        <pt x="103" y="121" on="1"/>
        <pt x="103" y="31" on="0"/>
        <pt x="197" y="30" on="1"/>
        <pt x="247" y="29" on="0"/>
        <pt x="371" y="82" on="0"/>
        <pt x="414" y="122" on="1"/>
        <pt x="414" y="261" on="1"/>
        <pt x="186" y="258" on="1"/>
        <pt x="103" y="257" on="0"/>
      </contour>
    </TTGlyph>
    <TTGlyph name="asciicircum" xMin="30" yMin="367" xMax="371" yMax="582">
      <contour>
        <pt x="371" y="381" on="1"/>
        <pt x="353" y="367" on="1"/>
        <pt x="205" y="546" on="1"/>
        <pt x="197" y="546" on="1"/>
        <pt x="49" y="367" on="1"/>
        <pt x="30" y="381" on="1"/>
        <pt x="186" y="582" on="1"/>
        <pt x="215" y="582" on="1"/>
      </contour>
    </TTGlyph>
    <TTGlyph name="asciitilde" xMin="84" yMin="236" xMax="448" yMax="335">
      <contour>
        <pt x="108" y="238" on="1"/>
        <pt x="84" y="238" on="1"/>
        <pt x="81" y="286" on="0"/>
        <pt x="123" y="337" on="0"/>
        <pt x="160" y="335" on="1"/>
        <pt x="202" y="332" on="0"/>
        <pt x="329" y="271" on="0"/>
        <pt x="369" y="269" on="1"/>
        <pt x="398" y="267" on="0"/>
        <pt x="424" y="295" on="0"/>
        <pt x="424" y="330" on="1"/>
        <pt x="448" y="330" on="1"/>
        <pt x="450" y="283" on="0"/>
        <pt x="409" y="233" on="0"/>
        <pt x="372" y="236" on="1"/>
        <pt x="321" y="239" on="0"/>
        <pt x="196" y="300" on="0"/>
        <pt x="163" y="302" on="1"/>
        <pt x="134" y="305" on="0"/>
        <pt x="108" y="274" on="0"/>
      </contour>
    </TTGlyph>
    <TTGlyph name="asterisk" xMin="67" yMin="389" xMax="386" yMax="690">
      <contour>
        <pt x="236" y="535" on="1"/>
        <pt x="332" y="406" on="1"/>
        <pt x="308" y="389" on="1"/>
        <pt x="226" y="513" on="1"/>
        <pt x="144" y="390" on="1"/>
        <pt x="119" y="407" on="1"/>
        <pt x="215" y="535" on="1"/>
        <pt x="211" y="690" on="1"/>
        <pt x="242" y="690" on="1"/>
      </contour>
      <contour>
        <pt x="199" y="550" on="1"/>
        <pt x="198" y="537" on="1"/>
        <pt x="192" y="528" on="1"/>
        <pt x="67" y="565" on="1"/>
        <pt x="78" y="594" on="1"/>
      </contour>
      <contour>
        <pt x="386" y="564" on="1"/>
        <pt x="259" y="528" on="1"/>
        <pt x="253" y="537" on="1"/>
        <pt x="253" y="550" on="1"/>
        <pt x="376" y="593" on="1"/>
      </contour>
    </TTGlyph>
    <TTGlyph name="at" xMin="89" yMin="-50" xMax="618" yMax="572">
      <contour>
        <pt x="341" y="572" on="1"/>
        <pt x="482" y="572" on="1"/>
        <pt x="618" y="572" on="0"/>
        <pt x="618" y="448" on="1"/>
        <pt x="618" y="130" on="1"/>
        <pt x="589" y="130" on="1"/>
        <pt x="583" y="209" on="1"/>
        <pt x="548" y="178" on="0"/>
        <pt x="421" y="124" on="0"/>
        <pt x="360" y="124" on="1"/>
        <pt x="301" y="124" on="0"/>
        <pt x="234" y="181" on="0"/>
        <pt x="234" y="233" on="1"/>
        <pt x="234" y="286" on="1"/>
        <pt x="234" y="333" on="0"/>
        <pt x="294" y="385" on="0"/>
        <pt x="349" y="385" on="1"/>
        <pt x="581" y="385" on="1"/>
        <pt x="581" y="447" on="1"/>
        <pt x="581" y="490" on="0"/>
        <pt x="534" y="538" on="0"/>
        <pt x="477" y="537" on="1"/>
        <pt x="342" y="537" on="1"/>
        <pt x="289" y="537" on="0"/>
        <pt x="231" y="533" on="0"/>
        <pt x="175" y="513" on="0"/>
        <pt x="152" y="483" on="0"/>
        <pt x="132" y="416" on="0"/>
        <pt x="128" y="334" on="0"/>
        <pt x="128" y="265" on="1"/>
        <pt x="128" y="194" on="0"/>
        <pt x="132" y="110" on="0"/>
        <pt x="154" y="41" on="0"/>
        <pt x="179" y="10" on="0"/>
        <pt x="242" y="-11" on="0"/>
        <pt x="307" y="-15" on="0"/>
        <pt x="368" y="-15" on="1"/>
        <pt x="613" y="-15" on="1"/>
        <pt x="613" y="-46" on="1"/>
        <pt x="451" y="-50" on="0"/>
        <pt x="369" y="-50" on="1"/>
        <pt x="301" y="-51" on="0"/>
        <pt x="219" y="-45" on="0"/>
        <pt x="151" y="-19" on="0"/>
        <pt x="118" y="18" on="0"/>
        <pt x="95" y="97" on="0"/>
        <pt x="89" y="188" on="0"/>
        <pt x="89" y="265" on="1"/>
        <pt x="89" y="338" on="0"/>
        <pt x="94" y="426" on="0"/>
        <pt x="115" y="502" on="0"/>
        <pt x="144" y="538" on="0"/>
        <pt x="206" y="564" on="0"/>
        <pt x="280" y="571" on="0"/>
      </contour>
      <contour>
        <pt x="581" y="359" on="1"/>
        <pt x="356" y="355" on="1"/>
        <pt x="273" y="352" on="0"/>
        <pt x="273" y="283" on="1"/>
        <pt x="273" y="237" on="1"/>
        <pt x="273" y="160" on="0"/>
        <pt x="363" y="158" on="1"/>
        <pt x="415" y="157" on="0"/>
        <pt x="540" y="204" on="0"/>
        <pt x="581" y="238" on="1"/>
      </contour>
    </TTGlyph>
    <TTGlyph name="atilde" xMin="62" yMin="-7" xMax="454" yMax="688">
      <contour>
        <pt x="142" y="593" on="1"/>
        <pt x="119" y="593" on="1"/>
        <pt x="116" y="641" on="0"/>
        <pt x="158" y="691" on="0"/>
        <pt x="195" y="688" on="1"/>
        <pt x="225" y="685" on="0"/>
        <pt x="308" y="626" on="0"/>
        <pt x="337" y="623" on="1"/>
        <pt x="367" y="621" on="0"/>
        <pt x="393" y="649" on="0"/>
        <pt x="393" y="683" on="1"/>
        <pt x="416" y="683" on="1"/>
        <pt x="418" y="637" on="0"/>
        <pt x="376" y="588" on="0"/>
        <pt x="304" y="594" on="0"/>
        <pt x="220" y="654" on="0"/>
        <pt x="197" y="656" on="1"/>
        <pt x="142" y="662" on="0"/>
      </contour>
      <contour>
        <pt x="86" y="443" on="1"/>
        <pt x="82" y="473" on="1"/>
        <pt x="234" y="494" on="0"/>
        <pt x="312" y="494" on="1"/>
        <pt x="454" y="494" on="0"/>
        <pt x="454" y="354" on="1"/>
        <pt x="454" y="0" on="1"/>
        <pt x="424" y="0" on="1"/>
        <pt x="417" y="89" on="1"/>
        <pt x="380" y="53" on="0"/>
        <pt x="255" y="-7" on="0"/>
        <pt x="131" y="-7" on="0"/>
        <pt x="62" y="58" on="0"/>
        <pt x="62" y="118" on="1"/>
        <pt x="62" y="178" on="1"/>
        <pt x="62" y="233" on="0"/>
        <pt x="125" y="293" on="0"/>
        <pt x="182" y="293" on="1"/>
        <pt x="414" y="293" on="1"/>
        <pt x="414" y="354" on="1"/>
        <pt x="414" y="404" on="0"/>
        <pt x="366" y="458" on="0"/>
        <pt x="307" y="458" on="1"/>
        <pt x="221" y="458" on="0"/>
      </contour>
      <contour>
        <pt x="103" y="175" on="1"/>
        <pt x="103" y="121" on="1"/>
        <pt x="103" y="31" on="0"/>
        <pt x="197" y="30" on="1"/>
        <pt x="247" y="29" on="0"/>
        <pt x="371" y="82" on="0"/>
        <pt x="414" y="122" on="1"/>
        <pt x="414" y="261" on="1"/>
        <pt x="186" y="258" on="1"/>
        <pt x="103" y="257" on="0"/>
      </contour>
    </TTGlyph>
    <TTGlyph name="b" xMin="88" yMin="-12" xMax="495" yMax="700">
      <contour>
        <pt x="128" y="700" on="1"/>
        <pt x="128" y="492" on="1"/>
        <pt x="128" y="427" on="0"/>
        <pt x="123" y="395" on="1"/>
        <pt x="230" y="494" on="0"/>
        <pt x="321" y="494" on="1"/>
        <pt x="414" y="494" on="0"/>
        <pt x="495" y="378" on="0"/>
        <pt x="495" y="241" on="1"/>
        <pt x="495" y="106" on="0"/>
        <pt x="404" y="-12" on="0"/>
        <pt x="296" y="-12" on="1"/>
        <pt x="198" y="-12" on="0"/>
        <pt x="88" y="20" on="1"/>
        <pt x="88" y="700" on="1"/>
      </contour>
      <contour>
        <pt x="128" y="365" on="1"/>
        <pt x="128" y="47" on="1"/>
        <pt x="213" y="22" on="0"/>
        <pt x="295" y="24" on="1"/>
        <pt x="381" y="24" on="0"/>
        <pt x="454" y="122" on="0"/>
        <pt x="454" y="360" on="0"/>
        <pt x="391" y="458" on="0"/>
        <pt x="313" y="458" on="1"/>
        <pt x="271" y="458" on="0"/>
        <pt x="189" y="414" on="0"/>
      </contour>
    </TTGlyph>
    <TTGlyph name="backslash" xMin="35" yMin="-61" xMax="465" yMax="690">
      <contour>
        <pt x="465" y="-61" on="1"/>
        <pt x="428" y="-61" on="1"/>
        <pt x="35" y="690" on="1"/>
        <pt x="72" y="690" on="1"/>
      </contour>
    </TTGlyph>
    <TTGlyph name="bar" xMin="102" yMin="-169" xMax="135" yMax="781">
      <contour>
        <pt x="135" y="-169" on="1"/>
        <pt x="102" y="-169" on="1"/>
        <pt x="102" y="781" on="1"/>
        <pt x="135" y="781" on="1"/>
      </contour>
    </TTGlyph>
    <TTGlyph name="braceleft" xMin="53" yMin="-165" xMax="259" yMax="768">
      <contour>
        <pt x="255" y="768" on="1"/>
        <pt x="255" y="741" on="1"/>
        <pt x="199" y="741" on="0"/>
        <pt x="156" y="692" on="0"/>
        <pt x="156" y="639" on="1"/>
        <pt x="156" y="440" on="1"/>
        <pt x="156" y="381" on="0"/>
        <pt x="125" y="339" on="0"/>
        <pt x="76" y="328" on="1"/>
        <pt x="127" y="311" on="0"/>
        <pt x="159" y="271" on="0"/>
        <pt x="160" y="220" on="1"/>
        <pt x="160" y="-36" on="1"/>
        <pt x="160" y="-89" on="0"/>
        <pt x="203" y="-138" on="0"/>
        <pt x="259" y="-138" on="1"/>
        <pt x="259" y="-165" on="1"/>
        <pt x="185" y="-166" on="0"/>
        <pt x="121" y="-105" on="0"/>
        <pt x="121" y="-37" on="1"/>
        <pt x="121" y="231" on="1"/>
        <pt x="121" y="251" on="0"/>
        <pt x="115" y="275" on="0"/>
        <pt x="92" y="293" on="0"/>
        <pt x="77" y="300" on="0"/>
        <pt x="53" y="309" on="1"/>
        <pt x="53" y="347" on="1"/>
        <pt x="79" y="355" on="0"/>
        <pt x="93" y="360" on="0"/>
        <pt x="114" y="378" on="0"/>
        <pt x="117" y="404" on="0"/>
        <pt x="117" y="429" on="1"/>
        <pt x="117" y="640" on="1"/>
        <pt x="117" y="708" on="0"/>
        <pt x="181" y="769" on="0"/>
      </contour>
    </TTGlyph>
    <TTGlyph name="braceright" xMin="44" yMin="-165" xMax="250" yMax="768">
      <contour>
        <pt x="48" y="741" on="1"/>
        <pt x="48" y="768" on="1"/>
        <pt x="122" y="769" on="0"/>
        <pt x="187" y="708" on="0"/>
        <pt x="187" y="640" on="1"/>
        <pt x="187" y="429" on="1"/>
        <pt x="187" y="383" on="0"/>
        <pt x="208" y="360" on="0"/>
        <pt x="250" y="347" on="1"/>
        <pt x="250" y="309" on="1"/>
        <pt x="226" y="300" on="0"/>
        <pt x="210" y="293" on="0"/>
        <pt x="188" y="276" on="0"/>
        <pt x="183" y="251" on="0"/>
        <pt x="183" y="231" on="1"/>
        <pt x="183" y="-37" on="1"/>
        <pt x="183" y="-105" on="0"/>
        <pt x="118" y="-166" on="0"/>
        <pt x="44" y="-165" on="1"/>
        <pt x="44" y="-138" on="1"/>
        <pt x="100" y="-138" on="0"/>
        <pt x="144" y="-89" on="0"/>
        <pt x="144" y="-36" on="1"/>
        <pt x="144" y="220" on="1"/>
        <pt x="144" y="271" on="0"/>
        <pt x="177" y="311" on="0"/>
        <pt x="227" y="328" on="1"/>
        <pt x="179" y="339" on="0"/>
        <pt x="148" y="381" on="0"/>
        <pt x="148" y="440" on="1"/>
        <pt x="148" y="639" on="1"/>
        <pt x="148" y="692" on="0"/>
        <pt x="104" y="741" on="0"/>
      </contour>
    </TTGlyph>
    <TTGlyph name="bracketleft" xMin="102" yMin="-165" xMax="269" yMax="768">
      <contour>
        <pt x="269" y="737" on="1"/>
        <pt x="153" y="737" on="1"/>
        <pt x="141" y="737" on="0"/>
        <pt x="141" y="724" on="1"/>
        <pt x="141" y="-121" on="1"/>
        <pt x="141" y="-134" on="0"/>
        <pt x="153" y="-134" on="1"/>
        <pt x="269" y="-134" on="1"/>
        <pt x="269" y="-165" on="1"/>
        <pt x="139" y="-165" on="1"/>
        <pt x="123" y="-165" on="0"/>
        <pt x="102" y="-145" on="0"/>
        <pt x="102" y="-128" on="1"/>
        <pt x="102" y="731" on="1"/>
        <pt x="102" y="747" on="0"/>
        <pt x="123" y="768" on="0"/>
        <pt x="139" y="768" on="1"/>
        <pt x="269" y="768" on="1"/>
      </contour>
    </TTGlyph>
    <TTGlyph name="bracketright" xMin="48" yMin="-165" xMax="214" yMax="768">
      <contour>
        <pt x="48" y="768" on="1"/>
        <pt x="177" y="768" on="1"/>
        <pt x="194" y="768" on="0"/>
        <pt x="214" y="748" on="0"/>
        <pt x="214" y="731" on="1"/>
        <pt x="214" y="-128" on="1"/>
        <pt x="214" y="-144" on="0"/>
        <pt x="194" y="-165" on="0"/>
        <pt x="177" y="-165" on="1"/>
        <pt x="48" y="-165" on="1"/>
        <pt x="48" y="-134" on="1"/>
        <pt x="163" y="-134" on="1"/>
        <pt x="176" y="-134" on="0"/>
        <pt x="176" y="-121" on="1"/>
        <pt x="176" y="724" on="1"/>
        <pt x="176" y="737" on="0"/>
        <pt x="163" y="737" on="1"/>
        <pt x="48" y="737" on="1"/>
      </contour>
    </TTGlyph>
    <TTGlyph name="breve" xMin="42" yMin="566" xMax="321" yMax="689">
      <contour>
        <pt x="296" y="689" on="1"/>
        <pt x="321" y="685" on="1"/>
        <pt x="322" y="630" on="0"/>
        <pt x="247" y="566" on="0"/>
        <pt x="117" y="566" on="0"/>
        <pt x="41" y="630" on="0"/>
        <pt x="42" y="685" on="1"/>
        <pt x="66" y="689" on="1"/>
        <pt x="66" y="647" on="0"/>
        <pt x="128" y="600" on="0"/>
        <pt x="182" y="600" on="1"/>
        <pt x="235" y="600" on="0"/>
        <pt x="296" y="647" on="0"/>
      </contour>
    </TTGlyph>
    <TTGlyph name="brevecy" xMin="42" yMin="566" xMax="321" yMax="692">
      <contour>
        <pt x="286" y="692" on="1"/>
        <pt x="321" y="692" on="1"/>
        <pt x="322" y="636" on="0"/>
        <pt x="246" y="566" on="0"/>
        <pt x="182" y="566" on="1"/>
        <pt x="117" y="566" on="0"/>
        <pt x="40" y="637" on="0"/>
        <pt x="42" y="692" on="1"/>
        <pt x="76" y="692" on="1"/>
        <pt x="76" y="645" on="0"/>
        <pt x="133" y="592" on="0"/>
        <pt x="182" y="592" on="1"/>
        <pt x="229" y="592" on="0"/>
        <pt x="286" y="645" on="0"/>
      </contour>
    </TTGlyph>
    <TTGlyph name="brokenbar" xMin="103" yMin="-169" xMax="136" yMax="781">
      <contour>
        <pt x="136" y="381" on="1"/>
        <pt x="103" y="381" on="1"/>
        <pt x="103" y="781" on="1"/>
        <pt x="136" y="781" on="1"/>
      </contour>
      <contour>
        <pt x="136" y="-169" on="1"/>
        <pt x="103" y="-169" on="1"/>
        <pt x="103" y="231" on="1"/>
        <pt x="136" y="231" on="1"/>
      </contour>
    </TTGlyph>
    <TTGlyph name="bullet" xMin="102" yMin="193" xMax="252" yMax="342">
      <contour>
        <pt x="173" y="342" on="1"/>
        <pt x="183" y="342" on="1"/>
        <pt x="222" y="342" on="0"/>
        <pt x="252" y="312" on="0"/>
        <pt x="252" y="274" on="1"/>
        <pt x="252" y="263" on="1"/>
        <pt x="252" y="223" on="0"/>
        <pt x="222" y="193" on="0"/>
        <pt x="183" y="193" on="1"/>
        <pt x="173" y="193" on="1"/>
        <pt x="133" y="193" on="0"/>
        <pt x="102" y="223" on="0"/>
        <pt x="102" y="263" on="1"/>
        <pt x="102" y="274" on="1"/>
        <pt x="102" y="312" on="0"/>
        <pt x="133" y="342" on="0"/>
      </contour>
    </TTGlyph>
    <TTGlyph name="c" xMin="65" yMin="-12" xMax="439" yMax="494">
      <contour>
        <pt x="433" y="35" on="1"/>
        <pt x="439" y="7" on="1"/>
        <pt x="366" y="-12" on="0"/>
        <pt x="288" y="-12" on="1"/>
        <pt x="166" y="-12" on="0"/>
        <pt x="65" y="102" on="0"/>
        <pt x="65" y="380" on="0"/>
        <pt x="166" y="494" on="0"/>
        <pt x="287" y="494" on="1"/>
        <pt x="374" y="494" on="0"/>
        <pt x="428" y="475" on="1"/>
        <pt x="421" y="448" on="1"/>
        <pt x="368" y="458" on="0"/>
        <pt x="294" y="458" on="1"/>
        <pt x="190" y="458" on="0"/>
        <pt x="107" y="365" on="0"/>
        <pt x="107" y="117" on="0"/>
        <pt x="190" y="24" on="0"/>
        <pt x="294" y="24" on="1"/>
        <pt x="378" y="24" on="0"/>
      </contour>
    </TTGlyph>
    <TTGlyph name="cacute" xMin="65" yMin="-12" xMax="439" yMax="718">
      <contour>
        <pt x="400" y="688" on="1"/>
        <pt x="237" y="552" on="1"/>
        <pt x="219" y="572" on="1"/>
        <pt x="374" y="718" on="1"/>
      </contour>
      <contour>
        <pt x="433" y="35" on="1"/>
        <pt x="439" y="7" on="1"/>
        <pt x="366" y="-12" on="0"/>
        <pt x="288" y="-12" on="1"/>
        <pt x="166" y="-12" on="0"/>
        <pt x="65" y="102" on="0"/>
        <pt x="65" y="380" on="0"/>
        <pt x="166" y="494" on="0"/>
        <pt x="287" y="494" on="1"/>
        <pt x="374" y="494" on="0"/>
        <pt x="428" y="475" on="1"/>
        <pt x="421" y="448" on="1"/>
        <pt x="368" y="458" on="0"/>
        <pt x="294" y="458" on="1"/>
        <pt x="190" y="458" on="0"/>
        <pt x="107" y="365" on="0"/>
        <pt x="107" y="117" on="0"/>
        <pt x="190" y="24" on="0"/>
        <pt x="294" y="24" on="1"/>
        <pt x="378" y="24" on="0"/>
      </contour>
    </TTGlyph>
    <TTGlyph name="caron" xMin="49" yMin="571" xMax="350" yMax="709">
      <contour>
        <pt x="350" y="691" on="1"/>
        <pt x="212" y="571" on="1"/>
        <pt x="188" y="571" on="1"/>
        <pt x="49" y="691" on="1"/>
        <pt x="67" y="709" on="1"/>
        <pt x="196" y="611" on="1"/>
        <pt x="204" y="611" on="1"/>
        <pt x="334" y="709" on="1"/>
      </contour>
    </TTGlyph>
    <TTGlyph name="ccaron" xMin="65" yMin="-12" xMax="439" yMax="706">
      <contour>
        <pt x="423" y="687" on="1"/>
        <pt x="284" y="568" on="1"/>
        <pt x="261" y="568" on="1"/>
        <pt x="122" y="687" on="1"/>
        <pt x="139" y="706" on="1"/>
        <pt x="269" y="608" on="1"/>
        <pt x="277" y="608" on="1"/>
        <pt x="406" y="706" on="1"/>
      </contour>
      <contour>
        <pt x="433" y="35" on="1"/>
        <pt x="439" y="7" on="1"/>
        <pt x="366" y="-12" on="0"/>
        <pt x="288" y="-12" on="1"/>
        <pt x="166" y="-12" on="0"/>
        <pt x="65" y="102" on="0"/>
        <pt x="65" y="380" on="0"/>
        <pt x="166" y="494" on="0"/>
        <pt x="287" y="494" on="1"/>
        <pt x="374" y="494" on="0"/>
        <pt x="428" y="475" on="1"/>
        <pt x="421" y="448" on="1"/>
        <pt x="368" y="458" on="0"/>
        <pt x="294" y="458" on="1"/>
        <pt x="190" y="458" on="0"/>
        <pt x="107" y="365" on="0"/>
        <pt x="107" y="117" on="0"/>
        <pt x="190" y="24" on="0"/>
        <pt x="294" y="24" on="1"/>
        <pt x="378" y="24" on="0"/>
      </contour>
    </TTGlyph>
    <TTGlyph name="ccedilla" xMin="65" yMin="-234" xMax="439" yMax="494">
      <contour>
        <pt x="433" y="35" on="1"/>
        <pt x="439" y="7" on="1"/>
        <pt x="366" y="-12" on="0"/>
        <pt x="288" y="-12" on="1"/>
        <pt x="166" y="-12" on="0"/>
        <pt x="65" y="102" on="0"/>
        <pt x="65" y="380" on="0"/>
        <pt x="166" y="494" on="0"/>
        <pt x="287" y="494" on="1"/>
        <pt x="374" y="494" on="0"/>
        <pt x="428" y="475" on="1"/>
        <pt x="421" y="448" on="1"/>
        <pt x="368" y="458" on="0"/>
        <pt x="294" y="458" on="1"/>
        <pt x="190" y="458" on="0"/>
        <pt x="107" y="365" on="0"/>
        <pt x="107" y="117" on="0"/>
        <pt x="190" y="24" on="0"/>
        <pt x="294" y="24" on="1"/>
        <pt x="378" y="24" on="0"/>
      </contour>
      <contour>
        <pt x="247" y="-80" on="1"/>
        <pt x="251" y="-59" on="1"/>
        <pt x="296" y="-56" on="0"/>
        <pt x="339" y="-87" on="0"/>
        <pt x="338" y="-124" on="1"/>
        <pt x="337" y="-179" on="0"/>
        <pt x="256" y="-242" on="0"/>
        <pt x="192" y="-234" on="1"/>
        <pt x="198" y="-211" on="1"/>
        <pt x="247" y="-213" on="0"/>
        <pt x="305" y="-164" on="0"/>
        <pt x="306" y="-126" on="1"/>
        <pt x="306" y="-101" on="0"/>
        <pt x="280" y="-81" on="0"/>
      </contour>
    </TTGlyph>
    <TTGlyph name="cdotaccent" xMin="65" yMin="-12" xMax="439" yMax="680">
      <contour>
        <pt x="264" y="680" on="1"/>
        <pt x="279" y="680" on="1"/>
        <pt x="295" y="680" on="0"/>
        <pt x="295" y="665" on="1"/>
        <pt x="295" y="604" on="1"/>
        <pt x="295" y="589" on="0"/>
        <pt x="279" y="589" on="1"/>
        <pt x="264" y="589" on="1"/>
        <pt x="249" y="589" on="0"/>
        <pt x="249" y="604" on="1"/>
        <pt x="249" y="665" on="1"/>
        <pt x="249" y="680" on="0"/>
      </contour>
      <contour>
        <pt x="433" y="35" on="1"/>
        <pt x="439" y="7" on="1"/>
        <pt x="366" y="-12" on="0"/>
        <pt x="288" y="-12" on="1"/>
        <pt x="166" y="-12" on="0"/>
        <pt x="65" y="102" on="0"/>
        <pt x="65" y="380" on="0"/>
        <pt x="166" y="494" on="0"/>
        <pt x="287" y="494" on="1"/>
        <pt x="374" y="494" on="0"/>
        <pt x="428" y="475" on="1"/>
        <pt x="421" y="448" on="1"/>
        <pt x="368" y="458" on="0"/>
        <pt x="294" y="458" on="1"/>
        <pt x="190" y="458" on="0"/>
        <pt x="107" y="365" on="0"/>
        <pt x="107" y="117" on="0"/>
        <pt x="190" y="24" on="0"/>
        <pt x="294" y="24" on="1"/>
        <pt x="378" y="24" on="0"/>
      </contour>
    </TTGlyph>
    <TTGlyph name="cedilla" xMin="40" yMin="-222" xMax="186" yMax="-47">
      <contour>
        <pt x="95" y="-68" on="1"/>
        <pt x="100" y="-47" on="1"/>
        <pt x="144" y="-44" on="0"/>
        <pt x="187" y="-75" on="0"/>
        <pt x="186" y="-112" on="1"/>
        <pt x="185" y="-167" on="0"/>
        <pt x="105" y="-230" on="0"/>
        <pt x="40" y="-222" on="1"/>
        <pt x="46" y="-199" on="1"/>
        <pt x="95" y="-201" on="0"/>
        <pt x="154" y="-151" on="0"/>
        <pt x="154" y="-114" on="1"/>
        <pt x="154" y="-89" on="0"/>
        <pt x="128" y="-69" on="0"/>
      </contour>
    </TTGlyph>
    <TTGlyph name="cent" xMin="65" yMin="0" xMax="438" yMax="690">
      <contour>
        <pt x="433" y="144" on="1"/>
        <pt x="438" y="116" on="1"/>
        <pt x="367" y="97" on="0"/>
        <pt x="288" y="97" on="1"/>
        <pt x="276" y="97" on="1"/>
        <pt x="268" y="0" on="1"/>
        <pt x="241" y="0" on="1"/>
        <pt x="249" y="98" on="1"/>
        <pt x="149" y="106" on="0"/>
        <pt x="65" y="222" on="0"/>
        <pt x="65" y="350" on="1"/>
        <pt x="65" y="488" on="0"/>
        <pt x="165" y="602" on="0"/>
        <pt x="286" y="603" on="1"/>
        <pt x="292" y="690" on="1"/>
        <pt x="320" y="690" on="1"/>
        <pt x="313" y="602" on="1"/>
        <pt x="376" y="600" on="0"/>
        <pt x="428" y="584" on="1"/>
        <pt x="421" y="556" on="1"/>
        <pt x="380" y="565" on="0"/>
        <pt x="310" y="567" on="1"/>
        <pt x="279" y="133" on="1"/>
        <pt x="294" y="132" on="1"/>
        <pt x="373" y="132" on="0"/>
      </contour>
      <contour>
        <pt x="252" y="134" on="1"/>
        <pt x="283" y="567" on="1"/>
        <pt x="184" y="565" on="0"/>
        <pt x="105" y="471" on="0"/>
        <pt x="105" y="350" on="1"/>
        <pt x="105" y="238" on="0"/>
        <pt x="171" y="142" on="0"/>
      </contour>
    </TTGlyph>
    <TTGlyph name="circumflex" xMin="50" yMin="568" xMax="349" yMax="706">
      <contour>
        <pt x="349" y="587" on="1"/>
        <pt x="334" y="568" on="1"/>
        <pt x="204" y="669" on="1"/>
        <pt x="196" y="669" on="1"/>
        <pt x="67" y="568" on="1"/>
        <pt x="50" y="587" on="1"/>
        <pt x="185" y="706" on="1"/>
        <pt x="214" y="706" on="1"/>
      </contour>
    </TTGlyph>
    <TTGlyph name="colon" xMin="82" yMin="0" xMax="131" yMax="433">
      <contour>
        <pt x="99" y="433" on="1"/>
        <pt x="113" y="433" on="1"/>
        <pt x="131" y="433" on="0"/>
        <pt x="131" y="416" on="1"/>
        <pt x="131" y="355" on="1"/>
        <pt x="131" y="338" on="0"/>
        <pt x="113" y="338" on="1"/>
        <pt x="99" y="338" on="1"/>
        <pt x="82" y="338" on="0"/>
        <pt x="82" y="355" on="1"/>
        <pt x="82" y="416" on="1"/>
        <pt x="82" y="433" on="0"/>
      </contour>
      <contour>
        <pt x="99" y="94" on="1"/>
        <pt x="113" y="94" on="1"/>
        <pt x="131" y="94" on="0"/>
        <pt x="131" y="77" on="1"/>
        <pt x="131" y="17" on="1"/>
        <pt x="131" y="0" on="0"/>
        <pt x="113" y="0" on="1"/>
        <pt x="99" y="0" on="1"/>
        <pt x="82" y="0" on="0"/>
        <pt x="82" y="17" on="1"/>
        <pt x="82" y="77" on="1"/>
        <pt x="82" y="94" on="0"/>
      </contour>
    </TTGlyph>
    <TTGlyph name="comma" xMin="84" yMin="-121" xMax="131" yMax="94">
      <contour>
        <pt x="101" y="94" on="1"/>
        <pt x="114" y="94" on="1"/>
        <pt x="131" y="94" on="0"/>
        <pt x="131" y="77" on="1"/>
        <pt x="131" y="13" on="1"/>
        <pt x="129" y="-59" on="0"/>
        <pt x="108" y="-121" on="1"/>
        <pt x="89" y="-114" on="1"/>
        <pt x="94" y="-64" on="0"/>
        <pt x="94" y="0" on="1"/>
        <pt x="89" y="0" on="0"/>
        <pt x="83" y="9" on="0"/>
        <pt x="84" y="15" on="1"/>
        <pt x="84" y="77" on="1"/>
        <pt x="83" y="94" on="0"/>
      </contour>
    </TTGlyph>
    <TTGlyph name="copyright" xMin="69" yMin="-12" xMax="784" yMax="702">
      <contour>
        <pt x="426" y="702" on="1"/>
        <pt x="577" y="702" on="0"/>
        <pt x="784" y="499" on="0"/>
        <pt x="784" y="191" on="0"/>
        <pt x="577" y="-12" on="0"/>
        <pt x="426" y="-12" on="1"/>
        <pt x="276" y="-12" on="0"/>
        <pt x="69" y="191" on="0"/>
        <pt x="69" y="499" on="0"/>
        <pt x="276" y="702" on="0"/>
      </contour>
      <contour>
        <pt x="426" y="675" on="1"/>
        <pt x="289" y="675" on="0"/>
        <pt x="96" y="486" on="0"/>
        <pt x="96" y="204" on="0"/>
        <pt x="289" y="15" on="0"/>
        <pt x="426" y="15" on="1"/>
        <pt x="564" y="15" on="0"/>
        <pt x="756" y="204" on="0"/>
        <pt x="756" y="486" on="0"/>
        <pt x="564" y="675" on="0"/>
      </contour>
      <contour>
        <pt x="571" y="156" on="1"/>
        <pt x="575" y="132" on="1"/>
        <pt x="517" y="119" on="0"/>
        <pt x="431" y="119" on="1"/>
        <pt x="323" y="119" on="0"/>
        <pt x="236" y="222" on="0"/>
        <pt x="236" y="474" on="0"/>
        <pt x="323" y="577" on="0"/>
        <pt x="431" y="577" on="1"/>
        <pt x="513" y="577" on="0"/>
        <pt x="565" y="564" on="1"/>
        <pt x="559" y="541" on="1"/>
        <pt x="505" y="546" on="0"/>
        <pt x="431" y="546" on="1"/>
        <pt x="341" y="546" on="0"/>
        <pt x="270" y="459" on="0"/>
        <pt x="270" y="237" on="0"/>
        <pt x="341" y="149" on="0"/>
        <pt x="431" y="149" on="1"/>
        <pt x="524" y="149" on="0"/>
      </contour>
    </TTGlyph>
    <TTGlyph name="currency" xMin="79" yMin="132" xMax="520" yMax="572">
      <contour>
        <pt x="499" y="132" on="1"/>
        <pt x="424" y="207" on="1"/>
        <pt x="371" y="160" on="0"/>
        <pt x="299" y="160" on="1"/>
        <pt x="228" y="160" on="0"/>
        <pt x="174" y="206" on="1"/>
        <pt x="100" y="132" on="1"/>
        <pt x="79" y="153" on="1"/>
        <pt x="153" y="227" on="1"/>
        <pt x="107" y="279" on="0"/>
        <pt x="107" y="352" on="1"/>
        <pt x="107" y="424" on="0"/>
        <pt x="153" y="478" on="1"/>
        <pt x="80" y="551" on="1"/>
        <pt x="100" y="572" on="1"/>
        <pt x="174" y="498" on="1"/>
        <pt x="226" y="544" on="0"/>
        <pt x="372" y="544" on="0"/>
        <pt x="425" y="497" on="1"/>
        <pt x="499" y="572" on="1"/>
        <pt x="519" y="551" on="1"/>
        <pt x="445" y="477" on="1"/>
        <pt x="491" y="423" on="0"/>
        <pt x="491" y="352" on="1"/>
        <pt x="491" y="280" on="0"/>
        <pt x="444" y="227" on="1"/>
        <pt x="520" y="152" on="1"/>
      </contour>
      <contour>
        <pt x="299" y="189" on="1"/>
        <pt x="366" y="188" on="0"/>
        <pt x="461" y="284" on="0"/>
        <pt x="461" y="420" on="0"/>
        <pt x="366" y="516" on="0"/>
        <pt x="232" y="516" on="0"/>
        <pt x="136" y="420" on="0"/>
        <pt x="136" y="284" on="0"/>
        <pt x="232" y="188" on="0"/>
      </contour>
    </TTGlyph>
    <TTGlyph name="d" xMin="67" yMin="-12" xMax="473" yMax="700">
      <contour>
        <pt x="473" y="700" on="1"/>
        <pt x="473" y="0" on="1"/>
        <pt x="443" y="0" on="1"/>
        <pt x="438" y="80" on="1"/>
        <pt x="333" y="-12" on="0"/>
        <pt x="147" y="-12" on="0"/>
        <pt x="67" y="106" on="0"/>
        <pt x="67" y="241" on="1"/>
        <pt x="67" y="378" on="0"/>
        <pt x="149" y="494" on="0"/>
        <pt x="244" y="494" on="1"/>
        <pt x="333" y="494" on="0"/>
        <pt x="437" y="445" on="1"/>
        <pt x="434" y="470" on="0"/>
        <pt x="434" y="539" on="1"/>
        <pt x="434" y="700" on="1"/>
      </contour>
      <contour>
        <pt x="434" y="112" on="1"/>
        <pt x="434" y="415" on="1"/>
        <pt x="320" y="458" on="0"/>
        <pt x="249" y="458" on="1"/>
        <pt x="172" y="458" on="0"/>
        <pt x="108" y="362" on="0"/>
        <pt x="108" y="122" on="0"/>
        <pt x="172" y="24" on="0"/>
        <pt x="248" y="24" on="1"/>
        <pt x="291" y="24" on="0"/>
        <pt x="374" y="64" on="0"/>
      </contour>
    </TTGlyph>
    <TTGlyph name="dagger" xMin="52" yMin="-110" xMax="386" yMax="691">
      <contour>
        <pt x="237" y="-110" on="1"/>
        <pt x="201" y="-110" on="1"/>
        <pt x="201" y="456" on="1"/>
        <pt x="199" y="477" on="1"/>
        <pt x="199" y="691" on="1"/>
        <pt x="237" y="691" on="1"/>
      </contour>
      <contour>
        <pt x="386" y="482" on="1"/>
        <pt x="386" y="443" on="1"/>
        <pt x="253" y="449" on="1"/>
        <pt x="253" y="482" on="1"/>
      </contour>
      <contour>
        <pt x="52" y="443" on="1"/>
        <pt x="52" y="482" on="1"/>
        <pt x="185" y="482" on="1"/>
        <pt x="185" y="449" on="1"/>
      </contour>
    </TTGlyph>
    <TTGlyph name="daggerdbl" xMin="70" yMin="-110" xMax="404" yMax="691">
      <contour>
        <pt x="257" y="-110" on="1"/>
        <pt x="217" y="-110" on="1"/>
        <pt x="217" y="691" on="1"/>
        <pt x="257" y="691" on="1"/>
      </contour>
      <contour>
        <pt x="203" y="449" on="1"/>
        <pt x="70" y="443" on="1"/>
        <pt x="70" y="482" on="1"/>
        <pt x="203" y="482" on="1"/>
      </contour>
      <contour>
        <pt x="404" y="443" on="1"/>
        <pt x="271" y="449" on="1"/>
        <pt x="271" y="482" on="1"/>
        <pt x="404" y="482" on="1"/>
      </contour>
      <contour>
        <pt x="203" y="132" on="1"/>
        <pt x="203" y="99" on="1"/>
        <pt x="70" y="99" on="1"/>
        <pt x="70" y="138" on="1"/>
      </contour>
      <contour>
        <pt x="404" y="99" on="1"/>
        <pt x="271" y="99" on="1"/>
        <pt x="271" y="132" on="1"/>
        <pt x="404" y="138" on="1"/>
      </contour>
    </TTGlyph>
    <TTGlyph name="dcaron" xMin="67" yMin="-12" xMax="599" yMax="702">
      <contour>
        <pt x="572" y="702" on="1"/>
        <pt x="584" y="702" on="1"/>
        <pt x="599" y="702" on="0"/>
        <pt x="599" y="687" on="1"/>
        <pt x="599" y="631" on="1"/>
        <pt x="597" y="568" on="0"/>
        <pt x="579" y="513" on="1"/>
        <pt x="562" y="519" on="1"/>
        <pt x="567" y="563" on="0"/>
        <pt x="567" y="619" on="1"/>
        <pt x="555" y="619" on="0"/>
        <pt x="558" y="632" on="1"/>
        <pt x="558" y="687" on="1"/>
        <pt x="557" y="702" on="0"/>
      </contour>
      <contour>
        <pt x="434" y="700" on="1"/>
        <pt x="473" y="700" on="1"/>
        <pt x="473" y="0" on="1"/>
        <pt x="443" y="0" on="1"/>
        <pt x="438" y="80" on="1"/>
        <pt x="333" y="-12" on="0"/>
        <pt x="147" y="-12" on="0"/>
        <pt x="67" y="106" on="0"/>
        <pt x="67" y="241" on="1"/>
        <pt x="67" y="378" on="0"/>
        <pt x="149" y="494" on="0"/>
        <pt x="244" y="494" on="1"/>
        <pt x="333" y="494" on="0"/>
        <pt x="437" y="445" on="1"/>
        <pt x="434" y="470" on="0"/>
        <pt x="434" y="539" on="1"/>
      </contour>
      <contour>
        <pt x="434" y="112" on="1"/>
        <pt x="434" y="415" on="1"/>
        <pt x="320" y="458" on="0"/>
        <pt x="249" y="458" on="1"/>
        <pt x="172" y="458" on="0"/>
        <pt x="108" y="362" on="0"/>
        <pt x="108" y="122" on="0"/>
        <pt x="172" y="24" on="0"/>
        <pt x="248" y="24" on="1"/>
        <pt x="291" y="24" on="0"/>
        <pt x="374" y="64" on="0"/>
      </contour>
    </TTGlyph>
    <TTGlyph name="dcroat" xMin="67" yMin="-12" xMax="546" yMax="700">
      <contour>
        <pt x="546" y="586" on="1"/>
        <pt x="473" y="586" on="1"/>
        <pt x="473" y="0" on="1"/>
        <pt x="443" y="0" on="1"/>
        <pt x="438" y="80" on="1"/>
        <pt x="333" y="-12" on="0"/>
        <pt x="147" y="-12" on="0"/>
        <pt x="67" y="106" on="0"/>
        <pt x="67" y="241" on="1"/>
        <pt x="67" y="378" on="0"/>
        <pt x="149" y="494" on="0"/>
        <pt x="244" y="494" on="1"/>
        <pt x="333" y="494" on="0"/>
        <pt x="437" y="445" on="1"/>
        <pt x="434" y="470" on="0"/>
        <pt x="434" y="539" on="1"/>
        <pt x="434" y="586" on="1"/>
        <pt x="263" y="586" on="1"/>
        <pt x="263" y="613" on="1"/>
        <pt x="434" y="613" on="1"/>
        <pt x="434" y="700" on="1"/>
        <pt x="473" y="700" on="1"/>
        <pt x="473" y="613" on="1"/>
        <pt x="546" y="613" on="1"/>
      </contour>
      <contour>
        <pt x="434" y="112" on="1"/>
        <pt x="434" y="415" on="1"/>
        <pt x="320" y="458" on="0"/>
        <pt x="249" y="458" on="1"/>
        <pt x="172" y="458" on="0"/>
        <pt x="108" y="362" on="0"/>
        <pt x="108" y="122" on="0"/>
        <pt x="172" y="24" on="0"/>
        <pt x="248" y="24" on="1"/>
        <pt x="291" y="24" on="0"/>
        <pt x="374" y="64" on="0"/>
      </contour>
    </TTGlyph>
    <TTGlyph name="degree" xMin="64" yMin="453" xMax="314" yMax="702">
      <contour>
        <pt x="189" y="702" on="1"/>
        <pt x="240" y="702" on="0"/>
        <pt x="314" y="629" on="0"/>
        <pt x="314" y="527" on="0"/>
        <pt x="240" y="453" on="0"/>
        <pt x="138" y="453" on="0"/>
        <pt x="64" y="527" on="0"/>
        <pt x="64" y="629" on="0"/>
        <pt x="137" y="702" on="0"/>
      </contour>
      <contour>
        <pt x="229" y="674" on="0"/>
        <pt x="149" y="674" on="0"/>
        <pt x="93" y="618" on="0"/>
        <pt x="93" y="578" on="1"/>
        <pt x="93" y="539" on="0"/>
        <pt x="150" y="481" on="0"/>
        <pt x="228" y="481" on="0"/>
        <pt x="285" y="539" on="0"/>
        <pt x="285" y="578" on="1"/>
        <pt x="285" y="618" on="0"/>
      </contour>
    </TTGlyph>
    <TTGlyph name="dieresis" xMin="92" yMin="594" xMax="311" yMax="678">
      <contour>
        <pt x="105" y="678" on="1"/>
        <pt x="120" y="678" on="1"/>
        <pt x="134" y="678" on="0"/>
        <pt x="134" y="664" on="1"/>
        <pt x="134" y="608" on="1"/>
        <pt x="134" y="594" on="0"/>
        <pt x="120" y="594" on="1"/>
        <pt x="105" y="594" on="1"/>
        <pt x="92" y="594" on="0"/>
        <pt x="92" y="608" on="1"/>
        <pt x="92" y="664" on="1"/>
        <pt x="92" y="678" on="0"/>
      </contour>
      <contour>
        <pt x="282" y="678" on="1"/>
        <pt x="297" y="678" on="1"/>
        <pt x="311" y="678" on="0"/>
        <pt x="311" y="664" on="1"/>
        <pt x="311" y="608" on="1"/>
        <pt x="311" y="594" on="0"/>
        <pt x="297" y="594" on="1"/>
        <pt x="282" y="594" on="1"/>
        <pt x="269" y="594" on="0"/>
        <pt x="269" y="608" on="1"/>
        <pt x="269" y="664" on="1"/>
        <pt x="269" y="678" on="0"/>
      </contour>
    </TTGlyph>
    <TTGlyph name="divide" xMin="81" yMin="83" xMax="503" yMax="508">
      <contour>
        <pt x="284" y="508" on="1"/>
        <pt x="297" y="508" on="1"/>
        <pt x="314" y="508" on="0"/>
        <pt x="314" y="491" on="1"/>
        <pt x="314" y="432" on="1"/>
        <pt x="314" y="415" on="0"/>
        <pt x="297" y="415" on="1"/>
        <pt x="284" y="415" on="1"/>
        <pt x="267" y="415" on="0"/>
        <pt x="267" y="432" on="1"/>
        <pt x="267" y="491" on="1"/>
        <pt x="267" y="508" on="0"/>
      </contour>
      <contour>
        <pt x="503" y="279" on="1"/>
        <pt x="81" y="279" on="1"/>
        <pt x="81" y="312" on="1"/>
        <pt x="503" y="312" on="1"/>
      </contour>
      <contour>
        <pt x="284" y="176" on="1"/>
        <pt x="297" y="176" on="1"/>
        <pt x="314" y="176" on="0"/>
        <pt x="314" y="159" on="1"/>
        <pt x="314" y="100" on="1"/>
        <pt x="314" y="83" on="0"/>
        <pt x="297" y="83" on="1"/>
        <pt x="284" y="83" on="1"/>
        <pt x="267" y="83" on="0"/>
        <pt x="267" y="100" on="1"/>
        <pt x="267" y="159" on="1"/>
        <pt x="267" y="176" on="0"/>
      </contour>
    </TTGlyph>
</ttFont>
